<?xml version="1.0" standalone="no"?>
<!DOCTYPE svg PUBLIC "-//W3C//DTD SVG 1.1//EN" "http://www.w3.org/Graphics/SVG/1.1/DTD/svg11.dtd" >
<svg xmlns="http://www.w3.org/2000/svg" xmlns:xlink="http://www.w3.org/1999/xlink" version="1.1">
<metadata>
Created by FontForge 20200511 at Thu Dec  4 17:40:53 2008
 By convertio
Copyright (c) Cirilicna Slova Dodao Nikola Kovanovic., 2005. All rights reserved.
</metadata>
<defs>
<font id="Nicolettascript" horiz-adv-x="500" >
  <font-face 
    font-family="Nicoletta script"
    font-weight="400"
    font-stretch="normal"
    units-per-em="1000"
    panose-1="2 0 5 6 6 0 0 2 0 2"
    ascent="800"
    descent="-200"
    x-height="200"
    cap-height="692"
    bbox="-306 -442 1370 840"
    underline-thickness="50"
    underline-position="-100"
    unicode-range="U+0020-20AC"
  />
<missing-glyph horiz-adv-x="175" 
 />
    <glyph glyph-name=".notdef" horiz-adv-x="175" 
 />
    <glyph glyph-name=".null" horiz-adv-x="0" 
 />
    <glyph glyph-name="nonmarkingreturn" horiz-adv-x="175" 
 />
    <glyph glyph-name="space" unicode=" " horiz-adv-x="175" 
 />
    <glyph glyph-name="space" unicode="&#xa0;" horiz-adv-x="175" 
 />
    <glyph glyph-name="exclam" unicode="!" horiz-adv-x="434" 
d="M115 26q0 -11 -12.5 -21t-20.5 -10t-12 3t-6 7q-3 4 -3 10q0 16 12 23t20 7t15 -5.5t7 -13.5zM434 639l-2 -6q-2 -4 -18.5 -34t-42.5 -76t-57 -102.5t-62 -112.5t-58 -105.5t-44 -82.5q-14 -18 -22.5 -25.5t-13.5 -7.5q-6 0 -6 9q0 2 11.5 25t30.5 60t43 83.5t49 94.5
t49 94t43 82t31 58.5t12 23.5q1 2 5 6t15 9q5 2 10.5 3.5t10.5 3.5q2 1 5 2l6 2q1 0 3.5 -1t1.5 -3z" />
    <glyph glyph-name="quotedbl" unicode="&#x22;" horiz-adv-x="273" 
d="M290 515q0 -4 -3 -10l-61 -79q-1 -2 -4 -5q-5 -5 -10 -5t-5 6q0 3 1 6t2 5l53 88q1 2 4 5q5 5 11 5q5 0 8.5 -5.5t3.5 -10.5zM210 515q0 -4 -3 -10l-61 -79q-1 -2 -4 -5q-5 -5 -10 -5t-5 6q0 3 1 6t2 5l53 88q1 2 4 5q5 5 11 5q5 0 8.5 -5.5t3.5 -10.5z" />
    <glyph glyph-name="numbersign" unicode="#" horiz-adv-x="444" 
d="M446 417q0 -7 -2.5 -14t-12.5 -8q-32 -2 -68 -3t-73 -2l-25 -71h134q6 0 6 -4q0 -7 -2.5 -14t-12.5 -8q-31 -2 -65.5 -3t-70.5 -2l-44 -125q-2 -7 -8 -7t-11.5 5.5t-5.5 12.5q8 26 17 55t20 59q-21 -1 -41.5 -1h-40.5l-44 -124q-2 -7 -8 -7t-11.5 5.5t-5.5 12.5
q8 26 17 55t19 58h-95q-24 0 -29.5 2.5t-5.5 7.5t2.5 13t12.5 8h126l12 36t12 35h-89q-24 0 -29.5 2.5t-5.5 7.5t2.5 13t12.5 8h120l39 108q7 19 11 25t8 6q7 0 12.5 -5.5t5.5 -13.5l-42 -120h81q11 32 20.5 59.5t17.5 48.5q7 19 11 25t8 6q7 0 12.5 -5.5t5.5 -13.5
l-42 -119h139q6 0 6 -4zM257 390q-21 -1 -41 -1h-40l-25 -70h81q6 18 12.5 36t12.5 35z" />
    <glyph glyph-name="dollar" unicode="$" horiz-adv-x="530" 
d="M631 676q0 -5 -2 -9t-7 -6q-28 -1 -59.5 -7t-63.5 -17q13 -18 13 -43q0 -39 -12.5 -67.5t-32 -47t-42.5 -27.5t-44 -9q-26 0 -43.5 12.5t-17.5 35.5q0 22 10.5 42t28 38.5t41 34.5t49.5 29q-11 10 -29 16t-42 7q-23 -46 -57 -110t-80 -149q14 -13 29.5 -29.5t30 -32
t26.5 -29t18 -22.5q9 -10 15 -24q5 -12 9.5 -28.5t4.5 -36.5q0 -53 -30 -97t-77.5 -75t-105 -48t-111.5 -17q-14 0 -26.5 1t-23.5 3q-9 -17 -18.5 -34t-19.5 -34q-4 -7 -12.5 -16t-13.5 -9q-9 0 -9 10q0 6 4 14l42 75q-30 9 -49.5 24t-31.5 32t-17 35.5t-5 34.5
q0 17 5.5 24.5t13.5 7.5q10 0 19 -10.5t9 -25.5q0 -10 2 -23.5t9 -27.5t20 -27.5t36 -22.5q19 36 43.5 81t52.5 96.5t58 106.5l60 110l-18 16q-23 20 -37 37t-22 31t-10.5 24.5t-2.5 17.5q0 28 18 56.5t51 52.5t79 39.5t101 18.5q27 50 43.5 81t18.5 34q3 6 7 10t8.5 7
t9.5 3q7 0 7 -5q0 -2 -13 -30t-49 -99q22 -1 48.5 -6.5t46.5 -20.5q40 17 76.5 26t59.5 9q8 0 9.5 -1.5t1.5 -9.5zM475 578q0 11 -3 22.5t-10 20.5q-46 -22 -78 -54t-32 -70q0 -27 25 -27q21 0 38.5 9.5t31 25t21 35t7.5 38.5zM345 656q-30 -3 -63.5 -12.5t-62 -25.5
t-47.5 -39.5t-19 -53.5q0 -17 11 -39t41 -52l13 -13q35 66 67.5 126t59.5 109zM329 187q0 25 -7 44t-16 33q-11 16 -24 29q-15 20 -30.5 37.5t-30.5 31.5q-42 -78 -94 -171t-116 -208q11 -2 24 -3.5t28 -1.5q5 0 33 2.5t65 14.5t76.5 38t67.5 73q14 23 19 43t5 38z" />
    <glyph glyph-name="percent" unicode="%" horiz-adv-x="712" 
d="M674 255q0 -46 -22.5 -94.5t-57.5 -88t-77.5 -65t-82.5 -25.5q-22 0 -36.5 6.5t-23.5 18t-12.5 25.5t-3.5 29q0 21 7.5 50t22 60t35.5 61t47.5 54t59.5 38.5t70 14.5q13 0 26.5 -3t24 -12t17 -25.5t6.5 -43.5zM584 696q0 -1 -2 -5.5t-14 -26t-37.5 -67t-72.5 -129
t-119 -211.5t-177 -315q-4 -7 -12.5 -16t-13.5 -9q-9 0 -9 10q0 6 4 14q1 2 19.5 34.5t48 83.5t66.5 116t75.5 133t75.5 133.5t67 117.5t48.5 85t20.5 37q3 6 7 10t8.5 7t9.5 3q7 0 7 -5zM364 545q0 -46 -22.5 -94.5t-57.5 -88t-77.5 -65t-82.5 -25.5q-22 0 -36.5 6.5
t-23.5 18t-12.5 25.5t-3.5 29q0 21 7.5 50t22 60t35.5 61t47.5 54t59.5 38.5t70 14.5q13 0 26.5 -3t24 -12t17 -25.5t6.5 -43.5zM645 270q0 26 -11.5 41.5t-37.5 15.5q-37 0 -73.5 -29.5t-66 -71.5t-48 -89t-18.5 -83q0 -26 12 -42.5t38 -16.5q35 0 71.5 29.5t66 72.5
t48.5 90t19 83zM335 560q0 26 -11.5 41.5t-37.5 15.5q-37 0 -73.5 -29.5t-66 -71.5t-48 -89t-18.5 -83q0 -26 12 -42.5t38 -16.5q35 0 71.5 29.5t66 72.5t48.5 90t19 83z" />
    <glyph glyph-name="ampersand" unicode="&#x26;" horiz-adv-x="552" 
d="M537 -33q0 -7 -9 -11q-4 -2 -9 -2q-33 5 -63.5 30t-56.5 56q-57 -42 -125 -67t-131 -25q-77 0 -124.5 38.5t-47.5 110.5q0 56 25.5 103.5t66.5 88t91.5 76t100.5 67.5q2 32 7 58t10 44q6 21 13 38q19 39 42 61t44.5 33t38.5 13.5t24 2.5q2 0 8.5 -0.5t14.5 -5t14 -14.5
t6 -28q0 -30 -16 -58t-43 -55t-62 -54t-73 -54q1 -29 8 -61t17 -69q0 -1 1 -4q2 -6 3 -11q36 21 74.5 34t70.5 13q3 0 15.5 -1t26.5 -7.5t25 -20.5t11 -39q0 -50 -30 -97.5t-78 -87.5q20 -23 43 -42t49 -32q5 -2 9 -6q9 -7 9 -15zM451 628q0 11 -4 17t-9 10q-6 4 -14 5
q-6 0 -17.5 -2t-25.5 -9t-29.5 -21t-30.5 -38q-9 -17 -17 -38q-7 -18 -12.5 -44t-7.5 -58q34 23 64.5 44.5t53 43.5t36 44t13.5 46zM499 227q0 2 -1 12t-7.5 20.5t-20 19t-38.5 8.5q-19 0 -49.5 -10t-62.5 -30q12 -32 36.5 -79t60.5 -93q35 30 58.5 68t23.5 84zM388 54
q-15 20 -27 38.5t-21 33.5q-11 18 -18 33q-11 17 -18 33.5t-13 33.5q-23 -20 -41 -44.5t-24 -54.5q-1 -3 -3 -7q-3 -7 -11 -7q-5 0 -9.5 4.5t-4.5 18.5q0 28 24 57.5t61 55.5q-14 41 -20 77t-8 68q-44 -32 -87 -65.5t-76.5 -71t-54 -79.5t-20.5 -90q0 -53 31.5 -85.5
t107.5 -32.5q18 0 45.5 5.5t59 16t64.5 26t63 36.5z" />
    <glyph glyph-name="quotesingle" unicode="'" horiz-adv-x="190" 
d="M210 515q0 -4 -3 -10l-61 -79q-1 -2 -4 -5q-5 -5 -10 -5t-5 6q0 3 1 6t2 5l53 88q1 2 4 5q5 5 11 5q5 0 8.5 -5.5t3.5 -10.5z" />
    <glyph glyph-name="parenleft" unicode="(" horiz-adv-x="317" 
d="M630 766q0 -3 -3 -6l-3 -3q-100 -46 -189 -119.5t-156 -168.5t-105.5 -209t-38.5 -242q0 -97 40 -174q0 -2 -0.5 -5t-2.5 -3t-5 4q-11 18 -22.5 42.5t-20.5 52t-15 56.5t-6 56q0 98 22.5 180.5t59.5 151.5t84.5 124.5t96.5 98.5q115 101 262 166q2 0 2 -2z" />
    <glyph glyph-name="parenright" unicode=")" horiz-adv-x="415" 
d="M434 557q0 -97 -22.5 -179.5t-59.5 -151.5t-84 -125t-96 -99q-115 -101 -263 -166q-2 0 -2 2q0 3 3 6l3 3q101 46 189.5 119.5t155.5 168.5t105.5 209t38.5 242q0 97 -40 174q0 2 0.5 5t2.5 3t5 -4q11 -18 22.5 -42.5t20.5 -52t15 -56.5t6 -56z" />
    <glyph glyph-name="asterisk" unicode="*" horiz-adv-x="295" 
d="M272 363q0 -16 -18 -16l-1.5 0.5t-8 2l-19.5 4.5t-37 9l31 -56q1 -1 2 -3t1 -8q0 -13 -16 -13q-10 0 -14 13l-21 59l-31 -57q-1 -2 -4 -5q-5 -5 -11 -5q-5 0 -8.5 5.5t-3.5 10.5q0 4 3 10l43 54l-70 6q1 0 -1.5 0.5t-5.5 2t-6 4.5t-3 7q0 7 5 10.5t12 3.5l66 -16l-32 59
q0 1 -1 3t-1 6q0 11 14 13q5 0 9 -3.5t6 -7.5l23 -64l32 59q1 2 4 5q5 5 11 5q5 0 8.5 -5.5t3.5 -10.5q0 -4 -3 -10l-43 -54l69 -5q4 -1 8 -3q8 -4 8 -10z" />
    <glyph glyph-name="plus" unicode="+" horiz-adv-x="356" 
d="M283 315q0 -7 -2.5 -14t-12.5 -8q-37 -2 -67 -3t-61 -2l-44 -125q-2 -7 -8 -7t-11.5 5.5t-5.5 12.5q11 35 19.5 62.5t16.5 50.5h-95q-24 0 -29.5 2.5t-5.5 7.5t2.5 13t12.5 8h126q9 26 17.5 50.5t18.5 52.5q7 19 11 25t8 6q7 0 12.5 -5.5t5.5 -13.5l-40 -114h126
q6 0 6 -4z" />
    <glyph glyph-name="comma" unicode="," horiz-adv-x="191" 
d="M101 12q-3 -36 -22 -57.5t-40 -32.5q-25 -13 -56 -18q-5 0 -5 6q0 3 13.5 7.5t29 12.5t29 21.5t13.5 34.5q0 10 -3.5 16.5t-3.5 14.5q0 10 6 16t12 6q11 0 16.5 -4t7.5 -9q3 -6 3 -14z" />
    <glyph glyph-name="hyphen" unicode="-" horiz-adv-x="380" 
d="M314 123q0 -5 -2.5 -11t-10.5 -7q-38 -2 -66 -3t-52 -1.5t-47 -0.5h-48q-20 0 -24.5 1.5t-4.5 6.5q0 4 2 11t10 7l235 1q8 0 8 -4z" />
    <glyph glyph-name="period" unicode="." horiz-adv-x="217" 
d="M94 15q0 -11 -12.5 -21t-20.5 -10t-12 3t-6 7q-3 4 -3 10q0 16 12 23t20 7t15 -5.5t7 -13.5z" />
    <glyph glyph-name="slash" unicode="/" horiz-adv-x="312" 
d="M476 665q0 -1 -2 -5.5t-14 -26t-37.5 -67t-72.5 -129t-119 -211.5t-177 -315q-4 -7 -12.5 -16t-13.5 -9q-9 0 -9 10q0 6 4 14q1 2 19.5 34.5t48 83.5t66.5 116t75.5 133t75.5 133.5t67 117.5t48.5 85t20.5 37q3 6 7 10t8.5 7t9.5 3q7 0 7 -5z" />
    <glyph glyph-name="zero" unicode="0" horiz-adv-x="561" 
d="M550 512q0 -60 -20 -123t-55 -122.5t-81 -112t-98 -92t-106.5 -62.5t-106.5 -23q-43 0 -71.5 13t-46 35t-24.5 49.5t-7 57.5q0 42 14.5 98.5t42.5 117t69 119.5t93 105.5t116 75t137 28.5q26 0 51.5 -6t46 -24t33.5 -50t13 -84zM514 537q0 43 -15.5 67t-35.5 35.5
t-38.5 14t-23.5 2.5q-59 0 -113.5 -28t-101.5 -74t-85 -104t-65.5 -118t-42.5 -116.5t-15 -99.5q0 -22 3 -43t14 -38t33 -27.5t60 -10.5q45 0 94.5 25.5t97 68.5t90 98.5t74.5 115.5t51 120t19 112z" />
    <glyph glyph-name="one" unicode="1" horiz-adv-x="327" 
d="M440 676q0 -6 -6 -13q-40 -50 -80 -104.5t-77.5 -110t-71.5 -110t-63 -103.5q-69 -115 -130 -229q-7 -11 -14.5 -15t-14.5 -4t-14.5 2.5t-7.5 8.5q0 5 1 7t2 3q23 50 60 113t79 129t84 129.5t76 113t55 80.5t21 32q0 3 -5 3h-4q-1 0 -2 -1q-41 -31 -89 -60.5t-91 -52.5
q-50 -26 -100 -50q-11 -4 -18 -4q-5 0 -6 2t-1 4q3 11 8.5 18t11.5 12q7 5 15 7q55 22 113 51q50 25 110 60.5t119 80.5q2 3 6 5q3 2 7 3t10 1q3 0 10 -1t7 -7z" />
    <glyph glyph-name="two" unicode="2" horiz-adv-x="524" 
d="M536 588q0 -48 -34 -92.5t-87 -87.5t-118 -84.5t-127 -83.5q-59 -43 -109 -83q-21 -17 -42.5 -35.5t-39.5 -36.5t-31.5 -34.5t-19.5 -29.5q0 -1 -1 -3t-1 -6q0 -7 7 -7q3 0 33 6.5t75 14.5t97.5 14.5t99.5 6.5q20 0 40 -3t36 -8.5t26 -13t10 -17.5q0 -17 -11 -17
q-4 0 -12 2q-4 1 -6 3q-41 11 -76.5 14.5t-83.5 3.5q-51 0 -98.5 -5.5t-84.5 -11.5q-43 -7 -82 -16q-9 -3 -15 -3q-10 0 -13 5.5t-3 10.5q0 17 22.5 43.5t56.5 56.5t73.5 60.5t73.5 55t56.5 40t21.5 15.5q75 49 124 87t79 64q35 31 54 54q37 39 49.5 67t12.5 48
q0 21 -8 33.5t-20.5 19t-28 9t-30.5 2.5q-44 0 -91.5 -17t-87 -42t-65 -54.5t-25.5 -54.5q0 -3 1 -9t5.5 -11t14.5 -9t28 -4t40 5t45.5 14.5t46.5 25t42 36.5q2 1 4 3q3 3 8 3t5 -8q0 -15 -21 -32.5t-53 -33t-70 -26t-73 -10.5q-31 0 -49.5 10.5t-18.5 36.5q0 31 30.5 66
t79.5 64t110.5 48.5t123.5 19.5q21 0 40 -4t33.5 -13.5t23 -24.5t8.5 -37z" />
    <glyph glyph-name="three" unicode="3" 
d="M509 591q0 -16 -10 -36q-13 -28 -45 -56q-27 -24 -76.5 -53t-130.5 -55q-2 -1 -5 -2q-6 -2 -6 -5t10 -4q46 -4 82 -20q15 -7 30 -16.5t26.5 -23t18.5 -31.5t7 -41q0 -65 -36.5 -118.5t-92 -91t-120.5 -58t-121 -20.5q-53 0 -83 13.5t-45 31.5t-18 35.5t-3 24.5
q4 49 30.5 78.5t57.5 45.5t57 21t28 5q11 0 13.5 -3t2.5 -5q0 -4 -6 -6l-6 -2q-54 -10 -81.5 -31.5t-40.5 -44.5q-15 -26 -17 -56q0 -31 14.5 -48.5t35 -26.5t41.5 -11.5t33 -2.5q72 0 129 30t97 72.5t61.5 89t21.5 79.5q0 37 -20 58.5t-48 33t-58.5 14.5t-52.5 3
q-14 0 -22.5 -0.5t-10.5 -0.5q-7 0 -7 5q0 6 6 14q3 4 5 7q3 2 7 4q2 1 3 1q81 18 134 42t85 46q37 26 57 53q13 17 18.5 31t5.5 25q0 21 -13 33.5t-31 19t-38 8.5t-35 2q-43 0 -84 -12t-73.5 -31t-52.5 -41t-20 -43q0 -2 0.5 -7t5 -9.5t13.5 -8t26 -3.5q35 0 68 11.5
t56 28.5q3 3 8 3q4 0 4 -5q0 -13 -17 -25t-41 -21t-50 -14.5t-44 -5.5q-24 0 -37.5 5.5t-20 12.5t-8 14t-1.5 10q0 26 24.5 54.5t65 52t93.5 39t109 15.5q17 0 40.5 -3t45 -11t37 -23.5t15.5 -39.5z" />
    <glyph glyph-name="four" unicode="4" horiz-adv-x="563" 
d="M614 654q0 -3 -6.5 -17t-30.5 -49q-44 -59 -92 -125q-41 -57 -90.5 -129t-99.5 -149q48 2 96 6t94 9h5q16 0 16 -7q0 -4 -5 -7q-10 -7 -35.5 -12.5t-57.5 -8.5t-66.5 -4.5t-63.5 -2.5q-35 -54 -65.5 -106.5t-53.5 -99.5q-5 -11 -13 -14t-15 -3q-10 0 -18.5 2t-8.5 12
q0 7 3 13l3 6q12 24 44 74.5t75 115.5h-13q-35 0 -83.5 -1.5t-93.5 -3.5q-53 -3 -109 -5q-17 -1 -23 5t-6 13q0 8 3 14l3 6q88 95 183.5 171.5t184.5 136.5q136 91 213 132.5t106 41.5q16 0 20 -13v-1v0zM549 623q0 3 -5 3t-8 -1t-5 -2q-93 -48 -189 -111q-41 -27 -86 -60
t-91.5 -71.5t-92.5 -82.5t-88 -94l-4 -6q-3 -4 -3 -11q0 -8 12 -8h31q33 0 93.5 0.5t133.5 3.5q24 36 49.5 73.5l51 75t50 73t46.5 66.5q51 74 100 143q5 8 5 9z" />
    <glyph glyph-name="five" unicode="5" horiz-adv-x="472" 
d="M542 639q0 -7 -6 -13t-33 -10.5t-82 -8.5t-153 -6q-11 0 -19.5 -1.5t-13.5 -5.5q-21 -31 -41 -63q-17 -27 -37.5 -57t-38.5 -55q0 -1 -1 -3t-1 -6q0 -7 6 -7q2 0 8 2l22 6q22 5 52 5q19 0 40 -4t39.5 -14.5t34 -29.5t24.5 -49q3 -7 5 -17q2 -8 3 -19.5t1 -26.5
q0 -21 -4 -46.5t-15.5 -54.5t-32 -60t-53.5 -63q-29 -29 -66 -52q-32 -20 -75 -35.5t-94 -15.5t-80.5 12.5t-45.5 30t-20.5 35t-4.5 26.5q0 14 5 23.5t11 15.5t11.5 8.5t7.5 2.5q8 0 10 -3.5t2 -6.5q0 -8 -6 -13t-6 -21q0 -31 13 -49t31 -27t37 -11t31 -2q52 0 94 20t72 45
q35 29 63 65q43 57 58.5 103t15.5 81q0 24 -5 42.5t-11 31.5q-7 15 -16 25q-18 19 -39 26t-41 7q-17 0 -33 -3t-28 -8q-14 -5 -26 -11q-10 -6 -18.5 -9.5t-14.5 -5.5l-12 -3q-11 3 -11 10q0 3 2 7l2 4q21 25 50 68t56 86q32 50 64 105q1 2 5 4q8 4 16 4q26 -1 54 -2
q24 -1 54.5 -1.5t59.5 -0.5q30 0 57 1t48 3q6 0 12.5 -0.5t6.5 -4.5z" />
    <glyph glyph-name="six" unicode="6" horiz-adv-x="539" 
d="M565 676q0 -9 -17 -9l-24 1q-50 2 -113.5 -28t-127.5 -80.5t-120.5 -116t-93.5 -133.5q-9 -15 -18 -31q-8 -14 -16.5 -30.5t-16.5 -33.5q0 -10 2 -10t6 4q48 46 101 83q45 32 100.5 57.5t111.5 25.5q48 0 70.5 -20t22.5 -65q0 -33 -13.5 -70t-37.5 -73.5t-56.5 -70
t-71.5 -59t-82.5 -40.5t-88.5 -15q-28 0 -45 9.5t-26 22.5t-12 27t-3 23q0 33 15 59.5t33 45.5q21 22 47 40q6 4 11 5t8 1q6 0 7.5 -2t1.5 -4q0 -4 -3 -7q-2 -2 -4 -3q-34 -22 -61.5 -56.5t-27.5 -78.5q0 -18 6 -30t16 -19.5t21.5 -10.5t21.5 -3q36 0 73 17.5t71 45t64 62.5
t52 70t35 67t13 53q0 33 -18.5 46t-47.5 13q-36 0 -74 -14t-73.5 -35.5t-67 -47.5t-56 -49.5t-40 -42t-19.5 -24.5q-12 -19 -17 -23q-4 -3 -5 -3q-2 -1 -6 -1q-5 0 -9 4t-7 9t-4.5 10t-1.5 7q0 20 15 53.5t33 66.5q21 39 48 81q21 33 52.5 71.5t70.5 77t83.5 73.5t91 62
t93.5 43t91 16h10q2 0 3 -1q15 -2 19.5 -5.5t4.5 -6.5z" />
    <glyph glyph-name="seven" unicode="7" horiz-adv-x="433" 
d="M525 651q0 -4 -4 -11q-3 -6 -10.5 -15t-21.5 -22q-55 -49 -105 -95q-21 -19 -44 -39.5t-44.5 -40t-40.5 -36.5t-34 -30q-28 -28 -59 -60q-26 -27 -57.5 -62.5t-61.5 -73.5q-36 -47 -62.5 -91.5t-37.5 -83.5q-5 -11 -11 -15.5t-32 -4.5q-6 0 -8 4t-2 8v5q0 1 1 2
q14 51 68 122q38 51 86 102.5t91 93.5q50 49 100 95q95 100 151.5 149t56.5 54q0 4 -6.5 6t-17 3.5t-23 2t-24.5 0.5q-99 0 -165 -7t-86 -24q-9 -7 -16 -10l-8 -4q-10 0 -10 7q0 4 2 8l2 4q12 18 24 31q11 11 23 21t23 10q34 2 72 4q32 2 73.5 3t85.5 1q55 0 106 -3
q8 0 13 -1t9 -2.5t4 -4.5z" />
    <glyph glyph-name="eight" unicode="8" horiz-adv-x="530" 
d="M545 594q0 -30 -23.5 -57t-58 -51.5t-74.5 -45t-73 -36.5q-6 -3 -14 -6.5t-18 -8.5q13 -13 27.5 -28t27 -28.5t23 -25.5t16.5 -21q9 -10 15 -24q5 -12 9.5 -28.5t4.5 -36.5q0 -53 -30 -97t-77.5 -75t-105 -48t-111.5 -17q-53 0 -87.5 13.5t-55 34t-29 44.5t-8.5 44
q0 54 33.5 98.5t82 79.5t103 61t97.5 44l12 5q-4 5 -7.5 8t-5.5 5q-3 3 -5 4q-44 42 -58 69t-14 41q0 30 20 60t56 54t86 39t109 15q17 0 39.5 -2.5t43.5 -11.5t35.5 -25.5t14.5 -45.5zM501 598q0 19 -9 30.5t-23 18t-31 9t-33 2.5q-29 0 -67 -8t-71.5 -24.5t-57 -41.5
t-23.5 -59q0 -17 11 -39t41 -52l32 -32q70 33 114.5 59.5t70.5 49.5t36 44t10 43zM362 187q0 35 -18 68t-40 59q-26 31 -59 57q-42 -20 -93.5 -48t-96 -63.5t-75 -77.5t-30.5 -90q0 -13 4 -32.5t19 -37.5t44 -31t79 -13q5 0 33 2.5t65 14.5t76.5 38t67.5 73q14 23 19 43
t5 38z" />
    <glyph glyph-name="nine" unicode="9" 
d="M475 619q0 -31 -19 -63.5t-48 -61t-62 -50.5t-62 -33q-9 -4 -15 -4q-5 0 -6 2t-1 4q0 3 2.5 5.5l4.5 4.5q3 3 6 4q38 14 68 39t51 52.5t32.5 54t11.5 43.5q0 18 -6 27.5t-14 14t-16.5 5t-14.5 0.5q-33 0 -71.5 -17.5t-76 -46.5t-72.5 -66t-61.5 -75.5t-42.5 -76.5
t-16 -68q0 -17 9.5 -33t38.5 -16q17 0 45.5 8.5t67 29.5t86 56t101.5 87q5 6 10 11q11 11 22 11q3 0 5 -1q5 -1 9 -5q3 -3 5.5 -8.5t2.5 -14.5q0 -12 -5 -25q-26 -69 -64.5 -132t-75.5 -112q-43 -57 -89 -106q-49 -51 -91.5 -81t-76 -45.5t-57.5 -19.5t-36 -4h-9q-2 0 -3 1
q-21 2 -27.5 8.5t-6.5 13.5q0 6 1 8l2 4q2 2 5 2q2 0 4.5 -1t4.5 -2q3 -1 5 -2q9 -3 18.5 -5t19.5 -2q30 0 59.5 12.5t52.5 28.5q27 18 53 41q26 24 50.5 53.5t47.5 61t44 63t39 61.5q42 70 78 142q3 6 3 9t-3 3q-2 0 -6 -2q-2 -1 -4 -3q-59 -55 -107.5 -88t-85.5 -51
t-63 -23.5t-40 -5.5q-25 0 -40.5 10.5t-23.5 25.5t-10.5 30t-2.5 24q0 35 16 74.5t44.5 78.5t66 75t80 63t88.5 43.5t90 16.5q14 0 28 -2t26 -8.5t19.5 -19t7.5 -32.5z" />
    <glyph glyph-name="colon" unicode=":" horiz-adv-x="217" 
d="M164 203q0 -11 -12.5 -21t-20.5 -10t-12 3t-6 7q-3 4 -3 10q0 16 12 23t20 7t15 -5.5t7 -13.5zM94 15q0 -11 -12.5 -21t-20.5 -10t-12 3t-6 7q-3 4 -3 10q0 16 12 23t20 7t15 -5.5t7 -13.5z" />
    <glyph glyph-name="semicolon" unicode=";" horiz-adv-x="191" 
d="M144 193q0 -11 -12.5 -21t-20.5 -10t-12 3t-6 7q-3 4 -3 10q0 16 12 23t20 7t15 -5.5t7 -13.5zM101 12q-3 -36 -22 -57.5t-40 -32.5q-25 -13 -56 -18q-5 0 -5 6q0 3 13.5 7.5t29 12.5t29 21.5t13.5 34.5q0 10 -3.5 16.5t-3.5 14.5q0 10 6 16t12 6q11 0 16.5 -4t7.5 -9
q3 -6 3 -14z" />
    <glyph glyph-name="less" unicode="&#x3c;" horiz-adv-x="376" 
d="M313 430q0 -10 -4.5 -15t-12.5 -9l-245 -119l145 -131q15 -15 15 -19q0 -10 -6 -14q-3 -2 -7 -3l-179 156q-1 2 -3 4q-3 3 -3 9q0 7 13 17l287 138v-14v0z" />
    <glyph glyph-name="equal" unicode="=" horiz-adv-x="402" 
d="M329 339q0 -7 -2.5 -14t-12.5 -8q-45 -2 -79 -3.5t-63 -2t-56 -0.5h-58q-24 0 -29.5 2.5t-5.5 7.5t2.5 13t12.5 8l282 2q9 0 9 -5zM283 263q0 -7 -2.5 -14t-12.5 -8q-45 -2 -79 -3.5t-63 -2t-56 -0.5h-58q-24 0 -29.5 2.5t-5.5 7.5t2.5 13t12.5 8l282 2q9 0 9 -5z" />
    <glyph glyph-name="greater" unicode="&#x3e;" horiz-adv-x="376" 
d="M315 275q0 -7 -13 -17l-287 -138v14q0 10 4.5 15t12.5 9l245 119l-145 131q-15 15 -15 19q0 6 2.5 9t4.5 5q3 2 6 3l179 -156q1 -2 3 -4q3 -3 3 -9z" />
    <glyph glyph-name="question" unicode="?" horiz-adv-x="530" 
d="M115 26q0 -11 -12.5 -21t-20.5 -10t-12 3t-6 7q-3 4 -3 10q0 16 12 23t20 7t15 -5.5t7 -13.5zM533 581q0 -30 -23.5 -59t-60 -59.5t-81.5 -62.5t-87.5 -67.5t-77.5 -75t-53 -83.5q-2 -5 -4.5 -7t-4.5 -4q-4 -2 -5 -2q-10 7 -10 25q0 31 26.5 63t66.5 65t86.5 67t86.5 68
t66.5 68t26.5 67q0 25 -17 38.5t-39 19.5t-41.5 7t-24.5 1q-54 0 -99.5 -16t-79.5 -39t-53 -49t-19 -45q0 -3 1.5 -10t7 -14t17.5 -12t33 -5q28 0 63.5 9.5t70.5 30.5q1 1 2 1.5t2 1.5q6 2 8 2q5 0 5 -5q0 -9 -19 -21t-46.5 -22t-59.5 -17t-58 -7t-40.5 5.5t-21.5 13.5
t-8.5 16t-1.5 14q0 34 27.5 68t72.5 61t101.5 44t113.5 17q9 0 33.5 -2.5t51 -11.5t46.5 -27.5t20 -49.5z" />
    <glyph glyph-name="at" unicode="@" horiz-adv-x="521" 
d="M486 161q0 -30 -14.5 -68.5t-40 -73t-60 -58t-73.5 -23.5q-28 0 -36.5 16t-8.5 34q0 19 5 36q3 9 5 17l2 5q-3 0 -4 -1t-2 -1q-38 -32 -62 -41t-37 -9q-20 0 -26 12.5t-6 23.5q0 28 21 59t51.5 57t65 43t61.5 17q12 0 19 -4t10.5 -8.5t4 -8.5t0.5 -5q0 -9 -4 -17t-9 -14
q-6 -7 -13 -13q-11 -10 -21 -12t-12 -2q-6 0 -6 4q0 2 1 3l1 1q18 17 23 28t5 16q0 9 -6 11t-12 2q-24 0 -48.5 -18.5t-45 -43t-33.5 -48.5t-13 -35t8 -14t10 -3q16 0 33.5 11t33.5 25q18 16 36 36q4 5 9 5q10 0 13 -8t3 -10v-4q0 -1 -1 -2q-15 -27 -20.5 -46.5t-5.5 -32.5
q0 -22 9.5 -30.5t21.5 -8.5q23 0 47.5 17t45 45t34 62.5t13.5 70.5q0 44 -19.5 68t-43.5 35q-28 13 -64 15q-66 0 -121.5 -26t-95.5 -66t-62.5 -89t-22.5 -96q0 -11 3.5 -27.5t12 -31.5t23.5 -25.5t39 -10.5q16 0 30 5q9 3 19 8q8 5 18 12.5t19 21.5q1 1 3 2t3 2t3 1
q3 0 3 -2v-2q0 -4 -5.5 -15.5t-29.5 -29.5q-10 -8 -22 -14q-11 -5 -24.5 -9t-30.5 -4q-22 0 -43 10q-15 7 -26 21q-10 12 -18.5 31.5t-8.5 51.5q0 48 26 101.5t71.5 98t107 73.5t131.5 29q20 0 46.5 -5t50 -19.5t40 -40t16.5 -67.5z" />
    <glyph glyph-name="A" unicode="A" horiz-adv-x="515" 
d="M659 682q0 -20 -10 -54t-27.5 -77t-40.5 -94t-48.5 -104.5t-51.5 -108t-51 -105.5q32 2 65.5 9t56.5 18q8 4 9.5 9t3.5 5q6 0 9.5 -4t3.5 -8q0 -10 -14.5 -17.5t-37 -13.5t-50.5 -10t-54 -6q-15 -32 -29 -61.5t-25 -55.5q-4 -8 -12 -8q-16 0 -18.5 13.5t-2.5 26.5
q-2 18 -5.5 39.5t-8.5 45.5q-43 3 -79.5 12t-68.5 23v-1q-36 -45 -74 -85t-69 -71q-36 -36 -71 -67q-16 0 -22.5 5t-8.5 10q-3 4 -3 9q0 2 2 4q55 41 108.5 95t107.5 115q-65 35 -97.5 83.5t-32.5 89.5q0 35 24 59t74 24q51 0 89.5 -30t65.5 -75q60 75 114 146t100.5 125.5
t84.5 88t64 33.5q19 0 24.5 -10.5t5.5 -21.5zM622 669q0 7 -2.5 12t-9.5 5q-15 0 -49 -35.5t-79 -92t-97.5 -126t-103.5 -137.5q20 -38 33.5 -78.5t22.5 -74.5q14 -2 28 -3t28 -1q19 39 43 90.5t49.5 106.5t50 110t43.5 101t31 79t12 44zM315 145q-8 33 -19 67.5t-27 66.5
q-19 -26 -37.5 -49.5t-36.5 -46.5q26 -13 56 -23t64 -15zM255 306q-26 45 -60.5 73.5t-79.5 28.5q-38 0 -55 -15.5t-17 -38.5q0 -34 32 -77t92 -78q23 26 44.5 53t43.5 54zM368 119h-26q4 -14 5.5 -25.5t3.5 -19.5q2 -10 3 -18q4 7 8 17q4 8 9.5 20t12.5 26h-16z" />
    <glyph glyph-name="B" unicode="B" horiz-adv-x="731" 
d="M540 639q0 -2 -2 -6t-18.5 -32.5t-41.5 -72t-56.5 -97t-62.5 -107t-59 -101.5t-48 -81q-1 -3 -4 -7q-5 -6 -14 -11q-8 -4 -15.5 -6.5t-12.5 -2.5q-9 0 -9 5q0 2 13 24t33.5 57.5t47 80t54.5 91t54 90.5t46.5 79t33 56t11.5 22q2 3 5 6q2 2 6 4.5t9 4.5q11 5 18 6q4 1 7 2
q2 0 4 -2q1 -1 1 -2zM741 647q0 -36 -27 -78.5t-65.5 -81.5t-79.5 -70t-70 -45q32 6 58 6q64 0 97.5 -24t33.5 -65q0 -37 -12 -71t-33 -66q31 -9 49.5 -25.5t18.5 -42.5q0 -22 -16 -33.5t-29 -16.5l-4.5 -1.5t-3.5 -0.5q-3 0 -3 3q0 5 7 10q3 2 11.5 11.5t8.5 21.5
q0 18 -15 30.5t-41 20.5q-39 -48 -95 -87t-116.5 -66.5t-118.5 -42.5t-102 -15q-58 0 -83.5 11.5t-25.5 30.5q0 18 19.5 40t53 44.5t78 44.5t95 38.5t104.5 27t105 10.5q23 0 43.5 -1.5t38.5 -5.5q14 26 22.5 54.5t8.5 60.5t-29.5 57t-92.5 25q-35 0 -91 -21l-6 -3
q-8 -4 -12 -4q-5 0 -8 4l-1 2q0 2 2.5 5t12.5 8q9 3 32.5 18t53 37.5t61.5 51.5t58.5 59.5t43.5 60.5t17 55q0 33 -36.5 54t-125.5 21q-58 0 -121 -13t-123.5 -35.5t-115.5 -52.5t-96.5 -65t-66 -72.5t-24.5 -74.5q0 -17 11.5 -27.5t35.5 -10.5q34 0 66 8t67.5 26.5t76 48
t92.5 72.5l8 8q7 7 14 7q2 0 3 -1q4 -3 4 -6t-2.5 -6.5t-4.5 -7.5q-1 -1 -17 -15.5t-41.5 -36t-59.5 -45.5t-71.5 -45t-76.5 -34.5t-76 -13.5q-40 0 -55.5 17t-15.5 46q0 43 30 87t79.5 84t114 75t133 60.5t136 40.5t124.5 15q50 0 84.5 -6.5t56 -18.5t31 -28.5t9.5 -35.5z
M606 134q-17 3 -36.5 5t-40.5 2q-40 0 -85 -9t-89.5 -24t-84.5 -33.5t-71 -37.5t-49 -37t-18 -31q0 -11 16 -18t51 -7q38 0 93.5 11.5t113.5 35t111.5 59.5t88.5 84z" />
    <glyph glyph-name="C" unicode="C" horiz-adv-x="459" 
d="M665 625q0 -34 -17 -75.5t-46 -84t-66.5 -82.5t-78.5 -71t-82 -50t-78 -19q-25 0 -39.5 12t-14.5 39q0 21 11.5 48.5t30 56t42.5 55.5t49.5 48.5t50.5 34.5t45 13q8 0 8 -6q0 -3 -2 -9q-1 -3 -3 -4q-28 0 -63.5 -25t-66 -60.5t-51.5 -74t-21 -66.5q0 -21 11 -30.5
t30 -9.5q26 0 59.5 17.5t68 46.5t67 66t58 76t41 77t15.5 68q0 32 -21 52.5t-71 20.5q-40 0 -92.5 -20t-107.5 -55.5t-107.5 -85.5t-94 -110t-67 -128t-25.5 -140q0 -45 11 -75t30 -48.5t44.5 -26.5t54.5 -8q40 0 82.5 12t80.5 30t67 38t42 36q8 0 8 -12q0 -11 -28.5 -32.5
t-72.5 -43.5t-97 -38t-103 -16q-32 0 -60.5 8.5t-49.5 29t-33.5 53.5t-12.5 82q0 77 28 149.5t74 136t104.5 117t120 91.5t120 59t104.5 21q61 0 87.5 -24.5t26.5 -63.5z" />
    <glyph glyph-name="D" unicode="D" horiz-adv-x="584" 
d="M442 646q0 -2 -2 -6q-2 -3 -17 -30.5t-38.5 -69.5t-52.5 -93.5t-58 -102.5t-56 -98t-47 -80q-1 -3 -4 -7q-5 -6 -14 -11q-8 -4 -15.5 -6.5t-12.5 -2.5q-9 0 -9 5q0 2 12 23.5t31.5 55.5t44.5 77t51.5 87.5t51 87.5t44 76.5t31 54t10.5 21.5q2 3 5 6q2 2 6 4.5t9 4.5
q11 5 18 6q4 1 7 2q2 0 4 -2q1 -1 1 -2zM729 563q0 -45 -17.5 -97t-49 -106t-74.5 -107.5t-94 -101.5q29 -9 46.5 -25.5t17.5 -41.5q0 -22 -16 -33.5t-29 -16.5l-4.5 -1.5t-3.5 -0.5q-3 0 -3 3q0 5 7 10q3 2 11.5 11.5t8.5 21.5q0 18 -16 31t-42 21q-46 -42 -96.5 -77.5
t-102.5 -61t-103.5 -40t-99.5 -14.5q-32 0 -51.5 12t-19.5 38t17.5 49.5t47 43t69 35.5t83 27t88.5 17t86 6q21 0 40.5 -1.5t36.5 -5.5q47 45 87.5 95t70.5 100t47 98.5t17 90.5q0 35 -13 64.5t-42 51t-75 33.5t-112 12q-56 0 -118 -12t-122 -32.5t-114.5 -48t-95.5 -60
t-65.5 -67.5t-24.5 -70q0 -17 11.5 -27.5t35.5 -10.5q34 0 66 8t67.5 26.5t76 48t92.5 72.5l8 8q7 7 14 7q2 0 3 -1q4 -3 4 -6t-2.5 -6.5t-4.5 -7.5q-1 -1 -17 -15.5t-41.5 -36t-59.5 -45.5t-71.5 -45t-77 -34.5t-75.5 -13.5q-40 0 -55.5 17t-15.5 46q0 37 28.5 76.5
t76 77.5t110.5 71.5t131.5 59t138.5 40.5t132 15q67 0 114 -13t77 -36t43.5 -55t13.5 -70zM442 136q-15 2 -31.5 3.5t-34.5 1.5q-53 0 -111 -10t-106.5 -29.5t-80 -47.5t-31.5 -64q0 -33 43 -33q39 0 83 13.5t89.5 37t91 56.5t88.5 72z" />
    <glyph glyph-name="E" unicode="E" horiz-adv-x="400" 
d="M669 670q0 -5 -2 -9t-6 -5q-26 0 -51 -4.5t-49 -12.5q-10 -25 -30.5 -50.5t-45.5 -46.5t-53 -34t-54 -13q-27 0 -27 16q0 12 15.5 31t41.5 40t60 41.5t71 35.5q1 2 1 7q0 20 -14.5 32.5t-49.5 12.5q-31 0 -71 -15t-81.5 -40t-82 -57t-72 -65.5t-51 -66t-19.5 -58.5
q0 -28 26.5 -45.5t89.5 -17.5q19 0 51 6.5t66 25.5l2 2q2 2 5 2q4 0 5.5 -5t1.5 -8q0 -8 -7 -11q-10 -4 -36 -17t-59 -33t-69 -46t-66 -58t-49.5 -68.5t-19.5 -76.5q0 -12 3.5 -27t13.5 -28t29.5 -21.5t50.5 -8.5q6 0 27 3t52.5 15t71 35.5t82.5 63.5l5 5q5 5 8 5q6 -1 6 -8
q0 -12 -29 -36.5t-72 -49t-93.5 -43t-93.5 -18.5q-6 0 -24.5 2t-39 11.5t-36 30t-15.5 56.5q0 32 19.5 70t55.5 76.5t86.5 75t113.5 65.5q-13 -2 -28 -5q-28 -5 -59 -5q-68 0 -97 19t-29 51q0 29 21.5 66t57.5 75t82 74.5t94.5 65t96 45.5t85.5 17q46 0 65.5 -16.5
t19.5 -41.5q0 -6 -1 -9q44 14 81 14q7 0 13 -2q6 -1 6 -11zM530 628q-31 -12 -57.5 -27.5t-46 -30t-31 -27t-11.5 -20.5q0 -9 16 -9q15 0 34 10t37.5 26.5t34 37t24.5 40.5z" />
    <glyph glyph-name="F" unicode="F" horiz-adv-x="410" 
d="M930 699q0 -1 -6.5 -7t-19 -13t-32 -12t-46.5 -5h-159h-107.5t-67.5 0.5t-37.5 0.5h-17.5h-9q-74 0 -143 -14t-128.5 -37t-108 -52.5t-83 -59.5t-53.5 -58.5t-19 -50.5q0 -20 18 -32.5t56 -12.5q30 0 71 11.5t85.5 33t88.5 52t79 67.5l6 6q5 5 9 5q2 0 2 -3t-1 -5
q-13 -30 -48 -66t-83 -66.5t-104 -51.5t-111 -21q-45 0 -67 18.5t-22 48.5q0 42 40.5 98t116 106.5t184.5 85.5t246 35h164.5t137.5 0.5t97.5 1t45.5 1.5q1 1 4 1h10q5 0 8.5 -1t3.5 -4zM511 221q0 -3 -4 -8t-10 -9.5t-13.5 -7.5t-14.5 -3q-11 0 -47 1t-86 1h-62
q-31 -60 -56.5 -110.5t-41.5 -80.5q-1 -3 -4 -7q-6 -8 -14 -11q-8 -4 -15.5 -6.5t-12.5 -2.5q-9 0 -9 5q0 1 8.5 18.5t23.5 46l35 66.5t42 81q-50 -2 -99 -4.5t-91 -7.5q-8 0 -8 4q0 2 3 5.5t7 7.5l9 9q3 1 7 3q6 2 23 4q8 1 55 4t110 5q34 65 69 131t63.5 120t46 88.5
t16.5 35.5q2 3 5 6q2 2 6 4.5t9 4.5q11 5 18 6q4 1 7 2q2 0 4 -2q1 -1 1 -2q0 -2 -2 -6q-2 -3 -20.5 -39.5t-47 -91.5t-63 -122t-68.5 -133q31 1 61 1.5t57 0.5h38q39 0 52 -1.5t13 -5.5z" />
    <glyph glyph-name="G" unicode="G" horiz-adv-x="495" 
d="M707 678q0 -7 -5 -14t-11 -7q-11 0 -24 -3.5t-28 -8.5q-7 -43 -35 -83.5t-62.5 -71t-69.5 -49t-58 -18.5q-26 0 -26 24q0 25 22 55t56 60t74 56.5t76 44.5v1q0 23 -14 34t-39 11q-36 0 -88.5 -21t-111 -59.5t-116.5 -91.5t-104 -117.5t-75 -138t-29 -151.5
q0 -35 17.5 -56t55.5 -21q40 0 84 20t88 51t85.5 69.5t76.5 75t61.5 67.5t40.5 48q17 20 35 20q8 0 8 -4q0 -2 -2.5 -6t-6.5 -11q-2 -4 -19.5 -33t-45.5 -73.5t-63 -101t-71.5 -115t-72 -115t-63.5 -101.5t-46.5 -74t-20.5 -33q-3 -6 -3 -9q0 -5 9 -5l25 2q2 0 5 -0.5
t3 -2.5t-8.5 -8.5t-20 -13.5t-23.5 -12t-18 -5q-5 0 -8.5 3t-3.5 13q0 14 8 37q6 16 23 46t41 69.5t53 84.5t58.5 90.5t57 87.5t49 75.5t34.5 54.5t13 25t-3 4q-62 -69 -127 -124q-28 -23 -58.5 -45.5t-62.5 -40t-64 -28.5t-62 -11q-54 0 -78.5 26t-24.5 71q0 80 31.5 156.5
t82 144.5t114 124.5t128 98t124 64.5t100.5 23q31 0 48.5 -14t19.5 -43q16 7 29.5 11t23.5 4q12 -3 12 -12zM613 634q-32 -15 -65.5 -36t-60.5 -44.5t-44.5 -47t-17.5 -42.5q0 -14 15 -14t41.5 14.5t53 39.5t49 58.5t29.5 71.5z" />
    <glyph glyph-name="H" unicode="H" horiz-adv-x="468" 
d="M732 720q0 -5 -8 -19q-1 -3 -18.5 -32.5t-44 -76t-60.5 -106t-69 -121t-68.5 -121t-59.5 -107.5q84 5 154 39q7 0 7 -5q0 -8 -11 -14q-35 -17 -75.5 -26t-84.5 -11q-20 -38 -33 -62.5t-15 -30.5q-7 -12 -11.5 -22.5t-13.5 -10.5q-8 0 -13 4.5t-5 20.5q0 29 -3.5 55.5
t-9.5 52.5q-55 8 -101 25q-30 -54 -62.5 -112t-72.5 -129q2 1 -2 -2.5t-10.5 -7.5t-14 -7.5t-13.5 -3.5q-9 0 -9 10q0 6 4 14q1 2 13 22.5t31.5 55t45 79.5t54.5 96q-35 16 -64.5 36.5t-51 45.5t-33.5 54.5t-12 62.5q0 44 17 63.5t43 19.5q19 0 42 -9.5t47 -27.5t48 -44
t46 -58q36 64 70.5 124.5t61.5 108t44 78t19 33.5q4 4 9 8q5 3 12 5.5t18 2.5q7 0 7 -5q0 -1 -1 -3.5t-7.5 -14t-19.5 -35.5t-37.5 -67.5t-62 -110t-91.5 -162.5q17 -29 30 -62t21 -69q17 -2 34 -3t34 -1q24 47 54 103.5t61.5 114.5t62 114.5t56.5 103.5t45.5 81.5
t27.5 49.5q4 7 11 13.5t30 8.5q8 0 8 -6zM285 145q-16 56 -42 102q-10 -17 -22 -38t-22 -40q40 -16 86 -24zM220 284q-20 30 -42 53.5t-43 40t-40 25t-34 8.5q-34 0 -34 -41q0 -62 38 -109t98 -77q14 25 28.5 49.5t28.5 50.5zM367 120q-14 0 -28 1t-28 3q9 -43 9 -88
q0 -2 0.5 -4t0.5 -4v-3q7 17 19 41z" />
    <glyph glyph-name="I" unicode="I" horiz-adv-x="574" 
d="M701 674q0 -69 -18 -132.5t-49 -120.5t-73 -108t-90 -96q21 -4 40.5 -10t34 -15t23.5 -21.5t9 -28.5q0 -11 -7.5 -22t-19 -20t-23.5 -15.5t-21 -7.5q-4 0 -7.5 0.5t-4.5 3.5q0 2 11 10q14 8 28 20t14 24q0 11 -9 19.5t-24.5 14.5t-36 10t-43.5 6q-69 -58 -142 -102.5
t-139 -75t-118.5 -46.5t-79.5 -16t-41.5 8.5t-22.5 19.5q-10 13 -11 28q0 27 22 54t59.5 52t87 46.5t105 37t114 24.5t112.5 9q27 0 59 -3q46 43 86 92t70 102.5t47 111.5t17 119q0 31 -11 45t-28 14q-24 0 -55 -24t-59.5 -66t-48 -98t-19.5 -120q0 -7 0.5 -19t2 -24.5
t5.5 -23t10 -14.5q5 -3 5 -7q-10 -17 -26 -17q-11 0 -19.5 8t-8.5 25q0 93 25.5 172t62 137.5t78 91.5t73.5 33q24 0 39 -20t15 -65zM402 187q-8 1 -14.5 1h-13.5q-50 0 -102.5 -6.5t-102.5 -18.5t-95 -28t-78.5 -35t-54 -41t-21.5 -44q4 -37 56 -37q34 0 83 14.5t106 41.5
t118 66t119 87z" />
    <glyph glyph-name="J" unicode="J" horiz-adv-x="525" 
d="M605 609q0 -27 -20.5 -80.5t-55.5 -123.5t-81.5 -152t-99.5 -165q26 7 51.5 11t51.5 4q8 0 17.5 -2t17.5 -6.5t13.5 -11t5.5 -14.5q0 -16 -5.5 -31.5t-14.5 -27.5t-21.5 -19.5t-26.5 -7.5q-4 0 -4 3q0 10 14 17q8 7 13.5 20t5.5 26q0 11 -6 19t-21 8q-28 0 -55.5 -4
t-53.5 -12q-59 -93 -120.5 -179.5t-117.5 -154t-101.5 -108t-73.5 -40.5q-18 0 -26.5 10.5t-8.5 28.5q0 25 15 63t42.5 81.5t66.5 89.5t86 88.5t101 77.5t112 57q50 86 95.5 171t80 158t55 127t20.5 77q0 31 -12.5 45t-33.5 14q-31 0 -76.5 -25.5t-96 -66.5t-101 -94
t-90.5 -107.5t-65 -107t-25 -92.5q0 -23 12 -36t39 -13q29 0 62 19.5t62 47t50 57t26 49.5q2 7 12 7q5 0 5 -7q0 -27 -27 -62t-66 -66.5t-82 -53.5t-76 -22q-23 0 -37.5 14t-14.5 46q0 47 27.5 105.5t72 118.5t101 117.5t114 102.5t111 72t91.5 27q31 0 49 -20t18 -67z
M287 44q-52 -21 -99.5 -53.5t-88 -70.5t-73 -78.5t-55.5 -78t-35.5 -68t-12.5 -49.5q0 -23 18 -23q25 0 64 35t85 93t96.5 134t100.5 159z" />
    <glyph glyph-name="K" unicode="K" horiz-adv-x="527" 
d="M800 714q-21 -51 -63.5 -104t-99 -104t-122.5 -98.5t-133 -86.5q48 -26 78 -75t30 -130q0 -36 -6.5 -63t-14.5 -45q-10 -21 -22 -35q-8 0 -8 10q0 6 3 12q2 4 3 7q3 12 7 26q3 12 5 27t2 29q0 85 -33 137t-81 79q-32 -17 -62 -32t-58 -28q-39 -72 -72.5 -131t-52.5 -91
q-2 -5 -5 -9q-2 -4 -5.5 -7.5t-8.5 -5.5q-8 -4 -15 -4.5t-12 -0.5q-8 0 -8 4l121 222q-66 -24 -110 -24q-27 0 -42 10.5t-15 33.5q0 22 21 43t55 37.5t77.5 26.5t88.5 10l177 325q2 5 7.5 8.5t12.5 5.5t14 3.5t11 1.5q5 0 5 -4q0 -3 -1 -4t-1 -2q-1 -3 -17 -32.5
t-41.5 -76.5t-57.5 -106t-66 -122q38 -4 73 -18q60 37 120.5 82.5t114.5 96t98 103.5t70 106q1 2 2 5q2 5 7 5q8 0 19 -4.5t11 -12.5zM322 311q-24 10 -50 15q-8 -15 -16.5 -30.5t-16.5 -30.5q20 10 40.5 21.5t42.5 24.5zM229 331q-5 1 -8.5 1h-8.5q-35 0 -67 -7t-56 -19
t-38.5 -28t-14.5 -34q0 -31 40 -31q39 0 103 26l50 92v0z" />
    <glyph glyph-name="L" unicode="L" 
d="M889 641q0 -13 -9 -13q-7 0 -15.5 1t-20.5 1h-12q-8 -25 -27.5 -50t-45.5 -45t-57 -33t-62 -13q-33 0 -33 26q0 16 15 38.5t42 43.5t65.5 37.5t84.5 20.5v4q0 22 -19.5 36.5t-67.5 14.5q-61 0 -111 -30.5t-92.5 -82t-81.5 -118.5t-78.5 -140t-82 -147.5t-93.5 -140.5
h24.5t26.5 -1l164 -5q26 -1 42 -1t25 -0.5t12 -1.5t3 -4q0 -17 -12.5 -23.5t-35.5 -8.5q-22 1 -55 2t-71 1.5t-78.5 1.5t-76.5 1q-36 -41 -77 -76t-88.5 -60t-102.5 -39t-119 -14q-35 0 -55 16.5t-20 41.5t23 53.5t76 53.5t139 42.5t211 20.5q49 65 91 140.5t83 150.5
t84 144t93 122t110 85t135 32q54 0 76.5 -18.5t22.5 -46.5v-3q26 0 45 -4q1 0 3 -2q3 -3 3 -10zM807 628q-40 -5 -71.5 -18t-53.5 -29t-33.5 -32.5t-11.5 -27.5q0 -16 20 -16q18 0 40.5 11t43.5 29t39 40t27 43zM112 12q-108 -1 -184 -14t-124 -31.5t-69.5 -40.5t-21.5 -41
t18.5 -31t53.5 -12q53 0 99 12.5t86 35t75.5 53.5t66.5 69z" />
    <glyph glyph-name="M" unicode="M" horiz-adv-x="617" 
d="M672 428q0 -4 -3 -10l-179 -324q-26 -49 -26 -69q0 -10 13 -10q17 0 45.5 12.5t55.5 27.5q16 9 33 18.5t34 20.5q1 0 1 -1v-4q0 -3 -1.5 -6.5t-7.5 -6.5q-20 -13 -38.5 -24.5t-35.5 -21.5q-30 -17 -62 -31.5t-52 -14.5q-16 0 -21 8.5t-5 17.5q0 15 10 38t33 61l176 306
q0 3 -2 3t-7.5 -4t-10.5 -9l-28.5 -28.5t-65.5 -66t-85.5 -86.5t-88 -89.5t-73 -75t-41.5 -43.5q-2 -3 -5 -5.5t-5 -4.5q-5 -4 -10 -7t-10 -3q-11 0 -11 13t19 48.5t48 81.5t62.5 97t63.5 97t51 81t24 48q0 3 -2 3t-4 -1.5t-7 -6.5q-3 -3 -21 -21.5t-46.5 -48t-64.5 -67
t-74 -77.5t-76 -79t-69.5 -72.5t-54.5 -58t-32 -34.5q-1 -1 -5 -3q-5 -3 -11 -3q-4 0 -7.5 2t-3.5 7q0 7 4 14q1 2 2 3.5t2 3.5q34 58 64.5 112.5t58.5 108.5q23 45 45 93.5t39.5 95t28 89t10.5 75.5q0 38 -16.5 60.5t-55.5 22.5q-44 0 -89.5 -13.5t-88 -35t-80.5 -49.5
t-66 -57.5t-44 -58t-16 -50.5q0 -23 20 -37.5t66 -14.5q45 0 87.5 16t78 40.5t62 53.5t40.5 55l3 3q3 3 5 3q3 0 3 -8q0 -12 -9.5 -31.5t-27.5 -42t-43 -45t-56 -40.5t-68 -29.5t-77 -11.5q-60 0 -87 21t-27 54q0 27 16 59t45.5 65t69.5 63t88.5 54t103 38t112.5 14
q51 0 72 -26t21 -71q0 -33 -10 -74t-26.5 -85t-38 -89.5t-43.5 -87.5q-26 -50 -55.5 -100.5t-63.5 -102.5q2 1 19 18t44.5 45.5t62.5 64.5t72.5 75l75 78t69.5 72.5t56.5 58.5t36.5 37q11 0 16.5 -2t7.5 -4q3 -3 3 -7q0 -10 -17 -41.5t-43 -75t-57 -92.5t-59.5 -94
t-50.5 -79.5t-30 -47.5l-9 -20q4 0 22 17.5t45.5 45.5t61.5 64t69.5 74t70.5 74t63.5 64t48.5 45.5t26 17.5q5 0 12.5 -5t7.5 -14z" />
    <glyph glyph-name="N" unicode="N" horiz-adv-x="521" 
d="M610 529q0 -4 -3 -10q-57 -111 -97 -190t-66.5 -133t-41.5 -86t-22.5 -49.5t-9.5 -24.5t-2 -11q0 -10 13 -10q17 0 45.5 12.5t55.5 27.5q32 18 67 39q1 0 1 -1v-4q0 -3 -1.5 -6.5t-7.5 -6.5q-39 -26 -74 -46q-30 -17 -62 -31.5t-52 -14.5q-16 0 -21 8.5t-5 17.5
q0 10 10.5 37t28 64t39.5 81t45 89q55 105 123 230l-13 -14q-2 -3 -19.5 -22.5t-45 -50t-62 -69.5t-71.5 -80t-73 -81.5t-66.5 -75t-53 -59.5l-31.5 -35q-4 -1 -8 -3q-7 -3 -14 -3q-4 0 -7.5 2t-3.5 7q0 6 4 14q2 4 4 7q68 115 123 221q23 45 45.5 93.5t39.5 95t27.5 89
t10.5 75.5q0 38 -16.5 60.5t-55.5 22.5q-44 0 -90.5 -13t-89.5 -35t-81 -49.5t-66.5 -56.5t-45 -57t-16.5 -51q0 -24 21.5 -39t69.5 -15q45 0 87.5 16t78 40.5t62 53.5t40.5 55l3 3q3 3 5 3q3 0 3 -8q0 -16 -23 -49.5t-62 -67t-90 -58.5t-106 -25q-68 0 -97.5 21t-29.5 53
q0 27 18 59t49.5 64.5t74 63.5t92.5 54.5t104.5 38t109.5 14.5q51 0 72 -26.5t21 -70.5q0 -33 -10 -74t-26.5 -85t-38 -89.5t-43.5 -87.5q-52 -99 -119 -203q2 1 18 19t42 47t59 66.5t69 78t71.5 81t66.5 75t54.5 60t35.5 37.5q2 0 7 -1.5t10 -3.5t9 -5.5t4 -8.5z" />
    <glyph glyph-name="O" unicode="O" horiz-adv-x="434" 
d="M598 542q0 -62 -24 -128.5t-64 -129.5t-91 -119t-105 -98t-107 -66.5t-96 -24.5q-49 0 -80 37t-31 121q0 85 27 160.5t68.5 139t91.5 113.5t96.5 85t83.5 53.5t51 18.5q5 0 6 -3q1 -2 1 -3q0 -5 -3.5 -7t-8.5 -3q-36 -12 -77.5 -38.5t-83 -64.5t-79.5 -87t-67 -106
t-46.5 -121t-17.5 -133q0 -71 26 -102t68 -31q37 0 83 22t92.5 60t91 89.5t78.5 110.5t55 123.5t21 127.5q0 49 -17 70.5t-46 21.5q-25 0 -57 -15t-64 -41.5t-63 -61t-55 -73t-38.5 -79.5t-14.5 -79q0 -39 14 -56.5t37 -17.5q32 0 72 30t73 82q1 2 3 4q4 4 6 4t3 -1
q3 -1 3 -5q0 -12 -19.5 -36.5t-48 -49.5t-61.5 -43.5t-60 -18.5q-26 0 -42.5 21t-16.5 74q0 39 17.5 83t46.5 87.5t66 84t76 71t77.5 49t69.5 18.5q35 0 57.5 -27.5t22.5 -91.5z" />
    <glyph glyph-name="P" unicode="P" horiz-adv-x="263" 
d="M672 640q0 -45 -36.5 -101.5t-98 -112.5t-141.5 -106t-168 -84q-20 -36 -39.5 -71t-36.5 -65.5t-31.5 -55.5t-25.5 -43q-1 -3 -4 -7q-6 -8 -14 -11q-8 -4 -15.5 -6.5t-12.5 -2.5q-9 0 -9 5l133 238q-29 -9 -58.5 -15.5t-58.5 -9.5q-2 0 -4 5.5t-2 8.5q0 12 11 12
q31 2 63 8t64 17l200 357q2 5 7.5 8.5t12 5.5t13 3.5t10.5 1.5q2 0 4 -2q1 -1 1 -2q0 -2 -2 -6q-1 -3 -18.5 -34.5t-44 -80.5t-60 -109t-68.5 -122q74 30 142.5 74t121 93t84.5 97.5t32 88.5q0 42 -41.5 68.5t-136.5 26.5q-53 0 -114.5 -13.5t-123 -36.5t-118.5 -53.5
t-101 -65t-70.5 -70.5t-26.5 -71q0 -29 19 -42.5t51 -13.5q28 0 62.5 11t71.5 31.5t75.5 48.5t74.5 61q2 4 5 7q6 6 9 6t5 -2.5t2 -4.5q0 -12 -17 -31t-44.5 -40.5t-63 -44t-73.5 -40.5t-75 -29.5t-67 -11.5q-35 0 -56 18t-21 61q0 36 30.5 76.5t81.5 80.5t116.5 77t136 65
t140 44.5t128.5 16.5q101 0 145.5 -29t44.5 -76z" />
    <glyph glyph-name="Q" unicode="Q" horiz-adv-x="470" 
d="M677 601q0 -49 -26 -115.5t-70.5 -136.5t-102.5 -136t-123 -114q5 -42 10 -79.5t5 -65.5q0 -32 -6 -63t-15 -55t-19.5 -39t-19.5 -15q-3 0 -4 2t-1 4q0 5 0.5 7.5t5.5 7.5q8 7 14 19q5 11 9 28.5t4 46.5q0 23 -2.5 43.5t-6 41t-8 42.5t-7.5 48q-42 -26 -84 -41t-84 -15
q-76 0 -111 39.5t-35 101.5q0 63 31.5 140.5t85.5 152t127.5 136.5t157.5 95q4 0 8 -1q8 -2 8 -4t-10 -7q-78 -35 -145 -94.5t-116.5 -128.5t-77.5 -139.5t-28 -127.5q0 -58 32.5 -95t103.5 -37q32 0 66 12t69 32q-2 20 -3 41t-1 47v18q-38 -19 -70 -19q-47 0 -67.5 20.5
t-20.5 54.5q0 36 20 82t53.5 94t78 94.5t94 83t101 59t98.5 22.5q44 0 63 -23.5t19 -63.5zM646 579q0 37 -18 59t-60 22q-40 0 -84 -20.5t-86 -53.5t-80.5 -75t-67.5 -85.5t-46 -84.5t-17 -72q0 -29 17 -46.5t55 -17.5q13 0 25.5 3.5t25.5 8.5q4 41 16.5 79t31 67.5t43 47.5
t52.5 18q30 0 30 -27q0 -17 -11.5 -41t-31 -49.5t-45 -50.5t-54.5 -45q2 -22 4.5 -47t6.5 -51q58 43 111 103.5t93.5 125t65 126t24.5 106.5zM448 386q0 16 -13 16q-15 0 -31.5 -17t-30.5 -41t-23 -51.5t-9 -49.5v-8q23 16 42.5 37t33.5 42t22.5 40.5t8.5 31.5z" />
    <glyph glyph-name="R" unicode="R" horiz-adv-x="564" 
d="M672 640q0 -43 -29.5 -94.5t-80.5 -103t-120 -98t-147 -80.5q52 -1 95.5 -25.5t74.5 -64.5t48.5 -91.5t17.5 -106.5q0 -5 -1 -9.5t-5 -4.5q-3 0 -4.5 4t-3.5 9t-3 12q-16 70 -51 125q-15 24 -35.5 46.5t-48 40t-62 28t-78.5 10.5h-11q-37 -68 -69 -125.5t-52 -91.5
q-1 -3 -4 -7q-5 -6 -14 -11q-8 -4 -15.5 -6.5t-12.5 -2.5q-9 0 -9 5l123 224q-40 -10 -82 -15q-2 0 -10 1.5t-8 4.5q0 11 11 12q25 2 49.5 6t50.5 11l201 366q2 5 7.5 8.5t12 5.5t13 3.5t10.5 1.5q2 0 4 -2q1 -1 1 -2q0 -2 -2 -6q-2 -3 -19.5 -36t-44.5 -83.5t-60.5 -113
t-67.5 -125.5q74 28 143 71.5t122 93t85 100t32 92.5q0 21 -10 39.5t-31.5 33t-55 22.5t-81.5 8q-62 0 -127.5 -17.5t-127 -45.5t-116 -63.5t-95.5 -71.5t-64.5 -69t-23.5 -57q0 -18 15.5 -28.5t50.5 -10.5q28 0 62.5 11t71.5 31.5t75.5 48.5t74.5 61q3 4 6 7q6 6 8 6
q3 0 5 -2.5t2 -4.5q0 -3 -2.5 -6.5t-4.5 -7.5q-10 -14 -31 -33.5t-49 -40t-61.5 -40.5t-67 -36t-66 -25.5t-59.5 -9.5q-40 0 -57.5 12.5t-17.5 34.5q0 28 27 68t73.5 83.5t109 86.5t133 77t146 55t147.5 21q51 0 87 -9t59 -24.5t33.5 -36t10.5 -43.5z" />
    <glyph glyph-name="S" unicode="S" horiz-adv-x="455" 
d="M738 689q0 -5 -2 -9t-7 -6q-20 -1 -43 -4t-46 -9q-1 -44 -20 -79.5t-45.5 -60t-56 -38t-52.5 -13.5q-17 0 -28 8.5t-11 25.5q0 29 17.5 54.5t46 48t63.5 40.5t69 30q-8 30 -37 45t-70 15q-42 0 -88.5 -15.5t-86 -46.5t-65.5 -77t-26 -107q0 -21 9.5 -51t20.5 -66
t20.5 -77t9.5 -84q0 -12 -1 -23.5t-3 -22.5q14 2 28 3t27 1q44 0 70.5 -12.5t26.5 -38.5q0 -20 -12.5 -32t-35.5 -26q-2 1 -4 3q-4 4 -4 7t4 6q8 6 15 11q6 5 10.5 11t4.5 12q0 18 -22 26t-57 8q-13 0 -27 -1t-29 -3q-12 -45 -37 -83.5t-58 -70t-71.5 -55.5t-77 -40
t-75 -24.5t-64.5 -8.5q-31 0 -49.5 10t-18.5 30q0 29 19 58t51.5 55.5t75.5 50.5t90 43.5t96 33.5t94 22q2 11 3 22t1 23q0 34 -10 67t-21.5 67.5t-21.5 71t-10 77.5q0 60 31 110.5t77.5 87t101 57.5t101.5 21q45 0 75.5 -20t35.5 -65q26 8 48.5 13t39.5 5q8 0 9.5 -1.5
t1.5 -9.5zM625 656q-32 -10 -62 -25t-53 -33.5t-37 -40.5t-14 -47q0 -19 20 -19q16 0 40.5 13t48 35.5t40 52.5t17.5 64zM271 138q-60 -10 -127.5 -31t-124 -49.5t-93.5 -62.5t-37 -70q0 -14 16 -21.5t42 -7.5q36 0 85 14.5t97 44t87 75t55 108.5z" />
    <glyph glyph-name="T" unicode="T" horiz-adv-x="286" 
d="M858 687q0 -1 -6.5 -7t-19 -13t-32 -12t-46.5 -5q-99 0 -157.5 0.5t-89.5 0.5h-48q-136 0 -247.5 -32.5t-190 -79t-121.5 -96t-43 -82.5q0 -19 15 -30t46 -11q30 0 71 14t85.5 38t88.5 56.5t79 69.5l6 6q5 5 9 5q2 0 2 -3t-1 -5q-13 -30 -48 -68t-83 -71.5t-104 -56.5
t-111 -23q-51 0 -74 15.5t-23 41.5q0 28 25 64.5t69.5 75.5t107 76.5t138 67t160.5 47.5t176 18h148.5t101.5 0.5t61.5 1t29.5 1.5q1 1 4 1h10q5 0 8.5 -1t3.5 -4zM446 615q0 -2 -2 -6q-1 -3 -13 -25.5t-31.5 -58.5t-45 -83t-53 -98t-55.5 -103t-53 -99t-45.5 -86t-33.5 -64
q-1 -3 -4 -7q-6 -8 -14 -11q-8 -4 -15.5 -6.5t-12.5 -2.5q-9 0 -9 5q0 2 14.5 29.5t38.5 71.5t54.5 100t62.5 114t62 114t54 99.5t38 70t13 27.5q2 3 5 6q2 2 6 4.5t9 4.5q11 5 18 6q4 1 7 2q2 0 4 -2q1 -1 1 -2z" />
    <glyph glyph-name="U" unicode="U" 
d="M565 447q0 -1 -1.5 -4t-10.5 -17.5t-29 -45.5t-56 -88q-37 -58 -61 -100.5t-37.5 -72.5t-18.5 -49.5t-5 -30.5q0 -9 2.5 -14t5.5 -7q4 -3 8 -3q17 0 45.5 12.5t55.5 27.5q32 18 67 39q1 0 1 -1v-4q0 -3 -1.5 -6.5t-7.5 -6.5q-39 -26 -74 -46q-30 -17 -62 -31.5t-52 -14.5
q-35 0 -35 44q0 35 24.5 92.5t78.5 135.5q-62 -69 -119 -124q-24 -23 -50 -45.5t-51 -40t-48 -28.5t-41 -11q-26 0 -38 17.5t-12 35.5q0 32 20 76t49.5 94t64 102.5t64 101.5t49.5 91t20 71q0 22 -9.5 38t-24.5 26.5t-34 15.5t-39 5q-47 0 -94.5 -14t-92 -36.5t-83.5 -51
t-68 -58.5t-45.5 -58.5t-16.5 -50.5q0 -21 18 -34t57 -13q41 0 82.5 16.5t80.5 43.5t74 63t63 75q1 2 3 4q4 4 7 4h1q5 -3 5 -8q0 -12 -15 -34t-40 -48.5t-58 -54.5t-69 -51t-73.5 -37.5t-70.5 -14.5q-51 0 -73 18t-22 47q0 27 17 60t47 67t71 66.5t89.5 57.5t102 40.5
t108.5 15.5q26 0 51.5 -5t46.5 -17.5t34 -34t13 -55.5q0 -26 -19.5 -66.5t-49 -88.5t-63.5 -99.5t-63 -100t-48.5 -90.5t-19.5 -71q0 -10 4.5 -21.5t21.5 -11.5q15 0 37 12.5t47 32.5t52 45.5t53 52.5q61 62 128 142l89 122q2 3 5 6q6 6 15 5l17 -1q2 0 4 -0.5t2 -3.5z" />
    <glyph glyph-name="V" unicode="V" horiz-adv-x="467" 
d="M710 620q0 -6 -6 -22t-14 -35.5t-17.5 -38.5t-17.5 -33q-27 -51 -65 -107.5t-82 -111.5t-92.5 -105.5t-96.5 -88.5t-95 -60.5t-88 -22.5q-35 0 -45.5 16.5t-10.5 48.5q0 27 20 68.5t50.5 91.5t65.5 103.5t65.5 104.5t50.5 94.5t20 73.5q0 22 -9.5 38t-24.5 26.5t-34 15.5
t-39 5q-47 0 -94.5 -14t-92 -36.5t-83.5 -51t-68 -58.5t-45.5 -58.5t-16.5 -50.5q0 -21 18 -34t57 -13q41 0 82.5 16.5t80.5 43.5t74 63t63 75q1 2 3 4q4 4 7 4q6 0 6 -8q0 -12 -15 -34t-40 -48.5t-58 -54.5t-69 -51t-73.5 -37.5t-70.5 -14.5q-51 0 -73 18t-22 47
q0 27 17 60t47 67t71 66.5t89.5 57.5t102 40.5t108.5 15.5q26 0 51.5 -5t46.5 -17.5t34 -34t13 -55.5q0 -26 -19.5 -67.5t-49 -91t-63.5 -102t-63 -101.5t-48.5 -89t-19.5 -65q0 -20 8.5 -33t28.5 -13q27 0 62 19t73 50.5t77.5 72t76.5 83.5t69.5 85.5t57 78t38.5 61
t14 33.5q0 2 -3 3q-4 0 -10.5 -5t-13.5 -11t-13 -12.5t-10 -9.5q-5 -5 -13 -5q-5 0 -11 3.5t-6 9.5q0 8 10 16q26 21 47 45t38 44.5t29 33.5t19 13q3 0 6.5 -3t3.5 -6z" />
    <glyph glyph-name="W" unicode="W" horiz-adv-x="621" 
d="M882 562q0 -4 -1 -6l-9.5 -19t-16.5 -32q-11 -20 -23 -44q-7 -14 -30.5 -53.5t-59 -91.5t-80 -108.5t-93.5 -104t-99.5 -78t-97.5 -30.5t-67 20t-20 53v3q-44 -27 -86.5 -43.5t-80.5 -16.5q-9 0 -20 1.5t-21.5 7.5t-17.5 16.5t-7 28.5q0 32 20 75.5t50.5 92t65.5 100
t65.5 100.5t50.5 93t20 77q0 35 -27 55t-93 20q-46 0 -93 -13.5t-90 -35.5t-80 -49.5t-64.5 -57t-43.5 -57.5t-16 -50q0 -33 15 -46.5t40 -13.5t54.5 10t60 26.5t60.5 37.5t55 42t44 40t27 32q1 2 3 4q4 4 7 4q6 0 6 -8q-5 -19 -23.5 -43t-45.5 -49t-60.5 -49.5t-69 -43
t-70 -30t-63.5 -11.5q-32 0 -51.5 17t-19.5 57q0 27 16 59.5t45 66t68.5 65t86.5 56t100 39.5t107 15q83 0 117 -25.5t34 -67.5q0 -36 -19 -81.5t-48 -94.5t-62.5 -100t-62.5 -97.5t-48 -87t-19 -68.5q0 -14 7 -24.5t24 -10.5q36 0 75.5 15t79.5 41q5 34 23.5 74.5
t44.5 81.5t55.5 79t58 68t52 48t36.5 18q31 0 31 -29q0 -25 -22.5 -66.5t-60 -89t-86.5 -96t-102 -86.5v-7q0 -31 17 -49.5t58 -18.5q27 0 73.5 27t104.5 83.5t122 143t126 204.5q-34 -23 -45.5 -29.5t-14.5 -6.5q-7 0 -9 4.5t-2 10.5q0 8 6 13q3 3 12 8.5t20.5 13t23 16.5
t19.5 19l32 39q0 2 2 4q4 4 7 4q5 -1 9 -3t4 -7zM559 414q0 18 -18 18q-11 0 -30.5 -15t-42.5 -40t-46.5 -58t-44.5 -68t-36 -70.5t-21 -66.5q48 36 91 79.5t76 86t52.5 78.5t19.5 56z" />
    <glyph glyph-name="X" unicode="X" 
d="M798 692q0 -6 -5 -9q-2 -1 -20 -9t-47 -24.5t-67 -41.5t-81 -59q-39 -31 -85 -67q-39 -31 -90 -71t-109 -85q-19 -59 -32.5 -107t-13.5 -74q0 -54 25.5 -87t70.5 -33q26 0 58.5 13t70.5 42q2 3 5 5q6 4 7 4q6 0 6 -5q0 -1 -1 -2q-41 -38 -85 -57.5t-84 -19.5
q-49 0 -82.5 32.5t-33.5 102.5q0 21 8.5 58.5t22.5 82.5q-67 -52 -133.5 -103.5t-122.5 -94.5t-97 -72.5t-57 -38.5q-2 -2 -6 -5q-7 -5 -13 -5q-2 0 -3 1q-2 2 -2 4q0 3 2 7.5t10 9.5q85 53 191 139t243 198q12 41 25.5 82t24 78t17.5 66.5t7 46.5q0 58 -27.5 83.5
t-87.5 25.5q-48 0 -94.5 -14t-88 -36.5t-76.5 -51t-60.5 -58.5t-40 -58t-14.5 -50q0 -21 14 -33.5t46 -12.5q147 0 284 184q1 2 3 5q3 5 7 5t4 -8q0 -10 -13 -31t-36 -46.5t-53.5 -52.5t-65 -49t-71 -36.5t-71.5 -14.5q-45 0 -65.5 18t-20.5 47q0 27 16 60t45 67.5
t69.5 67.5t89.5 58.5t105 41t115 15.5q49 0 75 -15.5t38 -34.5q14 -22 16 -50q0 -48 -17.5 -114.5t-38.5 -135.5q58 48 120.5 97t131.5 103q3 2 17 13t34.5 26.5t45 33.5t48 32.5t44 24.5t32.5 10q7 0 12 -6.5t5 -11.5z" />
    <glyph glyph-name="Y" unicode="Y" horiz-adv-x="493" 
d="M598 388q0 -4 -3 -9q-10 -16 -21.5 -34.5t-24.5 -39.5q-43 -69 -96 -156.5t-110 -177.5q25 6 50.5 9.5t52.5 3.5q9 0 20 -1t20.5 -4.5t16 -9.5t6.5 -16q0 -14 -8 -23t-18.5 -14t-19.5 -7t-10 -2q-7 0 -7 3t3 4.5l5 2.5q1 1 5.5 3.5t9.5 6t9 7.5t4 8q0 9 -14 11.5t-25 2.5
q-32 0 -62 -4t-58 -12q-48 -75 -96 -144t-91.5 -122t-81 -84.5t-65.5 -31.5q-26 0 -26 32q0 20 10.5 49.5t31 63.5t49.5 70.5t66 70.5t80.5 63t93.5 48q29 48 55.5 94.5t50 88t42.5 74.5t32 54q-58 -64 -116 -115q-25 -22 -51.5 -42.5t-53.5 -37t-52.5 -26.5t-48.5 -10
q-7 0 -17 2t-20 8t-17 18t-7 32q0 40 19 82.5t47 86t61 87t61 85.5t47 82t19 76q0 58 -27.5 83.5t-87.5 25.5q-48 0 -94.5 -14t-88 -36.5t-76.5 -51t-60.5 -58.5t-40 -58t-14.5 -50q0 -21 14 -33.5t46 -12.5q147 0 284 184q1 2 3 5q3 5 7 5t4 -8q0 -10 -13 -31t-36 -46.5
t-53.5 -52.5t-65 -49t-71 -36.5t-71.5 -14.5q-45 0 -65.5 18t-20.5 47q0 27 16 60.5t45 68.5t69.5 68t89.5 59t105 41.5t115 15.5q49 0 75 -15.5t38 -35.5q14 -23 16 -52q0 -48 -19 -96.5t-48 -96t-62 -93t-62 -87t-48 -79t-19 -68.5q0 -17 10 -29t30 -12q24 0 54.5 16
t64 41t67 55t62.5 59t51 52.5t33 35.5q16 17 26.5 30.5t18.5 23.5q9 11 14 20q1 3 4 6q5 5 10 5q6 -1 15 -4t9 -11zM275 -77q-66 -27 -118 -68.5t-87 -85.5t-53.5 -83.5t-18.5 -61.5q0 -21 15 -21q21 0 50.5 27t64 71.5t72.5 102t75 119.5z" />
    <glyph glyph-name="Z" unicode="Z" horiz-adv-x="633" 
d="M661 623q0 -44 -22 -98t-59.5 -111t-86 -113.5t-101.5 -105.5q40 -11 58 -39t18 -67q0 -38 -12 -79q37 14 72.5 21.5t69.5 7.5q32 0 44.5 -10t12.5 -24q0 -13 -6 -23.5t-14.5 -18t-18.5 -11.5t-18 -4q-2 0 -5 2t-3 4q0 5 8 7q2 0 7 3t11 7t10.5 9t4.5 10q0 6 -7 10
q-5 3 -17.5 5.5t-30.5 2.5q-62 0 -129 -25q-19 -50 -50 -101t-69 -98t-80 -88t-81.5 -71t-74 -47.5t-57.5 -17.5q-35 0 -35 42q0 21 16.5 51.5t45 66t68 74t85.5 75t97 68.5t103 56q5 21 8.5 42.5t3.5 43.5q0 33 -15 56.5t-49 34.5q-34 -30 -69 -54.5t-67.5 -42t-62.5 -27.5
t-56 -10q-55 0 -55 25q0 17 26 41.5t67 46.5t91.5 37.5t100.5 15.5q8 0 16 -0.5t15 -1.5q48 45 92 97.5t77.5 106.5t54 105t20.5 93q0 25 -8 45.5t-25.5 35t-45.5 22.5t-68 8q-46 0 -93.5 -14t-92.5 -37.5t-84 -52.5t-68.5 -59.5t-46.5 -59.5t-17 -51q0 -32 14.5 -45
t38.5 -13t54.5 11t62.5 28.5t63 39t56.5 43.5t42.5 42t21 34q2 11 7 11q4 0 4 -8q0 -18 -16.5 -43.5t-44 -52.5t-62.5 -53.5t-72 -47t-72.5 -33.5t-63.5 -13q-30 0 -48.5 17t-18.5 58q0 28 18.5 63t51 71t77 70.5t97 61t111 43t117.5 16.5q86 0 122.5 -32t36.5 -84zM342 175
q-16 3 -36 3q-33 0 -70.5 -11t-68.5 -27t-51.5 -33t-20.5 -29q0 -8 9 -12t30 -4q41 0 96 31t112 82zM407 -33q-48 -21 -94 -50.5t-87 -62.5t-75.5 -67.5t-59.5 -66.5t-39 -59t-14 -45q0 -20 20 -20q17 0 44.5 14t61 39t69 59t69 75.5t61 88t44.5 95.5z" />
    <glyph glyph-name="bracketleft" unicode="[" horiz-adv-x="408" 
d="M646 739q0 -5 -6.5 -10t-24.5 -14h-217q-78 -211 -154.5 -416.5t-154.5 -416.5h222q4 0 8 -1q7 -2 7 -8q0 -5 -6.5 -10t-23.5 -13h-239q-3 -1 -7 1q-7 3 -7 11l329 866q2 7 8 13.5t9 6.5h241q4 0 8 -1q8 -2 8 -8z" />
    <glyph glyph-name="backslash" unicode="\" horiz-adv-x="247" 
d="M175 -144q0 -8 -2 -15t-7 -7q-8 0 -13 11t-8 22q-32 195 -54.5 333t-38 232t-24.5 149.5t-13.5 85.5l-6 40t-1.5 12q0 5 5 5q6 0 9.5 -5t6 -10.5t3.5 -10t1 -3.5q1 -4 7 -41.5t16 -96.5t22.5 -133t26 -151t26 -151t22.5 -132t16 -94.5t7 -39.5z" />
    <glyph glyph-name="bracketright" unicode="]" horiz-adv-x="364" 
d="M200 -130q-2 -7 -8 -13.5t-9 -6.5h-241q-4 0 -8 1q-8 2 -8 8q0 5 6.5 10t24.5 14h217q78 211 154.5 416.5t154.5 416.5h-222q-3 0 -7 1q-8 2 -8 8q0 5 6.5 10t23.5 13h239q3 1 7 -1q7 -3 7 -11z" />
    <glyph glyph-name="underscore" unicode="_" horiz-adv-x="356" 
d="M280 -15q0 -5 -2.5 -11t-10.5 -7q-37 -2 -65.5 -3t-52.5 -1.5t-46.5 -0.5h-48.5q-20 0 -24.5 1.5t-4.5 6.5q0 4 2 11t10 7l235 1q8 0 8 -4z" />
    <glyph glyph-name="grave" unicode="`" horiz-adv-x="380" 
d="M272 242q0 -4 -5 -6q-5 0 -9 2t-7 4l-85 54q-6 6 -6 13q0 14 14 14q6 0 10 -4l79 -65l5.5 -5.5t3.5 -6.5z" />
    <glyph glyph-name="a" unicode="a" horiz-adv-x="303" 
d="M333 89q0 -3 -1.5 -6.5t-7.5 -6.5q-39 -26 -74 -46q-30 -17 -62 -31.5t-52 -14.5q-16 0 -21 8.5t-5 17.5q0 5 1 9l2 8t2 7q0 -1 -10.5 -8t-26 -14.5t-33 -13.5t-31.5 -6q-30 0 -30 25q0 32 25 64t59.5 58.5t72.5 43t63 16.5q15 0 24 -7t9 -21q0 -9 -6.5 -18t-15 -16.5
t-16 -12.5t-10.5 -5q-6 0 -6 7q0 3 2 5q1 1 1 2q18 17 18 29q0 15 -16 15t-42 -13.5t-51 -33.5t-43 -44t-18 -44q0 -16 20 -16q19 0 38.5 11t36 24t28.5 24t15 11q10 -1 10 -10q0 -4 -5 -11t-10.5 -15t-10.5 -17t-5 -18q0 -10 13 -10q17 0 45.5 12.5t55.5 27.5q32 18 67 39
q1 0 1 -1v-4v0z" />
    <glyph glyph-name="b" unicode="b" horiz-adv-x="233" 
d="M433 528q0 -26 -28 -70t-70.5 -95t-92.5 -102.5t-95 -92.5q11 -20 11 -45v-3q32 5 61.5 14.5t46.5 21.5q3 3 8 3t5 -4q0 -3 -7 -9q-22 -14 -52.5 -25t-62.5 -16q-3 -24 -13.5 -47t-26.5 -40.5t-35.5 -28.5t-40.5 -11q-15 0 -24.5 11t-9.5 37q0 13 7.5 34.5t21.5 49.5
q-25 8 -40 24.5t-15 42.5q0 18 17 31t54 13q20 0 42 -8q36 58 80 119t88.5 110.5t84.5 81t67 31.5q19 0 19 -27zM397 504q-1 13 -4.5 17.5t-8.5 4.5q-14 0 -45 -30t-69.5 -77t-79 -104.5t-73.5 -113.5q6 -4 11 -9l10 -10q39 36 83.5 81.5t82.5 90t64 84.5t29 66zM116 162
q-3 4 -6.5 7.5l-6.5 6.5q-7 -13 -13.5 -24.5t-11.5 -22.5q9 7 18 15t20 18zM135 117q-2 18 -10 32q-20 -19 -38 -32q5 -1 10.5 -1h11.5h12.5t13.5 1zM81 191q-22 12 -43 12q-17 0 -24.5 -6t-7.5 -15q0 -21 10.5 -34.5t28.5 -21.5q8 15 16.5 31.5t19.5 33.5zM136 102
q-8 -1 -16.5 -1h-16.5h-16.5t-16.5 2q-4 -4 -6 -5q-19 -46 -19 -71q0 -8 6.5 -12t11.5 -4q14 0 26.5 7.5t22.5 20.5t16.5 29t7.5 34z" />
    <glyph glyph-name="c" unicode="c" horiz-adv-x="226" 
d="M256 89q0 -3 -1.5 -6t-7.5 -7q-15 -10 -33 -21q-15 -9 -33.5 -20t-38.5 -22q-20 -10 -47 -18.5t-52 -8.5q-31 0 -44 11.5t-13 29.5q0 23 18.5 53t48 56.5t66 44.5t71.5 18q28 0 28 -24q0 -8 -8.5 -18.5t-19.5 -19.5t-21.5 -16t-14.5 -9q-2 -1 -5 -1q-9 0 -9 8q0 3 4 6
q3 2 9 6.5t11.5 10t10 12t4.5 11.5q0 14 -13 14t-36 -14.5t-45.5 -35.5t-38.5 -43.5t-16 -38.5q0 -20 11 -27.5t27 -7.5q11 0 22 2.5t21 5.5l22 8q20 8 41.5 19t39.5 22q21 12 41 25q1 0 1 -1v-4v0z" />
    <glyph glyph-name="d" unicode="d" horiz-adv-x="275" 
d="M469 492q0 -16 -26.5 -61t-69 -103t-95 -120.5t-104.5 -113.5q-4 -14 -5.5 -28t-1.5 -26q0 -4 0.5 -10.5t3 -11.5t7.5 -9t15 -4t24 7.5t18 7.5q3 0 3 -2q0 -6 -6 -12.5t-15 -12t-20 -9.5t-22 -4q-17 0 -29.5 12t-12.5 44v10t1 10q-36 -32 -67.5 -51t-54.5 -19
q-43 0 -43 29q0 21 20.5 50t52 56.5t69 48.5t71.5 26q27 56 64 113t74.5 103.5t72.5 75.5t58 29q8 0 13 -8.5t5 -16.5zM432 477q0 8 -6 8q-9 0 -26 -16t-39.5 -42.5t-48 -62.5t-49 -75.5t-44.5 -81t-34 -79.5q29 30 58 63.5t56.5 67t51.5 66.5t42 62t28.5 52.5t10.5 37.5z
M170 168q-26 -6 -53 -24.5t-49.5 -41t-36.5 -44t-14 -35.5q0 -15 17 -15q14 0 42 20.5t63 54.5q5 19 12.5 40.5t18.5 44.5z" />
    <glyph glyph-name="e" unicode="e" horiz-adv-x="228" 
d="M258 89q0 -3 -1.5 -6t-7.5 -7q-15 -10 -33 -21q-15 -9 -33.5 -20t-38.5 -22q-12 -6 -28.5 -13t-34 -12.5t-35 -9t-32.5 -3.5q-20 0 -32.5 7.5t-12.5 25.5q0 14 18.5 36t68.5 53q-32 0 -46 7.5t-14 18.5q0 15 20 35t50 38t65 30.5t64 12.5q10 0 19.5 -3t9.5 -15
q0 -9 -9 -17.5t-20.5 -15t-21 -11l-9.5 -4.5q-2 0 -4.5 1.5t-4.5 6.5q0 4 4 6q2 1 3 2q5 3 9 7q8 8 8 12q0 6 -7 8t-11 2q-13 0 -33.5 -9t-40.5 -22t-34.5 -27t-14.5 -25q0 -15 35 -15q6 0 13 0.5t15 1.5q3 0 6.5 -1t3.5 -4q0 -6 -15.5 -15t-34 -21t-34 -25.5t-15.5 -27.5
t8.5 -19.5t22.5 -5.5q22 0 49 9t43 16q20 8 41.5 19t39.5 22q21 12 41 25q1 0 1 -1v-4v0z" />
    <glyph glyph-name="f" unicode="f" horiz-adv-x="196" 
d="M361 493q0 -35 -24.5 -79t-61 -90.5t-80 -91.5t-81 -81t-63.5 -59t-29 -26q-7 -10 -12.5 -20t-11.5 -20q24 -1 39.5 -8t23.5 -19q48 25 93 51t74 45q1 -1 1 -2v-4q0 -3 -1.5 -6.5t-7.5 -6.5q-11 -7 -23 -15q-11 -7 -24.5 -15.5t-29.5 -17.5q-10 -6 -21 -13
q-10 -6 -23.5 -14t-30.5 -17q3 -11 3 -24q0 -28 -13 -62.5t-34.5 -71t-49.5 -71t-56.5 -61t-56.5 -43t-50 -16.5q-19 0 -19 27q0 8 7.5 29t21.5 52t33.5 70.5t42.5 84.5q-22 -8 -35 -8q-36 0 -36 21q0 12 12 28.5t31 32t43.5 29t49.5 20.5q32 58 67 117.5t70 114.5
t69.5 102.5t65.5 83t58 56t47 20.5q12 0 17 -6.5t5 -15.5zM325 468q0 8 -4.5 10t-6.5 2q-10 0 -37 -32t-63.5 -84t-80 -119t-87.5 -139q11 10 36 34t56 55.5t64 68.5t60.5 74t45 71t17.5 59zM37 -13q-13 21 -47 21h-2q-10 -16 -18.5 -31.5t-17.5 -30.5q19 8 40.5 18.5
t44.5 22.5zM-48 2q-35 -9 -60 -28.5t-25 -33.5t26 -14q4 0 9 1t11 3q10 18 19 36t20 36zM43 -42q0 8 -1 12q-26 -15 -53.5 -29.5t-53.5 -26.5q-22 -41 -40.5 -77.5t-32 -66.5t-21 -52.5t-7.5 -34.5q0 -11 7 -11q14 0 34.5 14.5t43 38.5t45 54.5t40 62.5t28.5 62t11 54z" />
    <glyph glyph-name="g" unicode="g" horiz-adv-x="254" 
d="M254 200q0 -10 -8 -22t-19 -21.5t-22.5 -16t-18.5 -6.5t-7 6q0 2 4 6l3 3q15 14 20 21t5 13q0 7 -4.5 10.5t-10.5 3.5q-18 -1 -46 -20t-54.5 -44.5t-45 -51.5t-18.5 -41q0 -13 16 -13q11 0 28.5 8.5t34.5 19.5q19 12 41 27q3 2 8 8.5t11 13.5t11.5 12t9.5 5
q7 -1 11.5 -3.5t4.5 -10.5q-23 -35 -47.5 -75t-49.5 -82q21 3 41 3q23 0 35.5 -6.5t12.5 -18.5q0 -7 -5.5 -17t-13 -19t-16 -15t-14.5 -6q-2 0 -5 2t-3 5q0 4 3.5 6.5t7.5 5.5t7.5 8t3.5 13q0 10 -5.5 13t-12.5 3q-14 0 -26.5 -1.5t-25.5 -3.5q-34 -59 -68 -115.5t-67 -101
t-64.5 -71.5t-60.5 -27q-17 0 -25.5 9.5t-8.5 25.5q0 28 22 71t59 87t86.5 82t104.5 57q13 23 22.5 42.5t17.5 33.5q9 17 16 30q-9 -4 -24 -12.5t-31.5 -16.5t-33.5 -14t-30 -6q-12 0 -19.5 6t-7.5 22q0 22 26.5 55.5t64 65.5t79.5 55t73 23q11 0 16.5 -3t8.5 -8q4 -5 3 -12
zM57 -89q-50 -19 -91 -53t-70 -71.5t-45 -73t-16 -56.5t16 -21t41 26t53.5 66.5t57.5 89t54 93.5z" />
    <glyph glyph-name="h" unicode="h" horiz-adv-x="314" 
d="M375 495q0 -20 -16 -48t-41.5 -60t-57 -65.5t-63 -64t-59.5 -56t-46 -41.5q-33 -56 -54.5 -97t-21.5 -50q5 0 20.5 12t36 29.5t44 38t45 38t38.5 29.5t24 12q16 0 16 -14q0 -10 -12.5 -25t-27 -32.5t-27 -36.5t-12.5 -38q0 -11 13 -11q17 0 45.5 12.5t55.5 27.5
q32 18 67 39q1 0 1 -1v-4q0 -3 -1.5 -6.5t-7.5 -6.5q-39 -26 -74 -46q-30 -17 -62 -31.5t-52 -14.5q-16 0 -21 9.5t-5 18.5q0 16 8.5 34.5t19.5 35.5q12 19 27 39q-42 -31 -75 -60t-58.5 -51.5t-42 -36.5t-25.5 -14q-5 0 -7.5 5t-2.5 11t12.5 32.5t34 66t49.5 88t60 98
t65 96.5t63.5 84t57 59t45.5 22q7 0 12 -4q5 -3 8.5 -8t3.5 -14zM342 484q0 10 -5 10q-11 0 -35 -27t-54.5 -69t-65 -94t-65.5 -103q29 27 68 64.5t74 77.5t59 77.5t24 63.5z" />
    <glyph glyph-name="i" unicode="i" horiz-adv-x="183" 
d="M194 291q0 -16 -14 -31.5t-31 -15.5q-8 0 -11 5.5t-3 11.5q0 13 5.5 21.5t13 13.5t15 7t10.5 2q9 0 12 -4.5t3 -9.5zM213 89q0 -3 -1.5 -6.5t-7.5 -6.5q-39 -26 -74 -46q-30 -17 -62 -31.5t-52 -14.5q-16 0 -21 8.5t-5 17.5q0 14 8.5 34t22 42t30.5 45t34 42l4 4q4 4 9 4
q8 0 14 -4q3 -2 5 -5q0 -4 -4 -8q-9 -10 -23 -29.5t-27.5 -40.5t-23.5 -39.5t-10 -27.5q0 -5 2.5 -6.5t5.5 -3.5q4 -2 7 -2q17 0 45.5 12.5t55.5 27.5q32 18 67 39q1 0 1 -1v-4v0z" />
    <glyph glyph-name="j" unicode="j" horiz-adv-x="168" 
d="M216 289q0 -16 -14 -31.5t-31 -15.5q-8 0 -11 5.5t-3 11.5q0 13 5.5 21.5t13 13.5t15 7t10.5 2q9 0 12 -4.5t3 -9.5zM162 182q0 -3 -3 -8q-27 -46 -63 -114.5t-78 -142.5q20 3 38 3q23 0 35.5 -6.5t12.5 -18.5q0 -7 -5.5 -17t-13 -19t-16 -15t-14.5 -6q-2 0 -5 2t-3 5
q0 4 3.5 6.5t7.5 5.5t7.5 8t3.5 13q0 10 -5.5 13t-12.5 3q-23 0 -48 -5q-35 -62 -70.5 -121t-70 -104.5t-66.5 -73.5t-58 -28q-17 0 -25.5 9.5t-8.5 25.5q0 28 22 72.5t60 91t87.5 86.5t105.5 60q29 54 58.5 110.5t57.5 113.5q-5 -6 -30.5 -24.5t-61.5 -42.5q-6 -2 -9 -2
q-7 0 -8 5l8 5q13 8 28 17.5t29 20.5q28 21 45 36.5t27 26t15 15.5t10 5q14 -2 14 -11zM-37 -123q-51 -19 -92.5 -55t-71 -75.5t-45.5 -76.5t-16 -58t16 -21q14 0 36 22.5t49.5 61t59 90.5t64.5 112z" />
    <glyph glyph-name="k" unicode="k" horiz-adv-x="291" 
d="M377 521q0 -20 -16.5 -48.5t-42.5 -61.5t-58 -68t-64 -67t-60.5 -58.5t-46.5 -42.5q-7 -12 -14 -24.5t-14 -25.5q20 20 42.5 39.5t46.5 35.5t49 25.5t50 9.5q23 0 34.5 -8t11.5 -22t-12.5 -31.5t-35.5 -32.5t-56.5 -25t-75.5 -10q-11 -16 -11 -36q0 -32 13 -44t31 -12
q22 0 47 11t40 19q2 2 3 2q16 8 31 16.5t26 15.5q13 8 25 16q1 0 1 -1v-4q0 -3 -1.5 -6.5t-7.5 -6.5q-9 -6 -20 -13q-9 -6 -21.5 -13.5t-26.5 -15.5q-12 -7 -27.5 -15.5t-32.5 -16t-34 -12.5t-32 -5q-22 0 -36 14t-14 52q0 11 1.5 23.5t6 23t12 18t18.5 7.5q38 0 65.5 6.5
t45.5 16.5t26.5 21t8.5 21q0 22 -32 22q-6 0 -20.5 -2.5t-37 -15t-53.5 -39t-72 -73.5q-13 -24 -25.5 -48t-25.5 -50q-2 -3 -4 -5q-4 -4 -10 -4q-7 0 -13.5 3.5t-6.5 10.5q0 6 4 14t18 33t30 53q18 33 41 70q23 40 50 85t55.5 88t57.5 82.5t55.5 69.5t49.5 47.5t40 17.5
q7 0 12 -4q5 -3 8.5 -8t3.5 -14zM344 510q0 10 -5 10q-15 0 -38 -22t-52 -62t-64.5 -96.5t-74.5 -125.5q20 19 45 43t51 51t51 55.5t44 55t31 50.5t12 41z" />
    <glyph glyph-name="l" unicode="l" horiz-adv-x="193" 
d="M375 507q0 -23 -20 -60t-52 -79.5t-71 -88t-78 -85.5t-72.5 -71t-53.5 -45q-1 -6 -1.5 -12t-0.5 -11q0 -11 4 -20q3 -8 8.5 -14t16.5 -6q17 0 45.5 12.5t55.5 27.5q32 18 67 39q1 0 1 -1v-4q0 -3 -1.5 -6.5t-7.5 -6.5q-39 -26 -74 -46q-30 -17 -62 -31.5t-52 -14.5
q-24 0 -34.5 13t-10.5 36q0 34 20 84t53 106t73.5 111.5t82.5 100t80 72t65 27.5q19 0 19 -27zM339 483q-1 13 -4.5 17.5t-8.5 4.5q-16 0 -41 -20t-54.5 -52.5t-60.5 -75t-58 -87.5t-48 -89t-31 -81q17 14 46 40.5t62 60.5t67.5 72.5t62.5 76.5t47 72.5t21 60.5z" />
    <glyph glyph-name="m" unicode="m" horiz-adv-x="488" 
d="M517 89q0 -3 -1.5 -6.5t-7.5 -6.5q-39 -26 -74 -46q-30 -17 -62 -31.5t-52 -14.5q-17 0 -24 6.5t-7 17.5q0 12 6 26.5t14.5 28t16 24.5t10.5 16q-60 -43 -94.5 -67t-52.5 -35t-25 -13t-12 -2q-7 0 -8 7.5t-1 12.5l72 112q-6 -3 -28 -18.5t-49.5 -36.5t-56 -43.5
t-47.5 -39.5l-9 -9q-4 -3 -8.5 -5.5t-9.5 -2.5q-3 1 -8 5t-5 12q0 4 11.5 21.5t25 37.5t25 38.5t11.5 23.5q0 2 -2 2q-5 0 -16 -8t-17 -12l-25 -16q-4 -2 -7 -2q-4 0 -4 5q0 3 3 6q10 5 24.5 16.5t30 23t29.5 20.5t23 9q6 0 8.5 -3.5t2.5 -7.5q0 -12 -9.5 -29t-21 -34
t-21 -31t-9.5 -19q0 -2 2 -2q4 0 20 11.5t37.5 29.5t46 38t46 38t37.5 29.5t20 11.5q8 0 11.5 -4.5t3.5 -9.5q0 -6 -8.5 -20.5t-21 -33t-26 -39.5t-24.5 -40l2 -1q4 0 16 8t29 20t36 26.5t37 27.5t31.5 23t19.5 13q1 1 3 2q4 2 8 2q6 -1 9 -5t3 -9t-11 -20t-23.5 -32.5
t-23.5 -34.5t-11 -26t23 -9q17 0 45.5 12.5t55.5 27.5q32 18 67 39q1 0 1 -1v-4v0z" />
    <glyph glyph-name="n" unicode="n" horiz-adv-x="357" 
d="M387 89q0 -3 -1.5 -6.5t-7.5 -6.5q-39 -26 -74 -46q-30 -17 -62 -31.5t-52 -14.5q-17 0 -24 6.5t-7 17.5q0 12 6 26.5t14.5 28t16 24.5t10.5 16q-60 -43 -94.5 -68t-52 -38t-23.5 -16t-10 -3q-3 0 -4.5 4t-1.5 9q0 10 12.5 31t27 43t27 41t12.5 25q0 1 -2 1t-6 -2
q-2 -1 -4 -3l-50 -40q-8 -6 -15 -10.5t-14 -9.5q-4 -2 -7 -2q-4 0 -4 5t3 6q17 10 37.5 26t40 31.5t34 26.5t19.5 11q8 0 11.5 -4.5t3.5 -9.5q0 -10 -10 -29t-22.5 -38.5t-24.5 -37t-16 -25.5l2 -1q5 0 28.5 16.5t51 37.5t52 40t33.5 23q1 1 3 2q4 2 8 2q6 -1 9 -5t3 -9
t-10.5 -19t-23.5 -31t-23.5 -33.5t-10.5 -25.5t23 -9q17 0 45.5 12.5t55.5 27.5q32 18 67 39q1 0 1 -1v-4v0z" />
    <glyph glyph-name="o" unicode="o" horiz-adv-x="207" 
d="M227 79q0 -3 -7 -9q-31 -19 -72 -19h-12q-26 -30 -56.5 -50t-53.5 -20q-31 0 -31 40q0 18 11.5 43t31.5 50q-4 11 -4 27q0 18 9 33.5t22.5 27.5t30.5 18.5t33 6.5q23 0 39.5 -15.5t16.5 -50.5q0 -24 -10.5 -48.5t-27.5 -47.5h12q14 0 28 3.5t27 11.5q3 3 8 3t5 -4z
M170 154q0 25 -16 36t-36 11q-23 0 -44 -13t-21 -34q0 -11 3 -20q14 15 31 28t37 23q1 0 3 1t5 1t3 -5q0 -3 -7 -9t-17.5 -14t-23 -19.5t-23.5 -25.5q11 -17 28.5 -29t38.5 -17q17 20 28 42t11 44zM117 54q-20 4 -38 13.5t-29 24.5q-16 -27 -16 -60q0 -18 16 -18
q12 0 30.5 11t36.5 29z" />
    <glyph glyph-name="p" unicode="p" horiz-adv-x="281" 
d="M278 158q0 -26 -18.5 -55.5t-47.5 -54.5t-64.5 -41.5t-68.5 -16.5q-4 0 -14 5t-10 18q0 10 7.5 19.5t16.5 17.5t17.5 13t11.5 5q1 0 10 -3.5t9 -11.5q0 -2 -5 -7q-9 -6 -21 -17.5t-12 -17.5q0 -4 5 -4q9 0 32 8.5t48 26t44 43t19 58.5q0 8 -4 16.5t-25 8.5q-24 0 -50 -9
t-54 -25q-34 -57 -63.5 -106.5t-44.5 -77.5q-38 -69 -75 -130.5t-72 -108t-68 -73.5t-62 -27q-18 0 -18 22q0 30 15 70t41.5 84t62 91t76 91.5t84 84.5t85.5 71q20 32 39 64.5t35.5 60.5t29 50t18.5 34l-9 -9q-8 -8 -28 -22q-12 -8 -26.5 -18t-30.5 -21q-6 -2 -9 -2
q-7 0 -8 5l8 5q13 8 28 17.5t29 20.5q18 13 33.5 26.5t27 25t18.5 19t7 9.5q1 1 3 2t8 1q14 -2 14 -11q0 -3 -3 -8q-6 -11 -19.5 -32.5t-30.5 -50.5t-38 -62.5t-42 -68.5q31 17 59.5 27t52.5 10q28 0 37.5 -12t9.5 -27zM48 96q-59 -45 -116 -107.5t-102 -127t-73 -121.5
t-28 -91q0 -9 6 -9q16 0 40 22t53.5 63.5t64.5 100t74 132.5q9 17 31.5 54.5t49.5 83.5z" />
    <glyph glyph-name="q" unicode="q" horiz-adv-x="274" 
d="M287 207q0 -9 -9.5 -21t-22.5 -22.5t-26.5 -18t-21.5 -7.5q-7 0 -7 6q0 4 7.5 9t16.5 12t16.5 14.5t7.5 15.5q0 7 -7 9.5t-13 2.5q-14 0 -34 -9t-42 -23t-44 -32t-39.5 -36t-28.5 -35t-11 -29q0 -20 32 -20q21 0 45.5 12t44.5 26q24 17 47 37q6 5 12 5t9 -4t3 -7
q0 -6 -8 -17q-21 -27 -49 -65t-58 -81q14 -6 23 -18q34 20 69 46t67 55q2 2 3 2q2 0 2 -3q0 -5 -4.5 -14.5t-11.5 -15.5q-26 -22 -56 -43t-62 -41q5 -13 5 -27q0 -25 -11 -55.5t-28 -61t-39 -60t-43.5 -52t-41.5 -36t-34 -13.5q-22 0 -22 27q0 48 23.5 101t58.5 110
q-23 -9 -43 -14t-37 -5q-30 0 -30 22q0 14 12.5 32t34.5 34t52.5 27t67.5 11q10 0 15 -1q19 28 37.5 54.5t35.5 53.5q-20 -15 -41 -26q-18 -10 -41 -18t-47 -8q-22 0 -32 8t-10 22q0 24 26.5 59.5t67.5 68.5t90.5 56.5t96.5 23.5q27 0 27 -23zM112 -100q-7 8 -16 13
q-6 -8 -12 -17t-11 -17q18 9 39 21zM56 -79q-12 0 -28 -3t-32 -9.5t-31.5 -18t-26.5 -29.5q0 -19 27 -19q21 0 57 14q11 17 22 32.5t22 32.5h-10zM122 -136q0 11 -3 22q-17 -10 -33 -19t-32 -17q-20 -31 -37.5 -60.5t-30.5 -56.5t-20.5 -50t-7.5 -39t12 -16q9 0 23.5 11.5
t31.5 30.5t34 44t31 51t23 52t9 47z" />
    <glyph glyph-name="r" unicode="r" horiz-adv-x="245" 
d="M275 89q0 -3 -1.5 -6.5t-7.5 -6.5q-39 -26 -74 -46q-30 -17 -62 -31.5t-52 -14.5q-16 0 -21 8.5t-5 17.5q0 23 14.5 44t32 38t32 29t14.5 17q0 4 -6 5q-6 0 -12 1q-5 1 -12 1.5t-15 2.5q-23 -24 -47 -46t-46 -35q-4 -2 -7 -2q-4 0 -4 5q0 3 3 6q22 12 45.5 32t44.5 43
q-17 5 -31 14t-14 25q0 13 9.5 28.5t24.5 29t32 22.5t32 9q20 0 20 -24q0 -17 -10 -38t-27 -41q19 -3 33.5 -7.5t14.5 -15.5q0 -9 -3 -16.5t-12 -12.5q-7 -4 -18.5 -13.5t-22 -22t-18 -27.5t-7.5 -30q0 -6 4 -11t10 -5q17 0 45.5 12.5t55.5 27.5q32 18 67 39q1 0 1 -1v-4v0z
M139 238q0 19 -15 19q-7 0 -16.5 -4.5t-18 -12t-14.5 -16.5t-6 -18q0 -13 13.5 -19t30.5 -9q13 16 19.5 32t6.5 28z" />
    <glyph glyph-name="s" unicode="s" horiz-adv-x="197" 
d="M157 228q0 -12 -12.5 -27.5t-27.5 -33.5q-7 -8 -14 -15.5t-14 -15.5q8 -9 18.5 -18t20 -19.5t16 -23t6.5 -27.5q0 -21 -12.5 -37t-31 -27t-40.5 -17t-41 -6q-20 0 -33 6.5t-13 20.5t12.5 27t31.5 23t41.5 17.5t41.5 10.5q-10 13 -23 21.5t-22 21.5q-14 -13 -27.5 -23.5
t-26.5 -18.5q-4 -2 -7 -2q-4 0 -4 5q0 3 3 6q14 8 28 18.5t28 23.5q-5 12 -5 26q0 18 11 35.5t26 31t31 21.5t26 8q13 0 13 -12zM134 212q0 2 -2 3t-4 1q-8 0 -17 -4.5t-17 -11.5t-13.5 -16.5t-5.5 -20.5t7 -19q7 7 13.5 14t12.5 14q7 9 13 17q5 7 9 13.5t4 9.5zM117 29
q0 8 -1 14t-3 11q-15 -2 -31.5 -6.5t-30.5 -11t-23 -15.5t-9 -19q0 -11 9 -15.5t22 -4.5q11 0 23 3t21.5 9t16 15t6.5 20z" />
    <glyph glyph-name="t" unicode="t" horiz-adv-x="199" 
d="M432 333q0 -7 -4.5 -13t-21.5 -7q-64 -3 -108.5 -4.5t-79.5 -3.5q-32 -31 -65 -56t-56 -41q-32 -54 -54 -100t-22 -70q0 -13 7.5 -18t19.5 -5q11 0 25 3.5t27.5 9t25 11t18.5 8.5q16 8 30.5 16.5t25.5 15.5l25 15q1 0 1 -1v-4q0 -3 -1.5 -6.5t-7.5 -6.5q-9 -7 -20 -14
q-10 -6 -22.5 -14t-27.5 -16q-45 -24 -75 -32.5t-49 -8.5q-17 0 -25.5 5t-13.5 11q-5 7 -6 16q0 18 13 48.5t34.5 68.5t49.5 80t58 82q-36 -2 -51.5 -2h-25.5q-20 0 -31.5 0.5t-17 2t-7 3.5t-1.5 4q0 4 3 11.5t20 8.5h44.5t89.5 1q23 29 44.5 54t41 43.5t35 29t25.5 10.5
q14 0 14 -15q0 -27 -20 -58t-50 -62q17 0 30 0.5t24 0.5h22q38 1 60.5 2t33.5 1q16 0 16 -4zM285 432q0 5 -4 5q-12 0 -40 -30t-62 -75h50q23 26 39.5 51.5t16.5 48.5zM201 304h-23t-20 -1q-12 -17 -23.5 -35.5t-23.5 -36.5q17 13 41 31.5t49 41.5z" />
    <glyph glyph-name="u" unicode="u" horiz-adv-x="318" 
d="M348 89q0 -3 -1.5 -6.5t-7.5 -6.5q-39 -26 -74 -46q-30 -17 -62 -31.5t-52 -14.5q-16 0 -21 8.5t-5 17.5q1 9 9 25t19 31q12 18 28 37q-33 -30 -64 -54q-13 -10 -27 -20t-27.5 -17.5t-25.5 -12.5t-21 -5q-14 0 -19.5 6.5t-5.5 14.5q0 11 10 30.5t25 43t32.5 48.5t33.5 47
l4 4q4 4 9 4q10 -3 16.5 -4.5t6.5 -5.5q0 -3 -6 -12q-7 -10 -21.5 -30t-29 -41t-25 -38.5t-10.5 -23.5q0 -2 1.5 -7t8.5 -5q16 0 45.5 21t60.5 49.5t58 57t39 43.5q1 2 3 4q3 3 10 3q8 -2 14 -4t6 -4q-19 -26 -38.5 -53t-36 -50t-28 -41t-13.5 -26q0 -10 13 -10
q17 0 45.5 12.5t55.5 27.5q32 18 67 39q1 0 1 -1v-4v0z" />
    <glyph glyph-name="v" unicode="v" horiz-adv-x="213" 
d="M335 249q0 -4 -5 -10.5t-12.5 -13t-16 -11t-16.5 -4.5q-7 0 -7 4t-5 4q-15 0 -38 -18t-53.5 -49t-68.5 -72.5t-84 -89.5q-2 -2 -5 -4q-4 -3 -9 -3t-5 4q10 51 12.5 91t2.5 61v19q-2 5 -9 5t-15 -3.5t-10 -3.5t-2 3q0 5 6.5 11t16 11t19.5 9t17 4q8 0 11 -18t3 -42
q0 -17 -0.5 -34t-2.5 -31q-2 -17 -3 -32q13 13 32.5 34.5t42.5 46.5t48.5 50.5t50 46t48 33.5t42.5 13q4 0 8 -2q7 -3 7 -9z" />
    <glyph glyph-name="w" unicode="w" horiz-adv-x="337" 
d="M405 185q0 -6 -5 -10q-18 -15 -37 -26q-17 -10 -37 -18.5t-40 -10.5q-24 -26 -50 -51t-49.5 -44.5t-41 -31t-23.5 -11.5q-10 0 -10 10q0 4 3 12q3 5 9.5 24t13 40t11.5 38.5t5 18.5l-2 1q-3 0 -8 -5q-3 -2 -23.5 -19t-43.5 -37q-27 -23 -62 -51l-12 -10q-5 -4 -10 -7
t-8 -3q-5 2 -7 2.5t-2 3.5q0 4 7 17q3 6 10.5 25.5t15.5 43t14 45.5t6 33q0 8 -3 8q-5 0 -16 -6.5t-15 -6.5q-2 0 -2 3q0 5 6.5 11t16 11t19.5 9t17 4q8 0 11.5 -6t3.5 -14q0 -9 -2.5 -25.5t-6.5 -35t-7.5 -34.5t-5.5 -23l2 -1q25 21 48 40q20 17 40.5 35t33.5 31
q8 8 18 15.5t14 7.5q3 0 7.5 -2t4.5 -10q0 -7 -7 -29.5t-16 -47.5t-16 -46.5t-7 -28.5l9.5 8.5t24 22t32.5 31t36 36.5q-22 3 -22 25q0 20 12.5 39.5t29.5 35.5t35 26t30 10q13 0 13 -13q0 -18 -18.5 -46t-46.5 -60h7q10 0 25.5 8t30.5 18q18 11 38 25q2 0 2 -4zM333 221
q0 6 -6 6t-15 -5.5t-17.5 -15t-15 -22t-6.5 -26.5q0 -8 4.5 -11.5t10.5 -5.5q19 23 32 43.5t13 36.5z" />
    <glyph glyph-name="x" unicode="x" horiz-adv-x="250" 
d="M281 89q0 -3 -1.5 -6.5t-7.5 -6.5q-39 -26 -74 -46q-30 -17 -62 -31.5t-52 -14.5q-18 0 -24.5 15t-6.5 37v10t1 10q-35 -27 -69.5 -54.5t-71.5 -58.5q-4 -4 -8 -4q-7 0 -7 6q0 3 7 11q22 18 47 38q21 17 48 40t56 47q3 22 6.5 42t3.5 33q0 16 -7 16q-2 0 -6.5 -1.5
t-12.5 -6.5h-2q-3 0 -3 3q0 2 5 8t19 17l10 8q5 3 9.5 5.5t9.5 2.5q2 0 6 -2q8 -5 8 -18q0 -7 -4 -29.5t-7 -49.5q27 22 52 42t45.5 35t33.5 24t16 9q5 0 11 -4t6 -9q0 -7 -9 -12q-45 -29 -83 -56.5t-74 -54.5v-15q0 -23 5 -38t18 -15q17 0 45.5 12.5t55.5 27.5q32 18 67 39
q1 0 1 -1v-4v0z" />
    <glyph glyph-name="y" unicode="y" horiz-adv-x="249" 
d="M255 187l-7 -11t-15.5 -24.5t-16 -24.5l-7.5 -11q-27 -39 -56 -86.5t-60 -98.5q6 1 12.5 1h13.5q23 0 35.5 -6.5t12.5 -18.5q0 -7 -5 -16t-12.5 -17t-16 -13.5t-14.5 -5.5q-2 0 -5 2t-3 5q0 4 3.5 6.5t7.5 5.5t7.5 8t3.5 13q0 6 -6 8.5t-13 2.5q-20 0 -38 -3
q-36 -60 -73 -117t-72 -101.5t-67 -71.5t-58 -27q-17 0 -25.5 9.5t-8.5 25.5q0 26 23 70.5t62.5 91t91.5 86t110 55.5q20 34 37.5 64t30.5 53q15 26 28 49q-30 -27 -58 -48q-24 -18 -50 -33t-44 -15q-14 0 -19.5 6.5t-5.5 14.5q0 11 10.5 32t26.5 46t34 51t34 48l4 4
q4 4 9 4q10 -3 16.5 -4.5t6.5 -5.5q0 -3 -6 -12q-7 -10 -22 -31t-30 -43.5t-26.5 -41.5t-11.5 -25q0 -2 1.5 -7t8.5 -5q9 0 25.5 9.5t35.5 23.5t38 31t33 33q14 17 24.5 29t17.5 21q8 11 14 18q1 2 4 4q5 3 11 3q19 -3 19 -10zM41 -105q-54 -17 -97 -52.5t-74 -75.5
t-47.5 -76.5t-16.5 -54.5q0 -21 16 -21q15 0 40 25.5t55 65.5t62 90t62 99z" />
    <glyph glyph-name="z" unicode="z" horiz-adv-x="242" 
d="M278 -62q0 -7 -5.5 -17t-13 -19t-16 -15t-14.5 -6q-2 0 -5 2t-3 5q0 4 3.5 6.5t7.5 5.5t7.5 8t3.5 13q0 10 -5.5 13t-12.5 3q-20 0 -45 -5q-11 -34 -32.5 -73.5t-48.5 -78.5t-57 -74.5t-59.5 -62.5t-55.5 -43.5t-44 -16.5q-17 0 -25.5 9.5t-8.5 25.5q0 28 25 75t67 96
t95.5 92.5t110.5 65.5q9 25 9 45q0 18 -17 28.5t-35 10.5q-15 0 -34.5 -3.5t-39.5 -19.5l-6 -4q-6 -4 -11 -4q-2 0 -4 1t-2 3q0 5 13 15q7 5 31 22t50 39t46.5 44.5t20.5 39.5q-3 -3 -13.5 -7t-24.5 -7.5t-29.5 -6t-30.5 -2.5q-23 0 -40 6t-17 21q0 9 9 17.5t20.5 15t21 11
l9.5 4.5q2 0 4.5 -1.5t4.5 -6.5q0 -4 -3 -6l-4 -2q-4 -2 -8 -6q-3 -3 -6 -6.5t-3 -6.5q0 -6 7 -8t11 -2q19 0 32 2t22.5 4.5t18.5 4.5t19 2q13 0 21 -4.5t8 -16.5q0 -13 -16.5 -32t-37 -37.5t-38 -32t-19.5 -14.5q2 1 8.5 2t14.5 1q35 0 58.5 -16t23.5 -44q0 -16 -4 -31
q11 2 21.5 3t21.5 1q23 0 35.5 -6.5t12.5 -18.5zM138 -80q-54 -21 -100.5 -60.5t-81 -83t-54 -83t-19.5 -60.5t16 -21q13 0 33 14t42.5 38t46.5 55.5t46 65.5t40.5 69t30.5 66z" />
    <glyph glyph-name="braceleft" unicode="{" horiz-adv-x="312" 
d="M505 704q0 -5 -5 -5q-26 11 -47 16t-39 5q-47 0 -72 -31q-22 -27 -32 -71.5t-17 -92t-16.5 -91.5t-30.5 -69q-11 -14 -26.5 -22t-29.5 -14q7 -14 13 -29.5t6 -32.5q0 -33 -20.5 -72.5t-44.5 -81t-44.5 -82t-20.5 -75.5q0 -34 24 -62t87 -47q2 0 2 -2q0 -3 -7 -8.5
t-12 -5.5q-70 21 -102 52t-32 69q0 36 19.5 77t43.5 82.5t45 82.5t23 77q1 13 -0.5 31t-8.5 30q-1 2 -2 3.5t-1 3.5q0 3 9 6q13 4 25.5 17.5t20.5 23.5q22 29 32.5 73.5t18.5 92t19 91.5t34 72q28 33 77 33q41 0 104 -26q2 -5 4.5 -9.5t2.5 -8.5z" />
    <glyph glyph-name="bar" unicode="|" horiz-adv-x="312" 
d="M278 718q0 -1 -0.5 -3.5t-2 -13t-5.5 -32.5t-11 -62t-18 -101t-27.5 -150.5t-38 -209.5t-50.5 -278q-2 -9 -8.5 -21t-11.5 -12t-5.5 7.5t-0.5 15.5q0 2 6.5 38.5t17 94t24 131t28 150.5t28 151t24.5 133t18 97t8 42l1 4t3 9t6 9.5t10 4.5q5 0 5 -4z" />
    <glyph glyph-name="braceright" unicode="}" horiz-adv-x="273" 
d="M374 628q0 -36 -19.5 -77t-43.5 -82.5t-45 -82.5t-23 -77q-1 -13 0.5 -31t8.5 -30q1 -2 2 -3.5t1 -3.5q0 -3 -9 -6q-13 -4 -25.5 -17.5t-20.5 -23.5q-22 -29 -32.5 -73.5t-18.5 -92t-19 -91.5t-34 -72q-28 -33 -77 -33q-41 0 -104 26q-2 5 -4.5 9.5t-2.5 8.5q0 5 5 5
q26 -11 47 -16t39 -5q47 0 72 31q22 27 32 71.5t17 92t16.5 91.5t30.5 69q11 14 26.5 22t29.5 14q-7 14 -13 29.5t-6 32.5q0 33 20.5 72.5t44.5 81t44.5 82t20.5 75.5q0 34 -24 62t-87 47q-2 0 -2 2q0 3 7 8.5t12 5.5q70 -21 102 -52t32 -69z" />
    <glyph glyph-name="dagger" unicode="&#x2020;" 
d="M499 451q0 -8 -8 -14.5t-20 -11.5t-27 -8t-30 -3q-18 0 -34 2.5t-32 7.5q-21 -37 -47.5 -85.5t-60.5 -109t-75.5 -134.5t-91.5 -163q-4 -7 -12.5 -16t-13.5 -9q-9 0 -9 10q0 6 4 14q1 2 15 27t36 64.5t50.5 90.5t59 106t61.5 110.5t58 103.5q-20 8 -40 13t-43 5
q-18 0 -37 -9.5t-30 -9.5l-3 1q0 2 8 9t21.5 14t31.5 12.5t39 5.5q16 0 33.5 -4t34.5 -10q31 56 51 91.5t22 40.5q3 6 7 10t8.5 7t9.5 3q6 0 8 -2q1 -1 1 -3t-3 -8.5t-11.5 -23.5t-24.5 -46.5t-42 -77.5q19 -7 39.5 -12.5t34.5 -5.5q28 0 41.5 10.5t17.5 10.5q3 0 3 -3z" />
    <glyph glyph-name="degree" unicode="&#xb0;" horiz-adv-x="262" 
d="M220 593q0 -17 -9 -34t-23.5 -30.5t-31.5 -22t-34 -8.5q-26 0 -40 16t-14 38q0 10 6 27t18 33.5t30 28.5t42 12q26 0 41 -17.5t15 -42.5zM195 588q0 17 -9.5 28.5t-26.5 11.5q-16 0 -28.5 -7.5t-20.5 -18.5t-12.5 -23t-4.5 -22q0 -12 9 -24t29 -12q12 0 23.5 6t20.5 15.5
t14.5 21.5t5.5 24z" />
    <glyph glyph-name="cent" unicode="&#xa2;" horiz-adv-x="286" 
d="M235 505q0 -1 -1.5 -3.5t-7.5 -13t-18.5 -33t-35.5 -62.5q22 -3 22 -24q0 -8 -8.5 -18.5t-19.5 -19.5t-21.5 -16t-14.5 -9q-2 -1 -5 -1q-9 0 -9 8q0 3 4 6q3 2 9 6.5t11.5 10t10 12t4.5 11.5q0 14 -13 14t-36 -14.5t-45.5 -35.5t-38.5 -43.5t-16 -38.5q0 -20 11 -27.5
t27 -7.5q11 0 22 2.5t21 5.5l22 8q20 8 41.5 19t39.5 22q21 12 41 25q1 0 1 -1v-4q0 -3 -1.5 -6t-7.5 -7q-15 -10 -33 -21q-15 -9 -33.5 -20t-38.5 -22q-17 -9 -40 -17t-46 -10q-12 -21 -18.5 -31.5t-12.5 -21t-14.5 -25t-23.5 -42.5q-4 -7 -12.5 -16t-13.5 -9q-9 0 -9 10
q0 6 4 14q1 2 3.5 5.5t10 16t21.5 36t37 64.5q-23 2 -32.5 13t-9.5 27q0 21 16 48.5t42 52.5t59 44.5t66 24.5q18 32 29 50.5t17 28.5t8.5 14t3.5 6q3 6 7 10t8.5 7t9.5 3q7 0 7 -5z" />
    <glyph glyph-name="sterling" unicode="&#xa3;" horiz-adv-x="749" 
d="M822 610q-1 -6 -2.5 -9.5t-6.5 -3.5q-7 0 -15.5 1t-20.5 1h-12q-9 -25 -28 -50t-45.5 -45t-57 -33t-61.5 -13q-33 0 -33 26q0 17 15 39t42 43.5t65.5 38t84.5 20.5v2q0 22 -19.5 37t-67.5 15q-56 0 -100 -23t-80 -63t-66.5 -92.5t-60.5 -111.5h63q29 0 38.5 -1.5
t9.5 -3.5q0 -5 -10 -13t-21 -8q-7 1 -32.5 1.5t-59.5 0.5l-18 -35h64q29 0 38.5 -1.5t9.5 -3.5q0 -5 -10 -13t-21 -8q-7 1 -32.5 1.5t-60.5 0.5q-26 -51 -53.5 -101t-60.5 -97h27.5t27.5 -1q87 -3 136.5 -4t74 -2t30 -2t5.5 -4q0 -17 -12.5 -23.5t-35.5 -8.5q-22 1 -55 2
t-71.5 1.5t-79 1.5t-76.5 1q-33 -41 -72 -75.5t-86 -60t-103.5 -39.5t-124.5 -14q-28 0 -42 11t-14 29q0 23 25 54t77.5 59t132.5 49t190 25q31 46 58.5 96.5t53.5 102.5q-28 -1 -52 -2.5t-60 -6.5q-5 0 -5 3t7 10l7 7q2 0 5 1q5 2 16 3q6 1 31 3t62 4q5 9 9.5 18l9.5 19
q-29 -1 -53 -2.5t-60 -6.5q-5 0 -5 3t7 10l7 7q2 0 5 1q5 2 16 3q6 1 31 3t63 4q32 62 67.5 117.5t79 97.5t97.5 67t124 25q54 0 76 -18.5t22 -45.5v-4h6q21 0 40 -4q1 -2 3 -4q3 -3 3 -8zM740 597q-40 -5 -71.5 -18t-53.5 -29t-33.5 -32.5t-11.5 -27.5q0 -16 20 -16
q18 0 40 11t43.5 29t39.5 40t27 43zM123 68q-81 -1 -149.5 -18t-118 -39.5t-77 -47t-27.5 -41.5q0 -23 47 -23q56 0 103 12.5t87 35t73 53.5t62 68z" />
    <glyph glyph-name="section" unicode="&#xa7;" horiz-adv-x="246" 
d="M232 318q0 -12 -12.5 -27.5t-27.5 -33.5q-7 -8 -14 -15.5t-14 -15.5q8 -9 18.5 -18t20 -19.5t16 -23t6.5 -27.5q0 -29 -23.5 -49t-52.5 -30q1 -3 1 -11q0 -21 -12.5 -37t-31 -27t-40.5 -17t-41 -6q-20 0 -33 6.5t-13 20.5t12.5 27t31.5 23t41.5 17.5t41.5 10.5
q-7 10 -16.5 17t-18.5 15t-15 18.5t-6 27.5q0 15 7 29.5t18.5 26.5t24.5 21t25 14q0 18 11 35.5t26 30.5t31 21t26 8q13 0 13 -12zM209 302q0 2 -2 3t-4 1q-8 0 -17 -4.5t-17 -11.5t-13.5 -16.5t-5.5 -20.5q0 -8 7 -19l13.5 13.5t12.5 14.5q7 9 13 17q5 7 9 13.5t4 9.5z
M192 119q0 21 -8.5 33t-19.5 21t-21.5 18t-15.5 25q-8 0 -17 -4.5t-17 -12t-13 -16.5t-5 -20t8.5 -20.5t19.5 -20t23 -22t18 -26.5q18 4 33 15.5t15 29.5zM117 29q0 8 -1 14t-3 11q-15 -2 -31.5 -6.5t-30.5 -11t-23 -15.5t-9 -19q0 -11 9 -15.5t22 -4.5q11 0 23 3t21.5 9
t16 15t6.5 20z" />
    <glyph glyph-name="bullet" unicode="&#x2022;" horiz-adv-x="290" 
d="M202 141q0 -11 -7 -22t-17.5 -20t-22 -14.5t-19.5 -5.5q-16 0 -24.5 6t-12.5 14q-4 9 -5 20q0 16 7 27t17.5 18.5t21.5 11t18 3.5q17 0 30.5 -11.5t13.5 -26.5z" />
    <glyph glyph-name="paragraph" unicode="&#xb6;" horiz-adv-x="515" 
d="M512 465q1 0 -1.5 -6t-14 -28t-35 -65t-65 -118t-103.5 -187t-152 -271q-4 -7 -12.5 -16t-13.5 -9q-9 0 -9 10q0 6 4 14q1 2 17.5 31t42 74.5t57.5 103.5t66 118.5t66 119t58 105t42.5 76t18.5 33.5q3 6 7 10t8.5 7t9.5 3q6 0 8 -2q1 -1 1 -3zM426 470q0 -3 -5.5 -15.5
t-20 -41t-40.5 -76t-67 -122t-99.5 -179t-138.5 -246.5q-4 -7 -12.5 -16t-13.5 -9q-9 0 -9 10q0 6 4 14l283 510q-16 -9 -37.5 -20.5t-44 -21t-44 -16.5t-38.5 -7q-22 0 -32 8t-10 22q0 24 26.5 59.5t67.5 68.5t90.5 56.5t96.5 23.5h42q2 0 2 -2z" />
    <glyph glyph-name="registered" unicode="&#xae;" horiz-adv-x="612" 
d="M581 180q0 -45 -24.5 -88.5t-66.5 -78t-98.5 -55.5t-119.5 -21q-60 0 -102 13t-69 35t-39.5 51t-12.5 62q0 45 22.5 91t63 83.5t98.5 61.5t128 24q23 0 55 -5t63.5 -20t58 -43t38.5 -74q5 -20 5 -36zM554 177q0 17 -4 33q-10 41 -33.5 66t-52 39t-57.5 18.5t-50 4.5
q-64 0 -115.5 -21.5t-88.5 -55.5t-57 -76t-20 -83q0 -29 11 -55.5t35 -46t62 -31t92 -11.5q57 0 107.5 19t88.5 49.5t60 70t22 80.5zM438 242q0 -14 -9 -31t-24.5 -33.5t-36.5 -32.5t-45 -29q30 -8 48 -36t19 -63q0 -3 -2 -6.5t-5 -3.5q-2 0 -3.5 2.5t-3.5 4.5q-2 3 -2 6
q-5 23 -16 41q-10 15 -26.5 27.5t-44.5 12.5l-3 -1l-39 -71q0 -3 -7 -7t-12 -4q-4 0 -6 1t-2 6l37 68q-5 -1 -8.5 -2t-8.5 -1q-2 0 -7 2t-5 5q0 8 9 8q15 2 30 6l67 121h-1q2 5 9 7.5t11 2.5q5 0 6 -3q1 -2 1 -3l-61 -114q23 10 43.5 24t36 29.5t25 30.5t9.5 28q0 11 -13 20
t-42 9q-30 0 -62.5 -12t-59.5 -29t-44 -34t-17 -28q0 -10 17 -10q18 0 44 14t49 37q1 2 3 3q4 2 6 2q7 0 7 -8q0 -3 -5 -11q-5 -7 -18 -17t-30 -20t-35 -17t-33 -7q-30 0 -30 21q0 15 20.5 38t52.5 45.5t71 38.5t77 16q37 0 53 -13t16 -30z" />
    <glyph glyph-name="copyright" unicode="&#xa9;" horiz-adv-x="612" 
d="M581 180q0 -45 -24.5 -88.5t-66.5 -78t-98.5 -55.5t-119.5 -21q-60 0 -102 13t-69 35t-39.5 51t-12.5 62q0 45 22.5 91t63 83.5t98.5 61.5t128 24q23 0 55 -5t63.5 -20t58 -43t38.5 -74q5 -20 5 -36zM554 177q0 17 -4 33q-10 41 -33.5 66t-52 39t-57.5 18.5t-50 4.5
q-64 0 -115.5 -21.5t-88.5 -55.5t-57 -76t-20 -83q0 -29 11 -55.5t35 -46t62 -31t92 -11.5q57 0 107.5 19t88.5 49.5t60 70t22 80.5zM445 140q0 -3 -1.5 -6t-7.5 -7q-15 -10 -33 -21q-15 -9 -33.5 -20t-38.5 -22q-20 -10 -47 -18.5t-52 -8.5q-31 0 -44 11.5t-13 29.5
q0 23 18.5 53t48 56.5t66 44.5t71.5 18q28 0 28 -24q0 -8 -8.5 -18.5t-19.5 -19.5t-21.5 -16t-14.5 -9q-2 -1 -5 -1q-9 0 -9 8q0 3 4 6q3 2 9 6.5t11.5 10t10 12t4.5 11.5q0 14 -13 14t-36 -14.5t-45.5 -35.5t-38.5 -43.5t-16 -38.5q0 -20 11 -27.5t27 -7.5q11 0 22 2.5
t21 5.5l22 8q20 8 41.5 19t39.5 22q21 12 41 25q1 0 1 -1v-4v0z" />
    <glyph glyph-name="acute" unicode="&#xb4;" horiz-adv-x="380" 
d="M272 309q0 -7 -6 -13l-85 -54q-3 -2 -7 -4t-9 -2q-5 2 -5 6q1 4 3.5 6.5l5.5 5.5l79 65q4 4 10 4q14 0 14 -14z" />
    <glyph glyph-name="dieresis" unicode="&#xa8;" horiz-adv-x="394" 
d="M304 281q0 -16 -14 -31.5t-31 -15.5q-8 0 -11 5.5t-3 11.5q0 13 5.5 21.5t13 13.5t15 7t10.5 2q9 0 12 -4.5t3 -9.5zM199 291q0 -16 -14 -31.5t-31 -15.5q-8 0 -11 5.5t-3 11.5q0 13 5.5 21.5t13 13.5t15 7t10.5 2q9 0 12 -4.5t3 -9.5z" />
    <glyph glyph-name="yen" unicode="&#xa5;" horiz-adv-x="514" 
d="M529 604q0 -4 -3 -9q-10 -16 -21 -34.5t-25 -39.5q-35 -55 -75.5 -123t-85.5 -140q10 1 20 1h21q25 0 40 -0.5t23 -1t10.5 -1.5t2.5 -2q0 -5 -10 -13t-21 -8q-7 1 -34 1.5t-63 0.5h-3l-12 -18t-11 -18q12 1 24 1h25q25 0 40 -0.5t23 -1t10.5 -1.5t2.5 -2q0 -5 -10 -13
t-21 -8q-7 1 -35.5 1.5t-73.5 0.5l-42 -66q46 8 93 8q9 0 20 -1t20.5 -4.5t16 -9.5t6.5 -16q0 -14 -8 -23t-18.5 -14t-19.5 -7t-10 -2q-7 0 -7 3t3 4.5l5 2.5q1 1 5.5 3.5t9.5 6t9 7.5t4 8q0 9 -14 11.5t-25 2.5q-30 0 -57.5 -2.5t-52.5 -7.5q-42 -63 -82.5 -118.5
t-77.5 -97t-69 -66t-56 -24.5q-26 0 -26 32q0 31 16.5 74t52 86t90 80t130.5 56q12 18 23 36.5t22 36.5q-26 -1 -48.5 -2.5t-56.5 -5.5q-5 0 -5 3t7 10l7 7q2 0 5 1q5 2 16 3q6 1 29.5 3t58.5 4q5 9 11 18t11 19q-28 -1 -52 -2.5t-59 -6.5q-5 0 -5 3t7 10l7 7q2 0 5 1
q5 2 16 3q6 1 31 3t62 4q41 71 75.5 131.5t54.5 93.5q-58 -64 -116 -115q-25 -22 -51.5 -42.5t-53.5 -37t-52.5 -26.5t-48.5 -10q-7 0 -17 2t-20 8t-17 18t-7 32q0 40 14 75t34.5 67.5t44.5 63.5t44.5 62t34.5 63.5t14 68.5q0 58 -27.5 83.5t-87.5 25.5l-4 4q-5 5 -5 7
q0 4 7.5 6.5t29.5 2.5q49 0 75 -15.5t38 -35.5q14 -23 16 -52q0 -48 -14 -89.5t-35 -78t-46 -68.5t-46 -63t-35 -61t-14 -61q0 -17 10 -29t30 -12q24 0 54.5 16t64 41t67 55t62.5 59t51 52.5t33 35.5q16 17 26.5 30.5t18.5 23.5q9 11 14 20q1 3 4 6q5 5 10 5q6 -1 15 -4
t9 -11zM163 70q-62 -18 -106.5 -47.5t-73 -62.5t-41.5 -65t-13 -55q0 -21 15 -21q18 0 42.5 20t53 54.5t60 80t63.5 96.5z" />
    <glyph glyph-name="ordfeminine" unicode="&#xaa;" horiz-adv-x="346" 
d="M357 437q0 -3 -1.5 -6.5t-7.5 -6.5q-39 -26 -74 -46q-30 -17 -62 -31.5t-52 -14.5q-16 0 -21 8.5t-5 17.5q0 5 1 9l2 8t2 7q0 -1 -10.5 -8t-26 -14.5t-33 -13.5t-31.5 -6q-30 0 -30 25q0 32 25 64t59.5 58.5t72.5 43t63 16.5q15 0 24 -7t9 -21q0 -9 -6.5 -18t-15 -16.5
t-16 -12.5t-10.5 -5q-6 0 -6 7q0 3 2 5q1 1 1 2q18 17 18 29q0 15 -16 15t-42 -13.5t-51 -33.5t-43 -44t-18 -44q0 -16 20 -16q19 0 38.5 11t36 24t28.5 24t15 11q10 -1 10 -10q0 -4 -5 -11t-10.5 -15t-10.5 -17t-5 -18q0 -10 13 -10q17 0 45.5 12.5t55.5 27.5q32 18 67 39
q1 0 1 -1v-4v0zM243 276q0 -5 -2.5 -11t-10.5 -7q-37 -2 -65.5 -3t-52.5 -1.5t-46.5 -0.5h-48.5q-20 0 -24.5 1.5t-4.5 6.5q0 4 2 11t10 7l235 1q8 0 8 -4z" />
    <glyph glyph-name="ordmasculine" unicode="&#xba;" horiz-adv-x="247" 
d="M251 431q0 -3 -7 -9q-31 -19 -72 -19h-12q-26 -30 -56.5 -50t-53.5 -20q-31 0 -31 40q0 18 11.5 43t31.5 50q-4 11 -4 27q0 18 9 33.5t22.5 27.5t30.5 18.5t33 6.5q23 0 39.5 -15.5t16.5 -50.5q0 -24 -10.5 -48.5t-27.5 -47.5q23 0 38.5 3.5t28.5 11.5q3 3 8 3t5 -4z
M203 286q0 -5 -2.5 -11t-10.5 -7q-37 -2 -65.5 -3t-52.5 -1.5t-46.5 -0.5h-48.5q-20 0 -24.5 1.5t-4.5 6.5q0 4 2 11t10 7l235 1q8 0 8 -4zM194 506q0 25 -16 36t-36 11q-23 0 -44 -13t-21 -34q0 -11 3 -20q14 15 31 28t37 23q1 0 3 1t5 1t3 -5q0 -3 -7 -9t-17.5 -14
t-23 -19.5t-23.5 -25.5q11 -17 28.5 -29t38.5 -17q17 20 28 42t11 44zM141 406q-20 4 -38 13.5t-29 24.5q-16 -27 -16 -60q0 -18 16 -18q12 0 30.5 11t36.5 29z" />
    <glyph glyph-name="exclamdown" unicode="&#xa1;" horiz-adv-x="339" 
d="M273 269q0 -16 -12 -23t-20 -7t-15 5.5t-7 13.5q0 11 12.5 21t20.5 10t12 -3t6 -7q3 -4 3 -10zM226 188q0 -2 -11.5 -25t-31 -60t-44 -83t-49.5 -94.5t-49.5 -94.5t-43 -82.5t-30 -58.5t-10.5 -23q-2 -3 -5 -6q-2 -2 -6 -4.5t-9 -4.5t-10.5 -3.5t-10.5 -3.5t-11 -4
q-2 0 -4 2q-1 1 -1 2q0 2 2 6q2 3 18.5 33.5t42.5 76.5t57 102.5t62 112.5t58 105.5t44 82.5q14 18 22.5 25.5t13.5 7.5q6 0 6 -9z" />
    <glyph glyph-name="guillemotleft" unicode="&#xab;" horiz-adv-x="397" 
d="M351 169q0 -6 -2.5 -9t-7.5 -5l-118 -59l66 -70q8 -8 8 -11q0 -5 -7 -9q-4 -2 -8 -3l-103 90q0 1 -1 2q-2 2 -2 5q0 6 7 10l166 70q2 -8 2 -11zM239 189q0 -6 -2.5 -9t-7.5 -5l-118 -69l66 -70q8 -8 8 -11q0 -5 -7 -9q-4 -2 -8 -3l-103 90q0 1 -1 2q-2 2 -2 5q0 6 7 10
l166 80q2 -8 2 -11z" />
    <glyph glyph-name="guillemotright" unicode="&#xbb;" horiz-adv-x="424" 
d="M352 94q0 -6 -7 -10l-166 -80q-2 8 -2 11q0 6 2.5 9t7.5 5l118 69l-66 70q-8 8 -8 11q0 5 8 9q4 2 7 3l103 -90l2 -2q1 -1 1 -5zM240 104q0 -6 -7 -10l-166 -70q-2 8 -2 11q0 6 2.5 9t7.5 5l118 59l-66 70q-8 8 -8 11q0 5 8 9q4 2 7 3l103 -90l2 -2q1 -1 1 -5z" />
    <glyph glyph-name="ellipsis" unicode="&#x2026;" horiz-adv-x="534" 
d="M391 15q0 -11 -12 -21t-20 -10t-11.5 3t-5.5 7q-3 4 -3 10q0 16 11.5 23t19.5 7t14.5 -5.5t6.5 -13.5zM250 15q0 -11 -11.5 -21t-19.5 -10q-13 0 -17 10q-2 4 -2 10q0 16 11 23t19 7t14 -5.5t6 -13.5zM112 15q0 -11 -12.5 -21t-20.5 -10t-12 3t-6 7q-3 4 -3 10
q0 16 12 23t20 7t15 -5.5t7 -13.5z" />
    <glyph glyph-name="endash" unicode="&#x2013;" horiz-adv-x="356" 
d="M331 131q0 -5 -2.5 -11t-10.5 -7q-37 -2 -65.5 -3t-52.5 -1.5t-46.5 -0.5h-48.5q-20 0 -24.5 1.5t-4.5 6.5q0 4 2 11t10 7l235 1q8 0 8 -4z" />
    <glyph glyph-name="emdash" unicode="&#x2014;" horiz-adv-x="549" 
d="M535 131q0 -5 -4.5 -11t-21.5 -7q-75 -2 -132 -3t-105 -1.5t-92.5 -0.5h-96.5q-20 0 -31.5 0.5t-17 1.5t-7 2.5t-1.5 3.5q0 4 3 11t20 7l470 1q16 0 16 -4z" />
    <glyph glyph-name="quoteleft" unicode="&#x2018;" horiz-adv-x="274" 
d="M321 535q0 -2 -11 -8.5t-24.5 -16t-24.5 -23t-11 -29.5q0 -14 5.5 -24.5t5.5 -21.5q0 -14 -7.5 -18t-12.5 -4q-14 0 -20 11.5t-6 22.5q0 31 13 52t30 34.5t33 20.5t22 9q2 0 5 -1.5t3 -3.5z" />
    <glyph glyph-name="guilsinglleft" unicode="&#x2039;" horiz-adv-x="285" 
d="M239 189q0 -6 -2.5 -9t-7.5 -5l-118 -69l66 -70q8 -8 8 -11q0 -5 -7 -9q-4 -2 -8 -3l-103 90q0 1 -1 2q-2 2 -2 5q0 6 7 10l166 80q2 -8 2 -11z" />
    <glyph glyph-name="guilsinglright" unicode="&#x203a;" horiz-adv-x="312" 
d="M240 94q0 -6 -7 -10l-166 -80q-2 8 -2 11q0 6 2.5 9t7.5 5l118 69l-66 70q-8 8 -8 11q0 5 8 9q4 2 7 3l103 -90l2 -2q1 -1 1 -5z" />
    <glyph glyph-name="periodcentered" unicode="&#xb7;" horiz-adv-x="228" 
d="M148 135q0 -11 -12.5 -21t-20.5 -10t-12 3t-6 7q-3 4 -3 10q0 16 12 23t20 7t15 -5.5t7 -13.5z" />
    <glyph glyph-name="perthousand" unicode="&#x2030;" horiz-adv-x="1029" 
d="M991 255q0 -46 -22.5 -94.5t-57.5 -88t-77.5 -65t-82.5 -25.5q-22 0 -36.5 6.5t-23.5 18t-12.5 25.5t-3.5 29q0 21 7.5 50t22 60t35.5 61t47.5 54t59.5 38.5t70 14.5q13 0 26.5 -3t24 -12t17 -25.5t6.5 -43.5zM674 255q0 -46 -22.5 -94.5t-57.5 -88t-77.5 -65
t-82.5 -25.5q-22 0 -36.5 6.5t-23.5 18t-12.5 25.5t-3.5 29q0 21 7.5 50t22 60t35.5 61t47.5 54t59.5 38.5t70 14.5q13 0 26.5 -3t24 -12t17 -25.5t6.5 -43.5zM584 696q0 -1 -2 -5.5t-14 -26t-37.5 -67t-72.5 -129t-119 -211.5t-177 -315q-4 -7 -12.5 -16t-13.5 -9
q-9 0 -9 10q0 6 4 14q1 2 19.5 34.5t48 83.5t66.5 116t75.5 133t75.5 133.5t67 117.5t48.5 85t20.5 37q3 6 7 10t8.5 7t9.5 3q7 0 7 -5zM364 545q0 -46 -22.5 -94.5t-57.5 -88t-77.5 -65t-82.5 -25.5q-22 0 -36.5 6.5t-23.5 18t-12.5 25.5t-3.5 29q0 21 7.5 50t22 60
t35.5 61t47.5 54t59.5 38.5t70 14.5q13 0 26.5 -3t24 -12t17 -25.5t6.5 -43.5zM962 270q0 26 -11.5 41.5t-37.5 15.5q-37 0 -73.5 -29.5t-66 -71.5t-48 -89t-18.5 -83q0 -26 12 -42.5t38 -16.5q35 0 71.5 29.5t66 72.5t48.5 90t19 83zM645 270q0 26 -11.5 41.5t-37.5 15.5
q-37 0 -73.5 -29.5t-66 -71.5t-48 -89t-18.5 -83q0 -26 12 -42.5t38 -16.5q35 0 71.5 29.5t66 72.5t48.5 90t19 83zM335 560q0 26 -11.5 41.5t-37.5 15.5q-37 0 -73.5 -29.5t-66 -71.5t-48 -89t-18.5 -83q0 -26 12 -42.5t38 -16.5q35 0 71.5 29.5t66 72.5t48.5 90t19 83z
" />
    <glyph glyph-name="macron" unicode="&#xaf;" horiz-adv-x="376" 
d="M300 265q0 -5 -1.5 -10t-9.5 -6q-15 -1 -29 -1.5t-32 -1t-43 -0.5h-63q-18 0 -22 2t-4 7q0 3 1.5 9t9.5 7l186 -2q7 0 7 -4z" />
    <glyph glyph-name="cedilla" unicode="&#xb8;" horiz-adv-x="243" 
d="M161 -46q-1 -15 -10.5 -26t-23 -17.5t-29 -9.5t-27.5 -3q-7 0 -7 5q0 4 4 4q11 0 23 3t22.5 8t17.5 13t7 18q1 12 -8 15.5t-14 3.5q1 1 4 5.5t7 9.5t7.5 10t5.5 7q0 2 2 3q4 2 7 2q4 0 10 -2l-18 -26q6 -1 10 -5q4 -3 7.5 -7t2.5 -11z" />
    <glyph glyph-name="currency" unicode="&#xa4;" horiz-adv-x="583" 
d="M624 612q0 -34 -14.5 -75t-40 -82t-58.5 -79t-69.5 -67.5t-75 -47.5t-73.5 -18q-25 0 -39.5 12t-14.5 39q0 21 11.5 48.5t30 56t42.5 55.5t49.5 48.5t50.5 34.5t45 13q8 0 8 -6q0 -1 -2 -9q-1 -2 -3 -4q-19 0 -41.5 -11.5t-45 -30.5t-43 -43t-37 -49.5t-26 -49.5
t-9.5 -42q0 -21 11 -30.5t30 -9.5q25 0 55 16.5t60.5 43.5t58.5 62.5t49.5 73t34.5 74.5t13 68q0 38 -23 62t-77 24q-48 0 -113 -28t-130 -77.5t-122.5 -117.5t-91.5 -147q40 3 95 3h28q29 0 38.5 -1.5t9.5 -3.5q0 -5 -10 -13t-21 -8q-7 1 -34 1.5t-63 0.5h-29q-12 0 -23 -1
q-3 -9 -6.5 -18t-5.5 -18q19 1 41 1.5t46 0.5h28q29 0 38.5 -1.5t9.5 -3.5q0 -5 -10 -13t-21 -8q-7 1 -34 1.5t-63 0.5h-40q-5 -23 -8 -45t-3 -44q0 -45 11 -75t30 -48.5t44.5 -26.5t54.5 -8q40 0 82.5 12t80 30t67 38t42.5 36q8 0 8 -12q0 -11 -28.5 -32.5t-72.5 -43.5
t-97.5 -38t-102.5 -16q-32 0 -60.5 8.5t-49.5 29t-33.5 53.5t-12.5 82q0 25 3.5 49.5t9.5 49.5q-18 -1 -36.5 -3t-44.5 -5q-5 0 -5 3t7 10l7 7q2 0 4 1q5 2 17 3q5 1 19.5 2t37.5 3q3 9 6 18.5t7 18.5q-16 -1 -32.5 -3t-38.5 -4q-5 0 -5 3t7 10l7 7q2 0 4 1q5 2 17 3
q5 1 17.5 1.5t31.5 2.5q25 57 62.5 108t82 95t93.5 79.5t97.5 61t93.5 39t82 13.5q66 0 94.5 -28t28.5 -73z" />
    <glyph glyph-name="quotesinglbase" unicode="&#x201a;" horiz-adv-x="191" 
d="M101 12q-3 -36 -22 -57.5t-40 -32.5q-26 -14 -56 -18q-5 0 -5 6q0 3 13.5 7.5t29 12.5t29 21.5t13.5 34.5q0 10 -3.5 16.5t-3.5 14.5q0 10 6 16t12 6q11 0 16.5 -4t7.5 -9q3 -6 3 -14z" />
    <glyph glyph-name="quotedblbase" unicode="&#x201e;" horiz-adv-x="240" 
d="M196 12q-3 -36 -22 -57.5t-40 -32.5q-26 -14 -56 -18q-5 0 -5 6q0 3 13.5 7.5t29 12.5t29 21.5t13.5 34.5q0 10 -3.5 16.5t-3.5 14.5q0 10 6 16t12 6q11 0 16.5 -4t7.5 -9q3 -6 3 -14zM101 12q-3 -36 -22 -57.5t-40 -32.5q-26 -14 -56 -18q-5 0 -5 6q0 3 13.5 7.5
t29 12.5t29 21.5t13.5 34.5q0 10 -3.5 16.5t-3.5 14.5q0 10 6 16t12 6q11 0 16.5 -4t7.5 -9q3 -6 3 -14z" />
    <glyph glyph-name="quotedblright" unicode="&#x201d;" horiz-adv-x="240" 
d="M216 512q-3 -36 -22 -57.5t-40 -32.5q-26 -14 -56 -18q-5 0 -5 6q0 3 13.5 7.5t29 12.5t29 21.5t13.5 34.5q0 10 -3.5 16.5t-3.5 14.5q0 10 6 16t12 6q11 0 16.5 -4t7.5 -9q3 -6 3 -14zM121 512q-3 -36 -22 -57.5t-40 -32.5q-26 -14 -56 -18q-5 0 -5 6q0 3 13.5 7.5
t29 12.5t29 21.5t13.5 34.5q0 10 -3.5 16.5t-3.5 14.5q0 10 6 16t12 6q11 0 16.5 -4t7.5 -9q3 -6 3 -14z" />
    <glyph glyph-name="quotedblleft" unicode="&#x201c;" horiz-adv-x="240" 
d="M-2 430q3 36 22 57.5t40 32.5q26 14 56 18q5 0 5 -6q0 -3 -13.5 -7.5t-29 -12.5t-29 -21.5t-13.5 -34.5q0 -10 3.5 -16.5t3.5 -14.5q0 -10 -6 -16t-12 -6q-11 0 -16.5 4t-7.5 9q-3 6 -3 14zM93 430q3 36 22 57.5t40 32.5q26 14 56 18q5 0 5 -6q0 -3 -13.5 -7.5t-29 -12.5
t-29 -21.5t-13.5 -34.5q0 -10 3.5 -16.5t3.5 -14.5q0 -10 -6 -16t-12 -6q-11 0 -16.5 4t-7.5 9q-3 6 -3 14z" />
    <glyph glyph-name="quoteright" unicode="&#x2019;" horiz-adv-x="258" 
d="M192 474q0 -20 -6 -37.5t-14 -30.5t-21 -28q-2 -2 -3 -2q-6 0 -6 3t4.5 11t10 18.5t10 23.5t4.5 26q0 15 -6.5 24t-14.5 16t-14.5 13t-6.5 15q0 5 3 10q2 4 6.5 7t12.5 3q12 0 20 -8.5t12.5 -20.5t6.5 -24t2 -19z" />
    <glyph glyph-name="asciitilde" unicode="~" horiz-adv-x="380" 
d="M327 114q0 -8 -6.5 -14.5t-17 -11.5t-23 -8t-24.5 -3q-21 0 -39 6t-35.5 12.5t-35 12.5t-36.5 6q-15 0 -31 -9.5t-25 -9.5l-2 1q0 2 6.5 9t18 14t26.5 12.5t32 5.5q18 0 37 -6.5t37.5 -14t35.5 -14t30 -6.5q23 0 34.5 10.5t14.5 10.5t3 -3z" />
    <glyph glyph-name="DLE" 
 />
    <glyph glyph-name="glyph131" horiz-adv-x="389" 
d="M571 507q0 -23 -20 -60t-52 -79.5t-71 -88t-78 -85.5t-72.5 -71t-53.5 -45q-1 -6 -1.5 -12t-0.5 -11q0 -11 4 -20q3 -8 8.5 -14t16.5 -6q17 0 45.5 12.5t55.5 27.5q32 18 67 39q1 0 1 -1v-4q0 -3 -1.5 -6.5t-7.5 -6.5q-39 -26 -74 -46q-30 -17 -62 -31.5t-52 -14.5
q-24 0 -35.5 13t-9.5 36l1 16q-8 -5 -17 -10.5t-19 -10.5q-10 -6 -21 -13q-10 -6 -23.5 -14t-30.5 -17q3 -11 3 -24q0 -28 -13 -62.5t-34.5 -71t-49.5 -71t-56.5 -61t-56.5 -43t-50 -16.5q-19 0 -19 27q0 8 7.5 29t21.5 52t33.5 70.5t42.5 84.5q-22 -8 -35 -8q-36 0 -36 21
q0 12 12 28.5t31 32t43.5 29t49.5 20.5q32 58 67 117.5t70 114.5t69.5 102.5t65.5 83t58 56t47 20.5q12 0 17 -6.5t5 -15.5q0 -33 -22 -74.5t-56 -86t-74.5 -87.5t-78 -79t-66 -61.5t-38.5 -34.5l-2 -2t-3.5 -5.5t-8 -13t-14.5 -23.5q24 -1 39.5 -8t23.5 -19
q32 17 63.5 34.5t57.5 33.5q9 38 32.5 88t56.5 101.5t71.5 101.5t77 89t73 63t59.5 24q19 0 19 -27zM535 483q-1 13 -4.5 17.5t-8.5 4.5q-16 0 -41 -20t-54.5 -52.5t-60.5 -75t-58 -87.5t-48 -89t-31 -81q17 14 46 40.5t62 60.5t67.5 72.5t62.5 76.5t47 72.5t21 60.5z
M325 468q0 8 -4.5 10t-6.5 2q-10 0 -37 -32t-63.5 -84t-80 -119t-87.5 -139q11 10 36 34t56 55.5t64 68.5t60.5 74t45 71t17.5 59zM36 -14q-6 11 -17 16.5t-31 5.5q-10 -16 -18.5 -31.5t-17.5 -30.5q19 8 40 18.5t44 21.5zM-48 2q-35 -9 -60 -28.5t-25 -33.5t26 -14q4 0 9 1
t11 3q10 18 19 36t20 36zM42 -42q0 7 -1 11q-26 -14 -53.5 -29t-52.5 -26q-22 -41 -40.5 -77.5t-32 -66.5t-21 -52.5t-7.5 -34.5q0 -11 7 -11q14 0 34.5 14.5t43 39t44.5 55t39.5 62t28.5 62t11 53.5z" />
    <glyph glyph-name="Euro" unicode="&#x20ac;" horiz-adv-x="561" 
d="M624 612q0 -34 -14.5 -75t-40 -82t-58.5 -79t-69.5 -67.5t-75 -47.5t-73.5 -18q-25 0 -39.5 12t-14.5 39q0 21 11.5 48.5t30 56t42.5 55.5t49.5 48.5t50.5 34.5t45 13q8 0 8 -6q0 -3 -2 -9q-1 -3 -3 -4q-28 0 -63.5 -25t-66 -60.5t-51.5 -74t-21 -66.5q0 -21 11 -30.5
t30 -9.5q25 0 55 16.5t60.5 43.5t58.5 62.5t49.5 73t34.5 74.5t13 68q0 38 -23 62t-77 24q-48 0 -113 -28t-130 -77.5t-122.5 -117.5t-91.5 -147q41 3 95 3h28q29 0 38.5 -1.5t9.5 -3.5q0 -5 -10 -13t-21 -8q-7 1 -34 1.5t-63 0.5h-28.5t-23.5 -1q-3 -9 -6.5 -18t-5.5 -18
q19 1 41 1.5t46 0.5h28q29 0 38.5 -1.5t9.5 -3.5q0 -5 -10 -13t-21 -8q-7 1 -34 1.5t-63 0.5h-40q-11 -46 -11 -89q0 -45 11 -75t30 -48.5t44.5 -26.5t54.5 -8q40 0 82.5 12t80.5 30t67 38t42 36q8 0 8 -12q0 -11 -28.5 -32.5t-72.5 -43.5t-97 -38t-103 -16q-32 0 -60.5 8.5
t-49.5 29t-33.5 53.5t-12.5 82q0 25 3.5 49.5t9.5 49.5q-18 -1 -36.5 -3t-44.5 -5q-5 0 -5 3t7 10l7 7q1 0 4 1q4 1 17 3q5 1 19.5 2t37.5 3q3 9 6 18.5t7 18.5q-16 -1 -32.5 -3t-38.5 -4q-5 0 -5 3t7 10l7 7q1 0 4 1q4 1 17 3q5 1 17.5 1.5t31.5 2.5q38 85 101.5 157.5
t136.5 125.5t145.5 83t127.5 30q66 0 94.5 -28t28.5 -73z" />
    <glyph glyph-name="onequarter" unicode="&#xbc;" horiz-adv-x="312" 
d="M342 89q0 -3 -1.5 -6t-7.5 -7q-14 -9 -31 -20q-14 -9 -32 -19.5t-38 -21.5q-39 -20 -65.5 -31t-48.5 -22q-49 -84 -89.5 -150t-74.5 -111.5t-63 -69.5t-56 -24q-9 0 -15.5 11.5t-6.5 31.5q0 24 12 59t43 76.5t83 86.5t133 90q5 10 10 18.5t10 16.5q17 30 21.5 39t4.5 10
q-9 -5 -24 -13.5t-32 -16.5t-34 -14t-30 -6q-12 0 -19.5 6t-7.5 22q0 22 26.5 55.5t64 65.5t79.5 55t73 23q11 0 16.5 -3t8.5 -8q4 -5 3 -12q0 -10 -8 -22t-19 -21.5t-22.5 -16t-18.5 -6.5t-7 6q0 2 4 6l3 3q15 14 20 21t5 13q0 7 -4.5 10.5t-10.5 3.5q-18 -1 -46 -20
t-54.5 -44.5t-45 -51.5t-18.5 -41q0 -13 16 -13q11 0 28.5 8.5t34.5 19.5q19 12 41 27q3 2 8 8.5t11 13.5t11.5 12t9.5 5q7 -1 11.5 -3.5t4.5 -10.5q-11 -17 -23 -35t-24 -38q-8 -12 -14 -23.5t-13 -22.5l92 42q20 9 40 20t37 21q19 11 38 23q1 0 1 -1v-4v0zM68 -66
q-66 -40 -110.5 -80.5t-71.5 -77t-38.5 -66.5t-11.5 -49q0 -25 15 -25q14 0 39.5 29t56 73t62.5 96.5t59 99.5z" />
    <glyph glyph-name="afii10019" unicode="&#x412;" horiz-adv-x="731" 
d="M606 134q-17 3 -36.5 5t-40.5 2q-40 0 -85 -9t-89.5 -24t-84.5 -33.5t-71 -37.5t-49 -37t-18 -31q0 -11 16 -18t51 -7q39 0 94 11.5t113 35t111.5 59.5t88.5 84zM741 647q0 -24 -12.5 -51.5t-33 -55t-47 -53.5t-53 -48.5t-52 -40t-44.5 -26.5q31 6 58 6q64 0 97.5 -23.5
t33.5 -65.5q0 -37 -12 -71t-33 -66q31 -9 49.5 -25.5t18.5 -42.5q0 -22 -16 -33.5t-29 -16.5l-4.5 -1.5t-3.5 -0.5q-3 0 -3 3q0 6 7 10q3 2 11.5 11.5t8.5 21.5q0 18 -15 30.5t-41 20.5q-39 -48 -95 -87t-116.5 -66.5t-119 -42.5t-101.5 -15q-58 0 -83.5 11.5t-25.5 30.5
q0 18 19.5 40t53 44.5t78 44.5t95 38.5t104.5 27t105 10.5q48 0 82 -7q14 26 22.5 54.5t8.5 60.5t-29.5 57t-92.5 25q-36 0 -91 -21l-6 -3q-7 -4 -12 -4t-8 4l-1 2q0 2 2.5 5t12.5 8q9 3 32.5 18t53 38t61.5 51.5t58.5 59t43.5 60t17 55.5q0 33 -36.5 54t-125.5 21
q-58 0 -121 -13t-123.5 -35.5t-115.5 -52.5t-96.5 -65t-66 -72.5t-24.5 -74.5q0 -17 11.5 -27.5t35.5 -10.5q34 0 66 8t67.5 26.5t76 48t92.5 72.5l8 8q7 7 14 7q2 0 3 -1q4 -3 4 -6t-2.5 -6.5t-4.5 -7.5q-1 -1 -17 -15.5t-41.5 -36t-59.5 -45.5t-71.5 -45t-77 -34.5
t-75.5 -13.5q-40 0 -55.5 17t-15.5 46q0 43 30 87t79.5 84t114 75t133 60.5t136 40.5t124.5 15q50 0 84.5 -6.5t56 -18.5t31 -28.5t9.5 -35.5zM540 639l-2 -6q-2 -4 -18.5 -32.5t-41.5 -72t-56 -97.5t-62 -107t-59.5 -101t-48.5 -81q-2 -4 -4 -7q-5 -6 -14 -11
q-8 -4 -15.5 -6.5t-12.5 -2.5q-9 0 -9 5q0 2 12.5 24.5t33.5 57.5t47.5 79.5t54 91t54 90.5t47 79t33 56t11.5 22q1 2 5 6t15 9q10 4 18 6q2 1 3 1q2 0 4 1q2 0 4 -2q1 -1 1 -2z" />
    <glyph glyph-name="afii10035" unicode="&#x421;" horiz-adv-x="449" 
d="M665 625q0 -34 -17 -75.5t-46 -84t-66.5 -82.5t-78.5 -71t-82.5 -50t-77.5 -19q-25 0 -39.5 12t-14.5 39q0 21 11.5 48.5t30 56t42.5 55.5t49.5 48.5t50.5 34.5t45 13q8 0 8 -6q0 -1 -2 -9q-1 -2 -3 -4q-19 0 -41.5 -11.5t-45 -30.5t-43 -43t-37 -49.5t-26 -49.5
t-9.5 -42q0 -21 11 -30.5t30 -9.5q26 0 59.5 17.5t68 46.5t67 66t58 76t41 77t15.5 68q0 32 -20.5 52.5t-71.5 20.5q-40 0 -92.5 -20t-107.5 -55.5t-107.5 -85.5t-94 -110t-67 -128t-25.5 -140q0 -45 11 -75t30 -48.5t44.5 -26.5t54.5 -8q40 0 82.5 12t80 30t67 38t42.5 36
q8 0 8 -12q0 -11 -28.5 -32.5t-72.5 -43.5t-97.5 -38t-102.5 -16q-32 0 -60.5 8.5t-49.5 29t-33.5 53.5t-12.5 82q0 77 28 149.5t74 136t104.5 117t120 91.5t120 59t104.5 21q61 0 87.5 -24.5t26.5 -63.5z" />
    <glyph glyph-name="afii10022" unicode="&#x415;" horiz-adv-x="390" 
d="M530 628q-31 -12 -57.5 -27t-46 -30t-31 -28t-11.5 -20q0 -9 16 -9q15 0 34 10t37.5 26.5t34 37t24.5 40.5zM669 670q0 -12 -8 -14q-51 0 -100 -17q-10 -25 -30 -50.5t-45.5 -46.5t-53.5 -34t-54 -13q-27 0 -27 16q0 12 15.5 31t41.5 40t60 41.5t71 35.5q1 1 1 7
q0 20 -14.5 32.5t-49.5 12.5q-31 0 -71 -15t-81.5 -40t-82 -57t-72 -65.5t-51 -66t-19.5 -58.5q0 -28 26.5 -45.5t89.5 -17.5q19 0 51 6.5t66 25.5l2 2q2 2 5 2q4 0 5.5 -5t1.5 -8q0 -8 -7 -11q-10 -4 -36 -16.5t-59.5 -32.5t-69 -46.5t-65.5 -58.5t-49.5 -68.5t-19.5 -76.5
q0 -12 3.5 -27t13.5 -28t29 -21.5t51 -8.5q6 0 27 3t52.5 15t71 35.5t82.5 63.5l5 5q5 5 8 5q6 -2 6 -8q0 -8 -13.5 -22t-36 -30.5t-51.5 -33t-61 -30.5t-64.5 -22.5t-61.5 -8.5q-6 0 -24.5 2t-39 11.5t-36 30t-15.5 56.5q0 32 19.5 70t55.5 76.5t86.5 75t113.5 65.5
q-7 -1 -13.5 -2t-14.5 -3q-14 -2 -28.5 -3.5t-30.5 -1.5q-69 0 -97.5 19t-28.5 51q0 29 21.5 66t57.5 75t82 74.5t94.5 64.5t96 45.5t85.5 17.5q46 0 65.5 -16.5t19.5 -41.5q0 -7 -1 -9q45 14 81 14q5 0 13 -2q6 -2 6 -11z" />
    <glyph glyph-name="afii10020" unicode="&#x413;" horiz-adv-x="286" 
d="M446 615l-2 -6q-1 -4 -21.5 -42t-51.5 -95.5t-68.5 -127.5t-74 -137t-67 -124.5t-47.5 -90.5q-2 -4 -4 -7q-6 -8 -14 -11q-8 -4 -15.5 -6.5t-12.5 -2.5q-9 0 -9 5q0 2 14.5 30t39 72.5t55 101.5t62.5 116t63 115t55 100t38.5 70.5l14.5 26.5q4 4 15 9q4 2 10 4t11 3.5
t7.5 1t1.5 -4.5zM858 687q0 -2 -6.5 -7.5t-19 -12.5t-32 -12t-46.5 -5q-99 0 -157.5 0.5t-89.5 0.5h-48q-91 0 -171 -15.5t-147 -40t-119.5 -56t-89 -63.5t-56 -62.5t-19.5 -52.5q0 -19 15 -30t46 -11q30 0 71 14t85.5 38t88.5 56.5t79 69.5l6 6q5 5 9 5q2 0 2 -4
q0 -3 -1 -4q-13 -30 -48 -68t-83 -71.5t-104 -56.5t-111 -23q-51 0 -74 15.5t-23 41.5q0 28 25 64.5t69.5 75.5t107 76.5t138 67t160.5 47.5t176 18h148q62 0 102 0.5t61.5 1t29.5 1.5q3 1 14 1q12 0 12 -5z" />
    <glyph glyph-name="afii10057" unicode="&#x408;" horiz-adv-x="533" 
d="M287 44q-52 -21 -99.5 -53.5t-88 -70.5t-73 -78.5t-55.5 -77.5t-35.5 -68t-12.5 -50q0 -23 18 -23q25 0 64 35t85 93t96.5 134t100.5 159zM605 609q0 -27 -20.5 -80.5t-55.5 -124t-81.5 -152t-99.5 -164.5q26 7 51.5 11t51.5 4q8 0 17.5 -2t17.5 -6.5t13.5 -11t5.5 -14.5
q0 -16 -5.5 -31.5t-14.5 -27.5t-21.5 -19.5t-26.5 -7.5q-4 0 -4 3q0 9 14 17q8 7 13.5 20t5.5 26q0 11 -6 19t-21 8q-58 0 -109 -16q-59 -93 -120.5 -179.5t-117.5 -154t-102 -108t-73 -40.5q-18 0 -26.5 10.5t-8.5 28.5q0 26 15 63.5t42.5 81t66.5 89.5t86 88t101 77.5
t112 57.5q50 86 95.5 171t80 158t55 127t20.5 77q0 31 -12.5 45t-33.5 14q-31 0 -76.5 -25.5t-96 -66.5t-101 -94t-90.5 -107.5t-65 -107t-25 -92.5q0 -23 12 -36t39 -13q29 0 62 19.5t62 47t50 57t26 49.5q1 7 12 7q5 0 5 -7q0 -27 -27 -62t-66 -66.5t-82 -53.5t-76 -22
q-23 0 -37.5 14t-14.5 46q0 47 27.5 105.5t72 118.5t101 117.5t114 102.5t110.5 72t92 27q31 0 49 -19.5t18 -67.5z" />
    <glyph glyph-name="afii10028" unicode="&#x41a;" horiz-adv-x="527" 
d="M229 331q-5 1 -9 1h-8q-35 0 -67 -7t-56 -19t-38.5 -28t-14.5 -34q0 -31 40 -31q37 0 103 26l50 92v0zM322 311q-24 10 -50 15q-8 -15 -16.5 -30.5t-16.5 -30.5q20 10 40.5 21.5t42.5 24.5zM800 714q-21 -51 -64 -104t-99 -104t-122 -98.5t-133 -86.5q48 -26 78 -75
t30 -130q0 -36 -6.5 -63t-14.5 -45q-12 -23 -22 -35q-8 0 -8 10q0 6 3 12q1 3 3 7q2 6 3.5 12.5t3.5 13.5q3 12 5 27t2 29q0 85 -33 137t-81 79q-65 -35 -120 -60q-39 -72 -72.5 -131t-52.5 -91q-1 -3 -5 -9q-6 -9 -14 -13t-15 -4.5t-12 -0.5q-8 0 -8 4l121 222
q-66 -24 -110 -24q-27 0 -42 10.5t-15 33.5q0 22 21 43t55 37.5t77.5 26.5t88.5 10l177 325q2 4 7.5 8t12.5 6t14 3.5t11 1.5q5 0 5 -4q0 -3 -1 -4t-1 -2q-1 -3 -17 -32.5t-41.5 -76.5t-57.5 -106t-66 -122q39 -5 73 -18q60 37 120.5 82.5t114.5 96t98 103.5t70 106q1 1 1 2
t1 3q2 5 7 5q8 0 19 -4.5t11 -12.5z" />
    <glyph glyph-name="afii10032" unicode="&#x41e;" horiz-adv-x="434" 
d="M598 542q0 -62 -24 -128.5t-64 -129.5t-91 -119t-105 -98t-107 -66.5t-96 -24.5q-49 0 -80 37t-31 121q0 85 27 160.5t68.5 139t91.5 113.5t96.5 85t83 53.5t51.5 18.5q4 0 6 -3q1 -1 1 -3q0 -8 -12 -10q-36 -12 -77.5 -38.5t-83 -64.5t-79.5 -87t-67 -106t-46.5 -121
t-17.5 -133q0 -72 26 -102.5t68 -30.5q37 0 83 22t92.5 60t91 89.5t78.5 110.5t55 123t21 128q0 49 -17 70.5t-46 21.5q-25 0 -57 -15t-64 -41.5t-63 -61t-55 -73t-38.5 -79.5t-14.5 -79q0 -39 14 -56.5t37 -17.5q32 0 72 30t73 82q1 1 1.5 2t1.5 2q4 4 6 4t3 -1q3 -2 3 -5
q0 -12 -19.5 -36.5t-48 -49.5t-61.5 -43.5t-60 -18.5q-26 0 -42.5 20.5t-16.5 74.5q0 39 17.5 83t46.5 87.5t66 84t76 71t77.5 49t69.5 18.5q35 0 57.5 -27.5t22.5 -91.5z" />
    <glyph glyph-name="afii10034" unicode="&#x420;" horiz-adv-x="263" 
d="M672 640q0 -46 -36.5 -102t-98 -112t-142 -106t-167.5 -84q-20 -36 -39.5 -71t-36.5 -65.5t-31.5 -55.5t-25.5 -43q-2 -4 -4 -7q-6 -8 -14 -11q-8 -4 -15.5 -6.5t-12.5 -2.5q-9 0 -9 5l133 238q-29 -9 -58.5 -15.5t-58.5 -9.5q-2 0 -4 5.5t-2 8.5q0 12 11 12q31 2 63 8
t64 17l200 357q4 10 19.5 14.5t23.5 4.5q2 0 4 -2q1 -1 1 -2l-2 -6q-1 -3 -18 -35t-44 -80.5t-61 -109t-68 -121.5q74 30 142.5 74t121.5 93t84.5 98t31.5 88q0 42 -41.5 68.5t-136.5 26.5q-53 0 -114.5 -13.5t-123 -36.5t-118.5 -53.5t-101 -65t-70.5 -71t-26.5 -70.5
q0 -29 19 -42.5t51 -13.5q28 0 62.5 11t71.5 31.5t75.5 48.5t74.5 61q1 3 5 7q6 6 9 6q7 0 7 -7q0 -12 -17 -31t-44.5 -40.5t-63 -44t-73.5 -40.5t-75 -29.5t-67 -11.5q-35 0 -56 18t-21 61q0 36 30.5 76.5t81.5 80.5t116.5 77t136 65t140 44.5t128.5 16.5q101 0 145.5 -29
t44.5 -76z" />
    <glyph glyph-name="afii10039" unicode="&#x425;" horiz-adv-x="490" 
d="M798 692q0 -6 -5 -9q-2 -1 -20 -9.5t-47 -24.5t-67 -41t-81 -59q-20 -16 -41 -32.5t-44 -34.5q-39 -31 -90 -71t-109 -85q-19 -60 -32.5 -107.5t-13.5 -73.5q0 -54 25.5 -87t70.5 -33q26 0 58.5 13t70.5 42q3 2 7 5.5t5 3.5q6 0 6 -5q0 -1 -1 -2q-42 -38 -85.5 -57.5
t-83.5 -19.5q-49 0 -82.5 32.5t-33.5 102.5q0 21 8.5 58.5t22.5 82.5q-67 -52 -133.5 -103.5t-122.5 -94t-97 -72.5t-57 -39q-3 -3 -6 -5q-8 -5 -13 -5q-2 0 -3 1q-2 2 -2 4q0 3 2 7.5t10 9.5q85 54 190.5 139.5t243.5 197.5q12 41 25 82t24 78t18 66.5t7 46.5
q0 58 -27.5 83.5t-87.5 25.5q-48 0 -94.5 -14t-88 -36.5t-76.5 -51t-60.5 -58.5t-40 -58t-14.5 -50q0 -21 14 -33.5t46 -12.5q148 0 284 184q1 1 3 5q3 5 7 5t4 -8q0 -10 -13 -31t-36 -46.5t-53.5 -52.5t-65 -49t-71 -36.5t-71.5 -14.5q-45 0 -65.5 18t-20.5 47q0 27 16 60
t45 67.5t69.5 67.5t89.5 58.5t104.5 41t115.5 15.5q49 0 75 -15.5t38 -34.5q15 -24 16 -50q0 -48 -17.5 -114.5t-38.5 -135.5q58 48 120.5 97t131.5 103q3 2 17 13t34.5 26.5t45 33.5t48 32.5t44 24.5t32.5 10q7 0 12 -6.5t5 -11.5z" />
    <glyph glyph-name="afii10037" unicode="&#x423;" horiz-adv-x="527" 
d="M275 -77q-66 -27 -118 -68.5t-87 -85.5t-53.5 -83.5t-18.5 -61.5q0 -21 15 -21q21 0 50.5 27t64.5 71.5t72.5 102t74.5 119.5zM747 615q0 -5 -3 -9q-3 -5 -17.5 -27.5t-35 -53.5t-43.5 -66.5t-43.5 -67.5t-36 -55.5t-19.5 -30.5q-43 -69 -96 -156t-110 -178
q25 6 50.5 9.5t52.5 3.5q9 0 20 -1t20.5 -4.5t16 -9.5t6.5 -16q0 -14 -8 -23t-18.5 -14t-19.5 -7t-10 -2q-7 0 -7 3t3 4.5l5 2.5q1 1 5.5 3.5t9.5 6t9 7.5t4 8q0 9 -14 11.5t-25 2.5q-66 0 -120 -16q-48 -75 -96 -144t-91.5 -122t-81 -84.5t-65.5 -31.5q-26 0 -26 32
q0 30 23.5 80t67 104t104.5 103t136 78q29 48 56 94.5t50 88t42 74.5t32 54q-29 -32 -58 -60.5t-58 -54.5q-25 -22 -51.5 -42.5t-53.5 -37t-53 -26.5t-48 -10q-7 0 -17.5 2t-20 8t-16.5 18t-7 32q0 40 19 82.5t47 86t61 87t61 85.5t47 82t19 76q0 58 -27.5 83.5t-87.5 25.5
q-48 0 -94.5 -14t-88 -36.5t-76.5 -51t-60.5 -58.5t-40 -58t-14.5 -50q0 -21 14 -33.5t46 -12.5q148 0 284 184q1 2 1.5 2.5t1.5 2.5q3 5 7 5t4 -8q0 -10 -13 -31t-36 -46.5t-53.5 -52.5t-65 -49t-71 -36.5t-71.5 -14.5q-45 0 -65.5 18t-20.5 47q0 27 16 60.5t45 68.5
t69.5 68t89.5 59t104.5 41.5t115.5 15.5q49 0 75 -15.5t38 -35.5q15 -24 16 -52q0 -48 -19 -96.5t-48 -96t-62 -93t-62 -87t-48 -79t-19 -68.5q0 -17 10 -29t30 -12q24 0 54.5 16t64 41t67 55t62.5 59t51 52.5t33 35.5q16 17 26.5 30.5t18.5 23.5q2 2 14 20.5t30 45.5
t38.5 58t38 58t29.5 45t13 20q2 4 5.5 7.5t8.5 3.5q6 -1 15 -4t9 -11z" />
    <glyph glyph-name="afii10025" unicode="&#x417;" horiz-adv-x="682" 
d="M407 -33q-72 -32 -138.5 -80.5t-118 -100t-82 -97.5t-30.5 -73q0 -20 20 -20q17 0 44.5 14t61 39t69 59t69 75.5t61 88t44.5 95.5zM342 175q-17 3 -36 3q-33 0 -70.5 -11t-68.5 -27t-51.5 -33t-20.5 -29q0 -8 9 -12t30 -4q42 0 96.5 31t111.5 82zM661 623q0 -44 -22 -98
t-59.5 -111t-86 -113.5t-101.5 -105.5q40 -11 58 -39t18 -67t-12 -79q75 29 142 29q32 0 44.5 -10t12.5 -24q0 -13 -6 -23.5t-14.5 -18t-18.5 -11.5t-18 -4q-2 0 -5 2t-3 4q0 5 8 7q1 0 6.5 3t11.5 7t10.5 9t4.5 10q0 6 -7 10q-5 3 -17.5 5.5t-30.5 2.5q-63 0 -129 -25
q-19 -50 -50.5 -101t-69.5 -98t-79.5 -88t-81 -71t-74 -47.5t-57.5 -17.5q-35 0 -35 42q0 32 35.5 83.5t94 108t133 110t152.5 89.5q5 21 8.5 42.5t3.5 43.5q0 33 -15 56.5t-49 34.5q-69 -60 -136.5 -97t-118.5 -37q-55 0 -55 25q0 17 26 41.5t67 46.5t91.5 37.5t100.5 15.5
q8 0 16 -0.5t15 -1.5q48 45 92 97.5t77.5 106.5t54 105t20.5 93q0 50 -33.5 80.5t-113.5 30.5q-46 0 -93.5 -14t-92.5 -37.5t-84 -52.5t-68.5 -59.5t-46.5 -59.5t-17 -51q0 -32 14.5 -45t38.5 -13t54.5 11t62.5 28.5t63 39t56.5 43.5t42.5 42t21 34q2 11 7 11q4 0 4 -8
q0 -18 -16.5 -43.5t-44 -52.5t-62.5 -53.5t-72 -47t-72.5 -33.5t-63.5 -13q-30 0 -48.5 16.5t-18.5 58.5q0 28 18.5 63t51 71t77 70.5t97 61t110.5 43t118 16.5q86 0 122.5 -32t36.5 -84z" />
    <glyph glyph-name="afii10029" unicode="&#x41b;" horiz-adv-x="578" 
d="M389 138q19 39 43.5 90t50.5 106.5t51 110.5t44.5 101t31.5 79t12 44q0 7 -2.5 12t-9.5 5q-15 0 -49 -35.5t-79 -92t-97.5 -126t-103.5 -137.5q-9 -13 -24 -32t-30.5 -39.5t-30 -38.5t-23.5 -30q-36 -45 -74 -85t-69 -71q-18 -18 -36 -34.5t-35 -32.5q-5 -4 -10.5 -2.5
t-11 5.5t-9 9.5t-3.5 11.5q0 2 2 4q55 42 108.5 95.5t107.5 114.5q12 13 28.5 33t34 41.5t33.5 42t27 34.5q60 75 114 146t100.5 125.5t84 88t64.5 33.5q19 0 24.5 -10.5t5.5 -21.5q0 -30 -22 -90t-55.5 -135.5t-74 -158.5t-77.5 -159q-38 -79 -41 -116.5t20 -37.5
q17 0 45.5 12.5t55.5 27.5q16 9 33 18.5t34 20.5q1 0 1 -1v-4q0 -3 -1.5 -6.5t-7.5 -6.5q-20 -13 -38.5 -24.5t-35.5 -21.5q-30 -17 -62 -31.5t-52 -14.5q-35 0 -35 44q0 22 8.5 55.5t34.5 84.5z" />
    <glyph glyph-name="afii10058" unicode="&#x409;" horiz-adv-x="780" 
d="M501 284q-26 -51 -45 -104.5t-19 -107.5q0 -49 17 -70.5t46 -21.5q25 0 57 15t64 41.5t63 61t55 73t38.5 79.5t14.5 79q0 39 -14 56.5t-37 17.5q-32 0 -70 -31.5t-75 -80.5q-6 -8 -9 -8q-6 0 -6 6q0 12 19.5 36.5t48 49.5t61.5 43.5t60 18.5q26 0 42.5 -20.5t16.5 -74.5
q0 -39 -17.5 -83t-46.5 -87.5t-66 -84t-76 -71t-77.5 -49t-69.5 -18.5q-35 0 -57.5 27.5t-22.5 91.5q0 45 12.5 92t35.5 94q29 62 60.5 129.5t57.5 126.5t43 102.5t17 56.5q0 7 -2.5 12t-9.5 5q-15 0 -49 -35.5t-79 -92t-97.5 -126t-103.5 -137.5q-9 -13 -24 -32
t-30.5 -39.5t-30 -38.5t-23.5 -30q-36 -45 -74 -85t-69 -71q-18 -18 -36 -34.5t-35 -32.5q-5 -4 -10.5 -2.5t-11 5.5t-9 9.5t-3.5 11.5q0 2 2 4q55 42 108.5 95.5t107.5 114.5q12 13 28.5 33t34 42t33.5 42t27 34q60 75 114 146t100.5 125.5t84 88t64.5 33.5
q19 0 24.5 -10.5t5.5 -21.5q0 -23 -13.5 -64.5t-35.5 -95t-50.5 -114.5t-58.5 -124z" />
    <glyph glyph-name="glyph147" horiz-adv-x="781" 
d="M401 140q-35 -2 -78.5 -7t-88 -13t-87.5 -19t-76 -25.5t-53 -32t-20 -38.5q0 -41 48 -41q36 0 78.5 13.5t89 37t94 55.5t93.5 70zM756 67q0 -10 -6 -23t-16 -26t-24 -23.5t-30 -15.5q-9 -4 -15 -4q-12 0 -7 9q4 6 16 10q8 4 15.5 8t14.5 9q11 8 20 19t9 24q0 22 -21 37.5
t-53.5 25t-70 15t-71 7.5t-57 2.5t-27.5 0.5q-50 -42 -103.5 -77.5t-106.5 -62t-103.5 -41t-95.5 -14.5q-32 0 -50 13t-18 41q0 33 38 64.5t102.5 56t148 39.5t175.5 15h24q51 45 95.5 94t77.5 98t52 95t19 84q0 55 -45.5 88.5t-150.5 33.5q-52 0 -105.5 -16t-103.5 -42
t-94 -59t-76.5 -66.5t-51.5 -64.5t-19 -53q0 -18 13.5 -28.5t43.5 -10.5q32 0 79.5 19t98 51t96.5 73t75 85q6 8 9 8q5 0 5.5 -6t0.5 -10q0 -19 -17.5 -45.5t-47.5 -55.5t-68.5 -57t-81.5 -50t-86.5 -36t-82.5 -14q-42 0 -59.5 14t-17.5 38q0 27 22 64.5t60 77t90 78t111 69
t123 49.5t127 19q103 0 147.5 -35.5t44.5 -92.5q0 -41 -19.5 -89.5t-54 -100.5t-81 -104.5t-100.5 -101.5q78 -2 132 -12t88 -25t49 -34t15 -38z" />
    <glyph glyph-name="afii10059" unicode="&#x40a;" horiz-adv-x="722" 
d="M398 120q-18 -35 -27.5 -61.5t-9 -44.5t13.5 -27t42 -9q28 0 62.5 15.5t70.5 41.5t70 61t60.5 74t42.5 80t16 79q0 39 -14 56.5t-37 17.5q-32 0 -70 -31.5t-75 -80.5q-6 -8 -9 -8q-6 0 -6 6q0 12 19.5 36.5t48 49.5t61.5 43.5t60 18.5q26 0 42.5 -20.5t16.5 -74.5
q0 -39 -17.5 -83t-46.5 -87.5t-66 -84t-76 -71t-77.5 -49t-69.5 -18.5q-55 0 -76 18.5t-17 52.5t28 83t60 111q-23 -18 -47.5 -33t-53 -24.5t-60.5 -11.5t-68 7q-30 -54 -62.5 -111.5t-72.5 -129.5q1 1 -2.5 -2.5t-10 -7.5t-14 -7.5t-13.5 -3.5q-9 0 -9 10q0 7 4 14
q1 2 12.5 22.5t31 55t45 79.5t54.5 96q-30 15 -58 34t-51.5 39t-40.5 40t-24 38q-3 6 1 7t9 -4l6 -6q35 -42 79.5 -75t89.5 -56q16 29 42.5 75.5t56.5 99t60 105.5t54 95.5t39 68.5l15 26q2 2 4.5 4t4.5 4q5 3 12 5.5t18 2.5q7 0 7 -5q0 -1 -1 -3.5t-7.5 -14t-19.5 -35.5
t-37.5 -67.5t-62 -110t-91.5 -162.5q-5 -9 -13 -22.5t-16 -28.5t-16 -29t-13 -23q38 -8 71 -3.5t62.5 16.5t55.5 30.5t50 39.5q36 71 74.5 142t72.5 132.5t60 108t38 69.5q4 7 11 13.5t30 8.5q8 0 8 -6q0 -5 -8 -19q-1 -3 -18.5 -34t-45 -79.5t-62.5 -110t-70.5 -125
t-69.5 -124t-60 -108.5z" />
    <glyph glyph-name="afii10033" unicode="&#x41f;" horiz-adv-x="581" 
d="M425 120q-15 -29 -24.5 -54t-12 -43t3 -28t20.5 -10q17 0 45.5 12.5t55.5 27.5q16 9 33 18.5t34 20.5q1 0 1 -1v-4q0 -3 -1.5 -6.5t-7.5 -6.5q-20 -13 -38.5 -24.5t-35.5 -21.5q-30 -17 -62 -31.5t-52 -14.5q-24 0 -31.5 17.5t-4.5 43t13 54t22 51.5q35 71 73 146
t71 141.5t58.5 117t36.5 73.5q3 7 10.5 13.5t30.5 8.5q8 0 8 -6q0 -5 -8 -19q-1 -3 -12.5 -26t-29.5 -60t-42 -84.5t-50 -99t-53 -104.5t-51 -101zM446 615l-2 -6q-1 -4 -21.5 -42t-51.5 -95.5t-68.5 -127.5t-74 -137t-67 -124.5t-47.5 -90.5q-2 -4 -4 -7q-6 -8 -14 -11
q-8 -4 -15.5 -6.5t-12.5 -2.5q-9 0 -9 5q0 2 14.5 30t39 72.5t55 101.5t62.5 116t63 115t55 100t38.5 70.5l14.5 26.5q4 4 15 9q4 2 10 4t11 3.5t7.5 1t1.5 -4.5zM858 687q0 -2 -6.5 -7.5t-19 -12.5t-32 -12t-46.5 -5q-99 0 -157.5 0.5t-89.5 0.5h-48q-91 0 -171 -15.5
t-147 -40t-119.5 -56t-89 -63.5t-56 -62.5t-19.5 -52.5q0 -19 15 -30t46 -11q30 0 71 14t85.5 38t88.5 56.5t79 69.5l6 6q5 5 9 5q2 0 2 -4q0 -3 -1 -4q-13 -30 -48 -68t-83 -71.5t-104 -56.5t-111 -23q-51 0 -74 15.5t-23 41.5q0 28 25 64.5t69.5 75.5t107 76.5t138 67
t160.5 47.5t176 18h148q62 0 102 0.5t61.5 1t29.5 1.5q3 1 14 1q12 0 12 -5z" />
    <glyph glyph-name="afii10036" unicode="&#x422;" horiz-adv-x="671" 
d="M615 615l-2 -6q-1 -4 -21.5 -42t-51.5 -95.5t-68.5 -127.5t-74 -137t-67 -124.5t-47.5 -90.5q-2 -4 -4 -7q-6 -8 -14 -11q-8 -4 -15.5 -6.5t-12.5 -2.5q-9 0 -9 5q0 2 14.5 30t39 72.5t55 101.5t62.5 116t63 115t55 100t38.5 70.5l14.5 26.5q4 4 15 9q4 2 10 4t11 3.5
t7.5 1t1.5 -4.5zM515 120q-15 -29 -24.5 -54t-12 -43t3 -28t20.5 -10q17 0 45.5 12.5t55.5 27.5q16 9 33 18.5t34 20.5q1 0 1 -1v-4q0 -3 -1.5 -6.5t-7.5 -6.5q-20 -13 -38.5 -24.5t-35.5 -21.5q-30 -17 -62 -31.5t-52 -14.5q-24 0 -31.5 17.5t-4.5 43t13 54t22 51.5
q35 71 73 146t71 141.5t58.5 117t36.5 73.5q3 7 10.5 13.5t30.5 8.5q8 0 8 -6q0 -5 -8 -19q-1 -3 -12.5 -26t-29.5 -60t-42 -84.5t-50 -99t-53 -104.5t-51 -101zM446 615l-2 -6q-1 -4 -21.5 -42t-51.5 -95.5t-68.5 -127.5t-74 -137t-67 -124.5t-47.5 -90.5q-2 -4 -4 -7
q-6 -8 -14 -11q-8 -4 -15.5 -6.5t-12.5 -2.5q-9 0 -9 5q0 2 14.5 30t39 72.5t55 101.5t62.5 116t63 115t55 100t38.5 70.5l14.5 26.5q4 4 15 9q4 2 10 4t11 3.5t7.5 1t1.5 -4.5zM878 687q0 -2 -6.5 -7.5t-19 -12.5t-32 -12t-46.5 -5q-100 0 -168 0.5t-99 0.5h-48
q-91 0 -171 -15.5t-147 -40t-119.5 -56t-89 -63.5t-56 -62.5t-19.5 -52.5q0 -19 15 -30t46 -11q30 0 71 14t85.5 38t88.5 56.5t79 69.5l6 6q5 5 9 5q2 0 2 -4q0 -3 -1 -4q-13 -30 -48 -68t-83 -71.5t-104 -56.5t-111 -23q-51 0 -74 15.5t-23 41.5q0 28 25 64.5t69.5 75.5
t107 76.5t138 67t160.5 47.5t176 18q175 0 260 0.5t101 2.5q3 1 14 1q12 0 12 -5z" />
    <glyph glyph-name="afii10030" unicode="&#x41c;" horiz-adv-x="918" 
d="M455 139q7 8 14 15.5t14 15.5q12 13 28.5 33t34 42t33.5 42t27 34q60 75 114 146t100.5 125.5t84 88t64.5 33.5q19 0 24.5 -10.5t5.5 -21.5q0 -30 -22 -90t-55.5 -135.5t-74 -158.5t-77.5 -159q-38 -79 -41 -116.5t20 -37.5q17 0 45.5 12.5t55.5 27.5q16 9 33 18.5
t34 20.5q1 0 1 -1v-4q0 -3 -1.5 -6.5t-7.5 -6.5q-20 -13 -38.5 -24.5t-35.5 -21.5q-30 -17 -62 -31.5t-52 -14.5q-35 0 -35 44q0 22 8.5 55.5t34.5 84.5q19 39 43.5 90t50.5 106.5t51 110.5t44.5 101t31.5 79t12 44q0 7 -2.5 12t-9.5 5q-15 0 -49 -35.5t-79 -92t-97.5 -126
t-103.5 -137.5q-9 -13 -24 -32t-30.5 -39.5t-30 -38.5t-23.5 -30q-8 -10 -15.5 -19t-15.5 -18q-24 -24 -45 -31t-35 -1.5t-18.5 20t5.5 32.5q19 39 43.5 90t50.5 106.5t51 110.5t44.5 101t31.5 79t12 44q0 7 -2.5 12t-9.5 5q-15 0 -49 -35.5t-79 -92t-97.5 -126
t-103.5 -137.5q-9 -13 -24 -32t-30.5 -39.5t-30 -38.5t-23.5 -30q-36 -45 -74 -85t-69 -71q-18 -18 -36 -34.5t-35 -32.5q-5 -4 -10.5 -2.5t-11 5.5t-9 9.5t-3.5 11.5q0 2 2 4q55 42 108.5 95.5t107.5 114.5q12 13 28.5 33t34 42t33.5 42t27 34q60 75 114 146t100.5 125.5
t84 88t64.5 33.5q19 0 24.5 -10.5t5.5 -21.5q0 -30 -22 -90t-55.5 -135.5t-74 -158.5t-77.5 -159q-8 -17 1.5 -16t23.5 16z" />
    <glyph glyph-name="afii10041" unicode="&#x427;" horiz-adv-x="531" 
d="M539 464q-31 -35 -59.5 -65.5t-57.5 -58.5q-24 -23 -49 -45.5t-50 -40t-48.5 -28.5t-44.5 -11q-26 0 -41 17.5t-15 35.5q0 35 23.5 84t57.5 105q24 42 39.5 77.5t15.5 61.5q0 22 -9.5 38t-24.5 26.5t-34.5 15.5t-38.5 5q-47 0 -94.5 -14t-92 -36.5t-83.5 -51t-68 -58.5
t-45.5 -58.5t-16.5 -50.5q0 -21 18 -34t57 -13q41 0 82 16.5t80 44t74 63t64 74.5q2 3 4.5 6t6.5 2q5 -1 5 -8q0 -11 -15 -33.5t-40 -49t-58 -54.5t-69 -51t-73.5 -37.5t-70.5 -14.5q-51 0 -73 18t-22 47q0 27 17 60t47 67t71 66.5t89.5 57.5t102 40.5t108.5 15.5
q25 0 51 -5t47 -17.5t34 -34t13 -55.5q0 -22 -14 -54.5t-37 -71.5q-34 -55 -57.5 -102.5t-23.5 -79.5q0 -10 7.5 -21.5t24.5 -11.5q15 0 36.5 12.5t47 32.5t52.5 45.5t53 52.5q31 31 62.5 66.5t65.5 75.5q49 60 89 122q3 3 9 4.5t23 -0.5q6 0 6 -4q0 -1 -10 -17t-27.5 -43
t-40.5 -62.5t-48.5 -75t-52 -80.5t-50.5 -79q-37 -58 -61 -100.5t-37.5 -72.5t-18.5 -49t-5 -31q0 -9 2.5 -14t5.5 -7q4 -3 8 -3q17 0 45.5 12.5t55.5 27.5q16 9 33 18.5t34 20.5q1 0 1 -1v-4q0 -3 -1.5 -6.5t-7.5 -6.5q-20 -13 -38.5 -24.5t-35.5 -21.5q-30 -17 -62 -31.5
t-52 -14.5q-35 0 -35 44q0 70 103 228z" />
    <glyph glyph-name="afii10040" unicode="&#x426;" horiz-adv-x="563" 
d="M405 -75q-51 -17 -92.5 -47t-70.5 -64t-45 -65t-16 -49q0 -17 16 -17q14 0 36 19t49 51.5t58.5 76.5t64.5 95zM362 15q8 0 28.5 9.5t44.5 23.5t48 31.5t40 32.5q14 -2 14 -11q0 -2 -1 -4l-2 -4q-9 -20 -14 -33t-12 -25.5t-16.5 -30t-27.5 -46.5q19 3 38 3q48 0 48 -21
q0 -6 -5.5 -14.5t-13 -16t-16 -12.5t-14.5 -5q-2 0 -5 1.5t-3 4.5t3.5 5t7.5 4.5t7.5 6.5t3.5 11q0 8 -5.5 11t-12.5 3q-10 0 -21.5 -1t-25.5 -3q-35 -53 -71.5 -102.5t-71.5 -88.5t-67 -62.5t-59 -23.5q-17 0 -25.5 8t-8.5 22q0 23 18.5 60.5t53.5 76.5t86 73t116 52
q10 15 16.5 25.5t13 22t15 27.5t23.5 43q-12 -10 -31.5 -24.5t-41.5 -27.5t-44 -22.5t-38 -9.5q-35 0 -35 44q0 35 24.5 92.5t78.5 135.5q-31 -35 -58 -65.5t-56 -58.5q-24 -23 -49.5 -45.5t-50.5 -40t-49 -28.5t-46 -11q-26 0 -38 17.5t-12 35.5q0 32 20 76t49.5 94
t64 102.5t64 101.5t49.5 91t20 71q0 22 -9.5 38t-24.5 26.5t-34.5 15.5t-38.5 5q-47 0 -94.5 -14t-92 -36.5t-83.5 -51t-68 -58.5t-45.5 -58.5t-16.5 -50.5q0 -21 18 -34t57 -13q41 0 82.5 16.5t80.5 43.5t74 63t63 75q1 1 1.5 2t1.5 2q4 4 8 4q5 0 5 -8q0 -12 -15 -34
t-40 -48.5t-58 -54.5t-69 -51t-73.5 -37.5t-70.5 -14.5q-51 0 -73 18t-22 47q0 27 17 60t47 67t71 66.5t89.5 57.5t102 40.5t108.5 15.5q25 0 51 -5t47 -17.5t34 -34t13 -55.5q0 -26 -19.5 -66.5t-48.5 -88.5t-63.5 -99.5t-63.5 -100t-48.5 -90.5t-19.5 -71q0 -10 4.5 -21.5
t21.5 -11.5q15 0 36.5 12.5t47 32.5t52.5 45.5t53 52.5q31 31 62.5 66.5t65.5 75.5q26 31 47.5 61t41.5 61q19 30 33 52t30 47q12 18 23.5 35.5t20.5 31.5t14.5 22.5t6.5 9.5q3 3 9 4.5t23 -0.5q6 0 6 -4q0 -1 -20.5 -34t-53 -83t-71.5 -111t-75 -119q-37 -59 -61 -101
t-37.5 -72t-18.5 -49t-5 -31q0 -24 16 -24z" />
    <glyph glyph-name="afii10145" unicode="&#x40f;" horiz-adv-x="533" 
d="M71 -123q-51 -19 -92.5 -55t-71 -75.5t-45.5 -76.5t-16 -58t16 -21q14 0 36 22.5t49.5 61t59 90.5t64.5 112zM87 -93q17 31 33.5 60t32.5 58q-16 -8 -31 -13t-29 -5q-26 0 -38 17.5t-12 35.5q0 32 20 76t49.5 94t64 102.5t64 101.5t49.5 91t20 71q0 22 -9.5 38
t-24.5 26.5t-34.5 15.5t-38.5 5q-47 0 -94.5 -14t-92 -36.5t-83.5 -51t-68 -58.5t-45.5 -58.5t-16.5 -50.5q0 -21 18 -34t57 -13q41 0 82.5 16.5t80.5 43.5t74 63t63 75q1 1 1.5 2t1.5 2q4 4 8 4q5 0 5 -8q0 -11 -15 -33.5t-40 -49t-58 -54.5t-69 -51t-73.5 -37.5
t-70.5 -14.5q-51 0 -73 18t-22 47q0 27 17 60t47 67t71 66.5t89.5 57.5t102 40.5t108.5 15.5q25 0 51 -5t47 -17.5t34 -34t13 -55.5q0 -26 -19.5 -66.5t-48.5 -88.5t-63.5 -99.5t-63.5 -100t-48.5 -90.5t-19.5 -71q0 -10 4.5 -21.5t21.5 -11.5q11 0 24.5 6t30.5 17
q17 33 30.5 66t22.5 69q13 1 16 -8q4 -18 -1 -39.5t-16 -45.5q20 17 41 37t41 41q31 31 62.5 66.5t65.5 75.5q26 31 47.5 61t41.5 61l9.5 15t23.5 37t30.5 47t30.5 47t23.5 36.5t10.5 15.5q3 3 9 4.5t23 -0.5q6 0 6 -4q0 -1 -9.5 -16t-26 -41t-38 -60t-46 -72.5t-50.5 -79
t-50 -78.5q-37 -58 -61 -100.5t-37.5 -72.5t-18.5 -49t-5 -31q0 -11 4 -17.5t12 -6.5q17 0 45.5 12.5t55.5 27.5q16 9 33 18.5t34 20.5q1 0 1 -1v-4q0 -3 -1.5 -6.5t-7.5 -6.5q-20 -13 -38.5 -24.5t-35.5 -21.5q-30 -17 -62 -31.5t-52 -14.5q-35 0 -35 44q0 35 24.5 92.5
t78.5 135.5q-31 -35 -58 -65.5t-56 -58.5q-20 -20 -41.5 -39t-43.5 -36q-17 -33 -38.5 -68.5t-38.5 -71.5q19 3 38 3q48 0 48 -25q0 -8 -5.5 -17.5t-13 -18.5t-16 -15t-14.5 -6q-2 0 -5 2t-3 5q0 4 3.5 6.5t7.5 5.5t7.5 8t3.5 13q0 10 -5.5 13t-12.5 3q-11 0 -23 -1t-25 -4
q-35 -62 -70.5 -121t-70 -104.5t-66 -73.5t-58.5 -28q-17 0 -25.5 9.5t-8.5 25.5q0 28 22 72.5t60 90.5t87.5 86.5t105.5 60.5z" />
    <glyph glyph-name="afii10060" unicode="&#x40b;" horiz-adv-x="635" 
d="M418 32q0 26 11 56t27 61.5t34.5 63.5t34.5 62.5t26.5 58.5t10.5 51q0 10 -7.5 21.5t-24.5 11.5q-15 0 -36.5 -12.5t-47 -32.5t-52.5 -45.5t-53 -52.5q-31 -31 -62.5 -66.5t-65.5 -75.5q-49 -60 -89 -122q-2 -5 -5 -10t-5 -9q-6 -11 -20.5 -19t-25.5 -8q-9 0 -9 5
q0 2 14.5 30t39 72.5t55 101.5t62.5 116t63 115t55 100t38.5 70.5l14.5 26.5q4 4 15 9q4 2 10 4t11 3.5t7.5 1t1.5 -4.5l-2 -6q-1 -3 -13 -25.5t-31.5 -58.5t-44.5 -82.5t-52.5 -97.5t-55.5 -103.5t-53 -99.5q15 17 37 42t45.5 50.5t45 48.5t35.5 37q24 23 49.5 45.5t51 40
t50 28.5t45.5 11q26 0 41 -17.5t15 -35.5q0 -29 -16 -67.5t-38 -80t-45 -82t-36.5 -72.5t-13.5 -52q0 -19 25 -19q17 0 45.5 12.5t55.5 27.5q16 9 33 18.5t34 20.5q1 0 1 -1v-4q0 -3 -1.5 -6.5t-7.5 -6.5q-20 -13 -38.5 -24.5t-35.5 -21.5q-30 -17 -62 -31.5t-52 -14.5
q-17 0 -28 11t-11 33zM858 687q0 -2 -6.5 -7.5t-19 -12.5t-32 -12t-46.5 -5q-99 0 -157.5 0.5t-89.5 0.5h-48q-91 0 -171 -15.5t-147 -40t-119.5 -56t-89 -63.5t-56 -62.5t-19.5 -52.5q0 -19 15 -30t46 -11q30 0 71 14t85.5 38t88.5 56.5t79 69.5l6 6q5 5 9 5q2 0 2 -4
q0 -3 -1 -4q-13 -30 -48 -68t-83 -71.5t-104 -56.5t-111 -23q-51 0 -74 15.5t-23 41.5q0 28 25 64.5t69.5 75.5t107 76.5t138 67t160.5 47.5t176 18h148q62 0 102 0.5t61.5 1t29.5 1.5q3 1 14 1q12 0 12 -5z" />
    <glyph glyph-name="afii10051" unicode="&#x402;" horiz-adv-x="651" 
d="M402 44q-52 -21 -99.5 -53.5t-88 -70.5t-73 -78.5t-55.5 -77.5t-35.5 -68t-12.5 -50q0 -23 18 -23q25 0 64 35t85 93t96.5 134t100.5 159zM493 204q30 55 49.5 102t19.5 79q0 10 -7.5 21.5t-24.5 11.5q-15 0 -36.5 -12.5t-47 -32.5t-52.5 -45.5t-53 -52.5
q-31 -31 -62.5 -66.5t-65.5 -75.5q-49 -60 -89 -122q-2 -5 -5 -10t-5 -9q-6 -11 -20.5 -19t-25.5 -8q-9 0 -9 5q0 2 14.5 30t39 72.5t55 101.5t62.5 116t63 115t55 100t38.5 70.5l14.5 26.5q4 4 15 9q4 2 10 4t11 3.5t7.5 1t1.5 -4.5l-2 -6q-1 -3 -13 -25.5t-31.5 -58.5
t-44.5 -82.5t-52.5 -97.5t-55.5 -103.5t-53 -99.5q15 17 37 42t45.5 50.5t45 48.5t35.5 37q24 23 49.5 45.5t51 40t50 28.5t45.5 11q26 0 41 -17.5t15 -35.5q0 -35 -20.5 -84t-54.5 -105q-17 -29 -34.5 -57.5t-36.5 -57.5q26 7 51.5 11t51.5 4q8 0 17.5 -2t17.5 -6.5
t13.5 -11t5.5 -14.5q0 -16 -5.5 -31.5t-14.5 -27.5t-21.5 -19.5t-26.5 -7.5q-4 0 -4 3q0 9 14 17q8 7 13.5 20t5.5 26q0 11 -6 19t-21 8q-58 0 -109 -16q-59 -93 -120.5 -179.5t-117.5 -154t-102 -108t-73 -40.5q-18 0 -26.5 10.5t-8.5 28.5q0 26 15 63.5t42.5 81t66.5 89.5
t86 88t101 77.5t112 57.5q19 32 37.5 65t35.5 65zM858 687q0 -2 -6.5 -7.5t-19 -12.5t-32 -12t-46.5 -5q-99 0 -157.5 0.5t-89.5 0.5h-48q-91 0 -171 -15.5t-147 -40t-119.5 -56t-89 -63.5t-56 -62.5t-19.5 -52.5q0 -19 15 -30t46 -11q30 0 71 14t85.5 38t88.5 56.5t79 69.5
l6 6q5 5 9 5q2 0 2 -4q0 -3 -1 -4q-13 -30 -48 -68t-83 -71.5t-104 -56.5t-111 -23q-51 0 -74 15.5t-23 41.5q0 28 25 64.5t69.5 75.5t107 76.5t138 67t160.5 47.5t176 18h148q62 0 102 0.5t61.5 1t29.5 1.5q3 1 14 1q12 0 12 -5z" />
    <glyph glyph-name="afii10065" unicode="&#x430;" horiz-adv-x="303" 
d="M237 171q0 -18 -13.5 -36.5t-29.5 -36.5t-29.5 -36.5t-13.5 -36.5q0 -10 13 -10q17 0 45.5 12.5t55.5 27.5q16 9 33 18.5t34 20.5q1 0 1 -1v-4q0 -3 -1.5 -6.5t-7.5 -6.5q-20 -13 -38.5 -24.5t-35.5 -21.5q-30 -17 -62 -31.5t-52 -14.5q-16 0 -21 8.5t-5 17.5q0 5 1 9
l2 8q1 2 1 3q0 2 1 4q0 -2 -10.5 -8.5t-26 -14t-33 -13.5t-31.5 -6q-30 0 -30 25q0 31 25 63.5t59.5 59t72 43t63.5 16.5q15 0 24 -7t9 -21zM54 26q15 0 40.5 15t49.5 36t42 44.5t18 40.5q0 15 -16 15t-42 -13.5t-51 -34t-43 -44t-18 -43.5q0 -16 20 -16z" />
    <glyph glyph-name="afii10067" unicode="&#x432;" horiz-adv-x="222" 
d="M136 102q-8 -1 -17 -1h-16h-17q-8 0 -16 2q-2 -2 -3.5 -3t-2.5 -2q-19 -45 -19 -71q0 -8 6.5 -12t11.5 -4q13 0 26 7.5t23 20.5t16.5 29t7.5 34zM81 191q-23 12 -43 12q-17 0 -24.5 -6t-7.5 -15q0 -21 10.5 -34.5t28.5 -21.5q8 15 16.5 31.5t19.5 33.5zM135 117
q-1 9 -3.5 17t-6.5 15q-10 -10 -19.5 -17.5t-18.5 -14.5q5 -1 10 -1h12h12q7 0 14 1zM116 162q-3 4 -6.5 7.5l-6.5 6.5q-7 -13 -13.5 -24.5t-11.5 -22.5q9 7 18 15t20 18zM397 504q-1 13 -4.5 17.5t-8.5 4.5q-14 0 -45 -30t-69.5 -77t-79 -105t-73.5 -113q6 -4 11 -9l10 -10
q39 36 83.5 81.5t82.5 90t64 84.5t29 66zM433 528q0 -26 -28 -70t-70.5 -95t-92.5 -102.5t-95 -92.5q11 -20 11 -45v-3q32 5 61.5 14.5t46.5 21.5q3 3 8 3t5 -4q0 -3 -7 -9q-22 -14 -52.5 -25t-62.5 -16q-3 -24 -13.5 -47t-26.5 -40.5t-35.5 -28.5t-40.5 -11q-15 0 -24.5 11
t-9.5 37q0 28 29 84q-25 8 -40 24.5t-15 42.5q0 18 17 31t54 13q18 0 42 -8q36 58 80 119t88.5 110.5t84.5 81t67 31.5q19 0 19 -27z" />
    <glyph glyph-name="afii10083" unicode="&#x441;" horiz-adv-x="226" 
d="M256 89q0 -3 -1.5 -6t-7.5 -7q-15 -11 -33 -21q-15 -9 -33.5 -20t-38.5 -22q-20 -10 -47 -18.5t-52 -8.5q-31 0 -44 11.5t-13 29.5q0 23 18.5 53t48 56.5t66 44.5t71.5 18q28 0 28 -24q0 -8 -8.5 -18.5t-19.5 -19.5t-21.5 -16t-14.5 -9q-1 -1 -5 -1q-9 0 -9 8q0 3 4 6
q3 2 9 6.5t11.5 10t10 12t4.5 11.5q0 14 -13 14q-14 0 -36.5 -14.5t-45 -35.5t-38.5 -43.5t-16 -38.5q0 -20 11 -27.5t27 -7.5q11 0 22 2.5t21 5.5q5 2 11 4t11 4q20 8 41.5 19t39.5 22q11 6 21 12t20 13q1 0 1 -1v-4v0z" />
    <glyph glyph-name="afii10070" unicode="&#x435;" horiz-adv-x="240" 
d="M272 89q0 -3 -1.5 -6t-7.5 -7l-16 -10t-17 -11q-15 -10 -33.5 -20.5t-38.5 -21.5q-12 -6 -28.5 -13t-34 -12.5t-35 -9t-32.5 -3.5q-20 0 -32.5 7.5t-12.5 25.5q0 14 18.5 36t68.5 53q-32 0 -46 7.5t-14 18.5q0 15 20 35t50 38t65 30.5t64 12.5q10 0 19.5 -3t9.5 -15
q0 -9 -9 -17.5t-20 -15t-20.5 -11t-10.5 -4.5q-5 -2 -9 8q-2 3 1 4.5t6 3.5q6 4 9 7q8 8 8 12q0 6 -7 8t-11 2q-13 0 -33.5 -9t-40.5 -22t-34.5 -27.5t-14.5 -24.5q0 -15 35 -15q6 0 13 0.5t15 1.5q3 0 6.5 -1t3.5 -4q0 -6 -15.5 -15t-34 -21t-34 -25.5t-15.5 -27.5
t8.5 -19.5t22.5 -5.5q22 0 49 9t43 16q20 8 41.5 19t39.5 22q11 6 21 12t20 13q1 0 1 -1v-4v0z" />
    <glyph glyph-name="afii10069" unicode="&#x434;" horiz-adv-x="264" 
d="M57 -89q-50 -19 -91 -53t-70 -71.5t-45 -73t-16 -56.5t16 -21t41 26t53 66.5t57.5 89t54.5 93.5zM208 107q-23 -35 -47.5 -75t-49.5 -82q21 3 41 3q48 0 48 -25q0 -8 -5.5 -17.5t-13 -18.5t-16 -15t-14.5 -6q-2 0 -5 2t-3 5q0 4 3.5 6.5t7.5 5.5t7.5 8t3.5 13
q0 10 -5.5 13t-12.5 3q-14 0 -26.5 -1.5t-25.5 -3.5q-34 -59 -68 -115.5t-67 -101t-64.5 -71.5t-60.5 -27q-17 0 -25.5 9.5t-8.5 25.5q0 28 22 71t59 87t86.5 82t104.5 57q13 23 22.5 42.5t17.5 33.5q5 8 8.5 15.5t7.5 14.5q-9 -4 -24 -12t-31.5 -16.5t-33.5 -14.5t-30 -6
q-12 0 -19.5 6t-7.5 22q0 22 26.5 55.5t64 65.5t79.5 55t73 23q15 0 21 -6t7 -17q0 -11 -5 -23.5t-12 -25.5t-15 -24.5t-14 -19.5zM152 82q6 7 16 22.5t19.5 32t16.5 30t7 16.5q0 7 -4.5 10.5t-10.5 3.5q-18 -1 -46 -20t-54.5 -44.5t-45 -51.5t-18.5 -41q0 -13 16 -13
q11 0 28.5 8.5t34.5 19.5q10 6 20 12.5t21 14.5z" />
    <glyph glyph-name="afii10108" unicode="&#x45b;" horiz-adv-x="314" 
d="M249 332q38 43 65.5 83t27.5 69q0 10 -5 10q-7 0 -21 -13t-32 -35t-39.5 -51.5t-43.5 -62.5h48zM456 333q0 -7 -4.5 -13t-21.5 -7q-64 -3 -107 -4.5t-78 -3.5q-44 -45 -86 -84t-67 -61q-33 -57 -54.5 -97.5t-21.5 -49.5q5 0 20.5 12t36 29.5t44 38t45 38t38.5 29.5t24 12
q16 0 16 -14q0 -10 -12.5 -25t-27 -32.5t-27 -36.5t-12.5 -38q0 -11 13 -11q17 0 45.5 12.5t55.5 27.5q16 9 33 18.5t34 20.5q1 0 1 -1v-4q0 -3 -1.5 -6.5t-7.5 -6.5q-20 -13 -38.5 -24.5t-35.5 -21.5q-30 -17 -62 -31.5t-52 -14.5q-16 0 -21 9.5t-5 18.5q0 16 8.5 34.5
t19.5 35.5q12 19 27 39q-42 -31 -75 -60t-58.5 -51.5t-42 -36.5t-25.5 -14q-5 0 -7.5 5t-2.5 11t15 38t40.5 78t58.5 101.5t69 109.5q-36 -2 -52 -2h-26q-20 0 -31.5 0.5t-17 2t-7 3.5t-1.5 4q0 4 3 11.5t20 8.5h14h29q18 0 41 0.5t48 0.5q27 39 53 73.5t50 60.5t45 41
t36 15q10 0 17 -7.5t7 -18.5q0 -29 -30.5 -72t-73.5 -90h32t43 1q38 1 60.5 2t33.5 1q16 0 16 -4zM223 304h-22t-19 -1q-17 -26 -33.5 -51.5t-31.5 -50.5q22 20 50 47t56 56z" />
    <glyph glyph-name="afii10080" unicode="&#x43e;" horiz-adv-x="207" 
d="M117 54q-20 4 -38 13.5t-29 24.5q-16 -26 -16 -60q0 -18 16 -18q12 0 30.5 11t36.5 29zM170 154q0 25 -16 36t-36 11q-23 0 -44 -13t-21 -34q0 -11 3 -20q14 15 31 28t37 23q2 0 3 1t5 1q3 0 3 -5q0 -3 -7 -8.5t-17.5 -14t-23 -20t-23.5 -25.5q23 -35 67 -46q17 20 28 42
t11 44zM227 79q0 -3 -7 -9q-31 -19 -72 -19h-7q-26 -30 -59 -50t-56 -20q-31 0 -31 40q0 18 11.5 43t31.5 50q-4 9 -4 27t9 33.5t22.5 27.5t30.5 18.5t33 6.5q23 0 42 -15.5t19 -50.5q0 -24 -10.5 -48.5t-27.5 -47.5h7q14 0 28 3.5t27 11.5q3 3 8 3t5 -4z" />
    <glyph glyph-name="afii10082" unicode="&#x440;" horiz-adv-x="359" 
d="M101 96q-32 -30 -66 -68.5t-67.5 -80.5t-63.5 -85.5t-52.5 -83t-36 -73.5t-13.5 -56q0 -9 6 -9q16 0 37.5 22t48.5 63.5t59.5 100t71.5 132.5q9 17 29 54.5t47 83.5zM118 125q6 10 10.5 18.5t8.5 14.5q-16 -15 -39 -31q-12 -9 -34 -23.5t-40 -25.5q-6 -3 -10 -3
q-6 0 -8 5l8 5q6 4 16 10.5t20.5 13.5t21 13.5t17.5 11.5q18 13 33 26.5t26.5 25t18.5 19t8 9.5q6 8 15.5 2.5t9.5 -10.5q0 -4 -3 -8q-5 -8 -11 -17.5t-14 -20.5q31 17 59.5 27t52.5 10q28 0 37.5 -12t9.5 -27q0 -26 -18.5 -55.5t-47.5 -54.5t-64.5 -41.5t-68.5 -16.5
q-4 0 -14 5t-10 18q0 10 7.5 19.5t16.5 17.5t17.5 13t11.5 5q1 0 10 -3.5t9 -11.5q0 -1 -0.5 -3t-4.5 -4q-10 -6 -21.5 -17.5t-11.5 -17.5q0 -4 5 -4q9 0 32 8.5t48 26t44 43t19 58.5q0 8 -6 16.5t-23 8.5q-24 0 -50 -9t-54 -25q-34 -57 -61 -106.5t-42 -77.5
q-37 -69 -71.5 -130.5t-67 -108t-63.5 -73.5t-60 -27q-18 0 -18 22q0 30 15 70t41 84t60 90.5t72.5 91.5t78.5 85t77 71z" />
    <glyph glyph-name="afii10074" unicode="&#x438;" horiz-adv-x="318" 
d="M348 89q0 -8 -9 -13q-20 -13 -38.5 -24.5t-35.5 -21.5q-30 -17 -62 -31.5t-52 -14.5q-16 0 -21 8.5t-5 17.5q1 9 9 25t19 31q12 18 28 37q-17 -15 -32.5 -28.5t-31.5 -25.5q-13 -10 -27.5 -20.5t-28.5 -19.5t-26.5 -14.5t-21.5 -5.5q-14 0 -19.5 6.5t-5.5 14.5
q0 11 11 33t27.5 48.5t36.5 54t37 49.5l4 4q3 3 8.5 3.5t11 -1t9 -4t3.5 -4.5q0 -3 -6 -12q-5 -8 -24.5 -34t-38 -54.5t-29.5 -50.5t0 -22q15 0 44.5 22t62 51t61 58.5t41.5 44.5q1 1 2.5 2t2.5 2q2 2 8 2.5t11.5 0t9 -2.5t1.5 -5q-19 -26 -38.5 -53t-36 -50t-28 -41
t-13.5 -26q0 -10 13 -10q17 0 45.5 12.5t55.5 27.5q16 9 33 18.5t34 20.5q1 0 1 -1v-4z" />
    <glyph glyph-name="afii10087" unicode="&#x445;" horiz-adv-x="250" 
d="M281 89q0 -3 -1.5 -6.5t-7.5 -6.5q-20 -13 -38.5 -24.5t-35.5 -21.5q-30 -17 -62 -31.5t-52 -14.5q-18 0 -24.5 15t-6.5 37v10t1 10q-35 -27 -69.5 -54.5t-71.5 -58.5q-4 -4 -8 -4q-7 0 -7 6q0 4 7 11q11 9 22.5 18.5t24.5 19.5q21 17 48 40t56 47q3 22 6.5 42t3.5 33
q0 16 -7 16q-2 0 -6.5 -1.5t-12.5 -6.5h-2q-3 0 -3 3q0 2 5 8t19 17q2 2 5 4t5 4q5 3 9.5 5.5t9.5 2.5l6 -2q8 -5 8 -18q0 -7 -4 -29.5t-7 -49.5q27 22 52 42t45.5 35t33.5 24t16 9q5 0 11 -4t6 -9q0 -8 -9 -12q-45 -29 -83 -56.5t-74 -54.5v-15q0 -23 5 -38t18 -15
q17 0 45.5 12.5t55.5 27.5q16 9 33 18.5t34 20.5q1 0 1 -1v-4v0z" />
    <glyph glyph-name="afii10085" unicode="&#x443;" horiz-adv-x="278" 
d="M139 41q-32 -25 -67 -36t-56 -11q-14 0 -19.5 6.5t-5.5 14.5q0 11 10 30.5t25 43t32.5 48.5t33.5 47l4 5q3 3 8 3q6 0 11.5 -2t9 -4.5t3.5 -3.5q0 -3 -6 -12q-7 -11 -21.5 -30.5t-28.5 -40.5t-25 -38.5t-11 -23.5q0 -2 1.5 -7t8.5 -5q14 0 42.5 7.5t60.5 28.5
q12 15 25.5 35t26.5 40t24.5 37t20.5 27q2 2 7 1.5t10 -2t8 -4t1 -5.5q-22 -35 -41.5 -65t-38.5 -60t-39.5 -62.5t-44.5 -71.5q6 1 10 1h12q48 0 48 -25q0 -7 -5 -16t-12.5 -17t-16 -13.5t-14.5 -5.5q-2 0 -5 2t-3 5q0 4 3.5 6.5t7.5 5.5t7.5 8t3.5 13q0 6 -6 8.5t-13 2.5
q-10 0 -17 -0.5t-16 -2.5q-36 -60 -74 -117t-74 -101.5t-68.5 -71.5t-58.5 -27q-17 0 -25.5 9.5t-8.5 25.5q0 26 23 70.5t62.5 91t91.5 86t110 55.5q20 34 38 64t32 53h-1zM52 -105q-54 -17 -97 -52.5t-74 -75.5t-47.5 -76.5t-16.5 -54.5q0 -21 16 -21q15 0 40 25.5t55 65.5
t62 90t62 99z" />
    <glyph glyph-name="afii10073" unicode="&#x437;" horiz-adv-x="242" 
d="M138 -80q-54 -21 -100.5 -60.5t-81 -83t-54 -83t-19.5 -60.5t16 -21q13 0 33 14t42.5 38t46.5 55.5t46 65.5t40.5 69t30.5 66zM278 -62q0 -8 -5.5 -17.5t-13 -18.5t-16 -15t-14.5 -6q-2 0 -5 2t-3 5q0 4 3.5 6.5t7.5 5.5t7.5 8t3.5 13q0 10 -5.5 13t-12.5 3q-17 0 -45 -5
q-11 -34 -32.5 -73.5t-48.5 -78.5t-57 -74.5t-59.5 -62.5t-55.5 -43.5t-44 -16.5q-17 0 -25.5 9.5t-8.5 25.5q0 19 11.5 46.5t32 59.5t48.5 65t61 63.5t70 55t75 39.5q9 25 9 45q0 18 -17 28.5t-35 10.5q-15 0 -34.5 -3.5t-39.5 -19.5l-6 -4q-5 -4 -11 -4t-6 4q0 5 13 15
q7 5 31 22t50 39t46.5 44.5t20.5 39.5q-3 -3 -13.5 -7t-24.5 -7.5t-30 -6t-30 -2.5q-23 0 -40 6t-17 21q0 9 9 17.5t20.5 15t21 11l9.5 4.5q2 0 4.5 -1.5t4.5 -6.5q0 -5 -3 -6l-4 -2q-3 -1 -8 -6q-3 -3 -6 -6.5t-3 -6.5q0 -6 7 -8t11 -2q19 0 32 2t22.5 4.5t18 4.5t19.5 2
q13 0 21 -4.5t8 -16.5q0 -13 -16.5 -32t-37 -37.5t-38 -32t-19.5 -14.5q2 1 8.5 2t14.5 1q35 0 58.5 -16t23.5 -44q0 -18 -4 -31q20 4 43 4q48 0 48 -25z" />
    <glyph glyph-name="afii10105" unicode="&#x458;" horiz-adv-x="178" 
d="M-28 -123q-51 -19 -92.5 -55t-71 -75.5t-45.5 -76.5t-16 -58t16 -21q14 0 36 22.5t49.5 61t59 90.5t64.5 112zM117 162q-9 -6 -25 -9.5t-31.5 -2.5t-26.5 7t-11 17q0 9 9 17.5t20.5 15t21 11l9.5 4.5q5 2 9 -8q1 -4 -3 -6q-5 -3 -7 -4.5t-5 -3.5t-6 -6t-3 -7
q0 -8 11 -7.5t24.5 5t25 10l11.5 5.5q13 0 24.5 -4.5t4.5 -16.5q-26 -46 -63 -116.5t-79 -145.5q19 3 38 3q48 0 48 -25q0 -8 -5.5 -17.5t-13 -18.5t-16 -15t-14.5 -6q-2 0 -5 2t-3 5q0 4 3.5 6.5t7.5 5.5t7.5 8t3.5 13q0 10 -5.5 13t-12.5 3q-20 0 -48 -5
q-35 -62 -70.5 -121t-70 -104.5t-66 -73.5t-58.5 -28q-17 0 -25.5 9.5t-8.5 25.5q0 28 22 72.5t60 90.5t87.5 86.5t105.5 60.5q15 27 31.5 59.5t33.5 66.5l33.5 67t30.5 62z" />
    <glyph glyph-name="afii10066" unicode="&#x431;" horiz-adv-x="207" 
d="M117 54q-20 4 -38 13.5t-29 24.5q-16 -26 -16 -60q0 -18 16 -18q12 0 30.5 11t36.5 29zM170 154q0 25 -16 36t-36 11q-23 0 -44 -13t-21 -34q0 -11 3 -20q14 15 31 28t37 23q2 1 3.5 1.5t4.5 0.5q5 0 3 -5q-2 -6 -25 -22.5t-46 -45.5q23 -35 67 -46q17 20 28 42t11 44z
M188 149q20 39 26.5 75.5t7 71.5t-2.5 68t-1 64q2 40 18 66t39.5 40t50.5 18.5t50 1t38 -13t15 -22.5q0 -10 -7 -20t-18 -18t-23.5 -14.5t-24.5 -10.5q-13 -5 -13.5 1.5t7.5 9.5q12 5 25.5 15t13.5 23q0 8 -10 14.5t-25 9t-32.5 -0.5t-32.5 -14.5t-26 -32t-12 -53.5
q-2 -42 -2.5 -85.5t-9 -88.5t-27.5 -92t-58 -96h5q14 0 28 3.5t27 11.5q3 3 8 3t5 -4q0 -3 -7 -9q-31 -19 -72 -19h-6q-26 -30 -59.5 -50t-56.5 -20q-31 0 -31 40q0 18 11.5 43t31.5 50q-4 9 -4 27t9 33.5t22.5 27.5t30.5 18.5t33 6.5q10 0 21.5 -5t20 -15t13.5 -24.5
t4 -33.5z" />
    <glyph glyph-name="afii10099" unicode="&#x452;" horiz-adv-x="314" 
d="M57 -123q-51 -19 -92.5 -55t-71 -75.5t-45.5 -76.5t-16 -58t16 -21q14 0 36 22.5t49.5 61t59 90.5t64.5 112zM249 332q38 43 65.5 83t27.5 69q0 10 -5 10q-7 0 -21 -13t-32 -35t-39.5 -51.5t-43.5 -62.5h48zM235 144q-14 -23 -27 -47.5t-27 -52t-31 -59t-38 -68.5
q19 3 38 3q48 0 48 -25q0 -8 -5.5 -17.5t-13 -18.5t-16 -15t-14.5 -6q-2 0 -5 2t-3 5q0 4 3.5 6.5t7.5 5.5t7.5 8t3.5 13q0 10 -5.5 13t-12.5 3q-20 0 -48 -5q-35 -62 -70.5 -121t-70 -104.5t-66 -73.5t-58.5 -28q-17 0 -25.5 9.5t-8.5 25.5q0 28 22 72.5t60 90.5t87.5 86.5
t105.5 60.5q29 54 58.5 110.5t57.5 113.5q-38 -31 -73 -61.5t-63.5 -55t-49 -40t-29.5 -15.5q-5 0 -7.5 5t-2.5 11t15 38t40.5 78t58.5 101.5t69 109.5q-36 -2 -52 -2h-26q-20 0 -31.5 0.5t-17 2t-7 3.5t-1.5 4q0 4 3 11.5t20 8.5h14h29q18 0 41 0.5t48 0.5q27 39 53 73.5
t50 60.5t45 41t36 15q10 0 17 -7.5t7 -18.5q0 -29 -30.5 -72t-73.5 -90h32t43 1q38 1 60.5 2t33.5 1q16 0 16 -4q0 -7 -4.5 -13t-21.5 -7q-64 -3 -107 -4.5t-78 -3.5q-44 -45 -86 -84t-67 -61q-33 -57 -54.5 -97.5t-21.5 -49.5q5 0 20.5 12t36 29.5t44 38t45 38t38.5 29.5
t24 12q16 0 16 -14q0 -6 -5 -14zM223 304h-22t-19 -1q-17 -26 -33.5 -51.5t-31.5 -50.5q22 20 50 47t56 56z" />
    <glyph glyph-name="afii10076" unicode="&#x43a;" horiz-adv-x="320" 
d="M110 125q-7 -7 -6 -25.5t8 -37.5t18.5 -33.5t25.5 -14.5q12 0 27.5 3.5t31 8.5t29.5 10.5t22 9.5q16 8 31 16.5t26 15.5q7 4 13 8l12 8q1 0 1 -1v-4q0 -3 -1.5 -6t-7.5 -7q-17 -12 -31.5 -21t-36.5 -21q-12 -7 -30.5 -15.5t-39.5 -16t-41 -12.5t-35 -5q-14 0 -25.5 9
t-19.5 22.5t-12 30.5t-4 33q-13 -24 -23.5 -44t-23.5 -46q-5 -9 -14 -9q-7 0 -13.5 3.5t-6.5 10.5t4 14q4 8 16 29l28 49q9 17 19.5 34t21.5 36q7 12 10 17.5t5 9.5t6 10t12 19q4 9 14 9q12 0 13.5 -7t-3.5 -17q-3 -6 -9 -16t-12 -20.5t-11.5 -20.5t-8.5 -16l38 38t37 31.5
t39 21.5t44 8q46 0 46 -30q0 -19 -16 -36q-8 -8 -17.5 -3.5t-9.5 22.5q0 22 -32 22q-12 0 -37.5 -15t-70.5 -59z" />
    <glyph glyph-name="afii10077" unicode="&#x43b;" horiz-adv-x="303" 
d="M34 70q-6 -11 -16.5 -15t-15.5 -12q-8 -11 -8 -23q0 -11 13 -11q8 0 19 6.5t22 13.5q20 12 48 36t55.5 50.5t51.5 50.5t35 37q1 1 2.5 2t2.5 2q2 2 8 2.5t11.5 0t9 -2.5t1.5 -5q-19 -26 -39.5 -54t-38 -52.5t-29.5 -43.5t-14 -27q0 -10 13 -10q17 0 45.5 12.5t55.5 27.5
q16 9 33 18.5t34 20.5q1 0 1 -1v-4q0 -3 -1.5 -6t-7.5 -7q-20 -13 -38.5 -24.5t-35.5 -21.5q-30 -17 -62 -31.5t-52 -14.5q-16 0 -21 8.5t-5 17.5q1 9 9 25t19 31q6 9 15.5 21.5t17.5 22.5q-17 -15 -35 -32t-34 -29q-13 -10 -27.5 -20.5t-28.5 -19.5t-26.5 -14.5t-21.5 -5.5
q-20 0 -24 15.5t1 34.5t15.5 36t20.5 21q4 2 10 2t10.5 -3t5.5 -9t-4 -16z" />
    <glyph glyph-name="glyph174" horiz-adv-x="449" 
d="M480 89q0 -3 -1.5 -6t-7.5 -7q-20 -13 -38.5 -24.5t-35.5 -21.5q-30 -17 -62 -31.5t-52 -14.5q-12 0 -13 23t4.5 52.5t13.5 57.5t13 39q-20 -30 -49.5 -69t-61.5 -78q-17 -20 -30.5 -23t-22.5 -3q-12 0 -13 23t3.5 52.5t12 58t12.5 39.5q-20 -20 -50 -56t-65.5 -71.5
t-72.5 -62t-71 -26.5q-2 0 -8 2q-7 3 -7 9q0 4 5 10.5t12.5 13t16 11t16.5 4.5q7 0 7 -4t5 -4q15 0 37 18t52 49t67.5 72.5t83.5 89.5q3 3 5 4q4 3 9 3t5 -4q-5 -26 -12 -53t-14 -52.5t-11 -48.5t-3 -41q0 -2 3 -5.5t8 1.5q15 16 33.5 40.5t38.5 52t41.5 54.5t42.5 49
q3 3 5 4q4 3 10 3q7 0 7 -4q-5 -26 -12 -53t-14 -52.5t-11 -48.5t-3 -41q0 -4 3 -4q17 0 45.5 12.5t55.5 27.5q16 9 33 18.5t34 20.5q1 0 1 -1v-4z" />
    <glyph glyph-name="glyph175" horiz-adv-x="328" 
d="M160 45q-2 -15 3 -23t20 -8q27 0 48 16t31.5 35.5t7 35.5t-27.5 16q-12 0 -24 -6t-23 -11q-3 -2 -6 -3.5t-5 0.5q-6 2 -3 8q4 7 16.5 14t31.5 15q22 8 42 8q24 0 34.5 -11.5t9 -29.5t-13 -38t-31 -38t-45.5 -29.5t-55 -11.5q-22 0 -35.5 14.5t-9.5 44.5q2 16 5.5 33.5
t7.5 33t7.5 28t6.5 18.5q-20 -20 -50 -56t-65.5 -71.5t-72.5 -62t-71 -26.5q-2 0 -8 2q-7 3 -7 9q0 4 5 10.5t12.5 13t16 11t16.5 4.5q7 0 7 -4t5 -4q15 0 37 18t52 49t67.5 72.5t83.5 89.5q3 3 5 4q4 3 9 3t5 -4q-4 -21 -10 -43.5t-11.5 -44.5t-10.5 -42.5t-7 -38.5z" />
    <glyph glyph-name="afii10088" unicode="&#x446;" horiz-adv-x="322" 
d="M184 -75q-38 -13 -66.5 -33.5t-48 -42.5t-29.5 -43t-10 -35q0 -16 12 -14q16 1 30 13t30 33.5t35.5 52t46.5 69.5zM286 49q-12 -20 -25 -46.5t-24 -42.5q8 1 14.5 1.5t13.5 0.5q36 0 36 -17q0 -5 -4 -11.5t-9.5 -12t-12 -9.5t-10.5 -4q-2 0 -4 1.5t-2 3.5q0 5 8 7.5
t8 13.5q0 7 -4 9t-9 2q-8 0 -16.5 -1t-19.5 -3q-26 -41 -53 -79.5t-53.5 -68.5t-50.5 -48t-44 -18q-25 0 -25 23q0 18 12 45t35.5 55t58.5 53t82 39q11 18 16 26.5t9 16t8.5 16.5t15.5 28q-23 -18 -42.5 -31.5t-43.5 -13.5q-16 0 -21 8.5t-5 17.5q1 5 4 13.5t8 17.5
q-32 -25 -66 -36t-55 -11q-14 0 -19.5 6.5t-5.5 14.5q0 11 10 30.5t25 43t32.5 48.5t33.5 47l4 5q3 3 8 3q9 0 16.5 -4t7.5 -6q0 -3 -6 -12q-7 -11 -21 -30.5t-28.5 -40.5t-25.5 -38.5t-11 -23.5q0 -2 1.5 -7t8.5 -5q14 0 41 7.5t59 28.5q11 15 25 34.5t27.5 39t26 36
t20.5 25.5l4 4q2 2 8 2.5t12 -0.5t10 -3.5t2 -5.5q-19 -26 -38.5 -52.5t-36 -49.5t-27.5 -40.5t-13 -25.5q0 -10 13 -10q10 0 31.5 12.5t44.5 27.5q6 4 16 10.5t17 6.5q7 -1 6 -3.5t-1 -7.5q0 -2 -2.5 -6t-4.5 -6z" />
    <glyph glyph-name="afii10193" unicode="&#x45f;" horiz-adv-x="318" 
d="M-15 -123q-51 -19 -92.5 -55t-71 -75.5t-45.5 -76.5t-16 -58t16 -21q14 0 36 22.5t49.5 61t59 90.5t64.5 112zM249 200q2 2 8 2.5t12 -0.5t10 -3.5t2 -5.5q-19 -26 -38.5 -52.5t-36 -49.5t-27.5 -40.5t-13 -25.5q0 -10 13 -10q17 0 45.5 12.5t55.5 27.5q16 9 33 18.5
t34 20.5q1 0 1 -1v-4q0 -3 -1.5 -6.5t-7.5 -6.5q-20 -13 -38.5 -24.5t-35.5 -21.5q-30 -17 -62 -31.5t-52 -14.5q-16 0 -21 8.5t-5 17.5q1 5 4 13.5t8 17.5q-11 -8 -22.5 -15.5t-22.5 -12.5q-14 -26 -28 -52.5t-24 -43.5q19 3 38 3q48 0 48 -25q0 -8 -5.5 -17.5t-13 -18.5
t-16 -15t-14.5 -6q-2 0 -5 2t-3 5q0 4 3.5 6.5t7.5 5.5t7.5 8t3.5 13q0 10 -5.5 13t-12.5 3q-20 0 -48 -5q-35 -62 -70.5 -121t-70 -104.5t-66 -73.5t-58.5 -28q-17 0 -25.5 9.5t-8.5 25.5q0 28 22 72.5t60 90.5t87.5 86.5t105.5 60.5q13 21 26 45.5t25 47.5q-21 -6 -36 -6
q-14 0 -19.5 6.5t-5.5 14.5q0 11 10 30.5t25 43t32.5 48.5t33.5 47l4 5q3 3 8 3q6 0 11.5 -2t9 -4.5t3.5 -3.5q0 -3 -6 -12q-7 -11 -21.5 -30.5t-28.5 -40.5t-25 -38.5t-11 -23.5q0 -14 10.5 -13t21.5 3l3.5 7t3.5 6q8 13 13 22.5t12 9.5q8 0 12 -6.5t1 -12.5q-2 -4 -4 -7
t-4 -7q22 8 41 22q11 15 25 34t28 38.5t26 36.5t20 26z" />
    <glyph glyph-name="afii10090" unicode="&#x448;" horiz-adv-x="457" 
d="M137 41q-12 -12 -29.5 -22.5t-35.5 -18t-35 -12t-27 -4.5q-14 0 -19.5 6.5t-5.5 14.5q0 11 12 33.5t29.5 50t37 55.5t35.5 50l4 5q3 3 8 3q6 0 11.5 -2t9 -4.5t3.5 -3.5q0 -3 -6 -12q-7 -11 -23.5 -33.5t-33 -47.5t-29.5 -45.5t-13 -26.5q0 -2 1.5 -7t8.5 -5t19.5 3t27 9
t30 14.5t29.5 19.5q20 32 46 68.5t46 64.5l4 5q3 3 8 3q6 0 11.5 -2t9 -4.5t3.5 -3.5q0 -3 -6 -12q-7 -11 -23.5 -33.5t-33 -47.5t-29.5 -45.5t-13 -26.5q0 -2 1.5 -7t8.5 -5t19.5 3t27 9t30 14.5t29.5 19.5q11 15 25 34t28 38.5t26 36.5t20 26l4 4q2 2 8 2.5t12 -0.5
t10 -3.5t2 -5.5q-19 -26 -38.5 -52.5t-36 -49.5t-27.5 -40.5t-13 -25.5q0 -10 13 -10q17 0 45.5 12.5t55.5 27.5q16 9 33 18.5t34 20.5q1 0 1 -1v-4q0 -3 -1.5 -6t-7.5 -7q-20 -13 -38.5 -24.5t-35.5 -21.5q-30 -17 -62 -31.5t-52 -14.5q-16 0 -21 8.5t-5 17.5q1 5 4 13.5
t8 17.5q-12 -12 -29.5 -22.5t-35.5 -18t-35 -12t-27 -4.5q-14 0 -19.5 6.5t-5.5 14.5q0 10 13 36z" />
    <glyph glyph-name="afii10079" unicode="&#x43d;" horiz-adv-x="318" 
d="M348 89q0 -3 -1.5 -6t-7.5 -7q-20 -13 -38.5 -24.5t-35.5 -21.5q-30 -17 -62 -31.5t-52 -14.5q-16 0 -21 8.5t-5 17.5q0 12 9.5 32.5t25.5 43.5h-23h-19h-21h-30l-66 -102q-6 -9 -15 -9q-7 0 -13 4.5t-6 11.5q0 6 5 13l126 189l4 4q3 3 9.5 4.5t12 0.5t9 -3.5t2.5 -7.5
q-1 -2 -2.5 -4.5l-4.5 -7.5l-42 -65l94 1q17 23 34 43.5t31 36.5l4 4q4 4 9 4q11 0 17 -2.5t-2 -14.5q-7 -10 -22 -29t-32 -41h11q9 0 9 -5q0 -7 -2.5 -14t-12.5 -8q-11 -1 -15 -1q-3 0 -11 -1q-14 -20 -24 -36.5t-10 -23.5q0 -12 15 -12q17 0 45.5 12.5t55.5 27.5
q16 9 33 18.5t34 20.5q1 0 1 -1v-4v0z" />
    <glyph glyph-name="afii10072" unicode="&#x436;" horiz-adv-x="544" 
d="M217 225q15 0 26.5 -9t19 -23.5t11.5 -31.5t4 -33q4 6 8.5 14.5t8.5 14.5q7 12 10 18.5t6 11.5t7.5 12t12.5 20q2 5 7 7t10 2q12 0 15 -3.5t-5 -20.5q-3 -6 -8.5 -16t-12 -21.5t-12.5 -22t-9 -16.5q40 40 79 68.5t89 28.5q46 0 46 -30q0 -19 -16 -36q-8 -8 -17.5 -3.5
t-9.5 22.5q0 22 -32 22q-12 0 -42.5 -14t-75.5 -58q-7 -7 -6.5 -26t7.5 -38.5t18 -34.5t25 -15q12 0 27.5 3.5t31 8.5t29.5 10.5t22 9.5q16 8 31 16.5t26 15.5q7 4 13 8l12 8q1 0 1 -1v-4q0 -3 -1.5 -6t-7.5 -7q-17 -12 -31.5 -21t-36.5 -21q-12 -7 -30.5 -15.5t-39.5 -16
t-41 -12.5t-35 -5q-14 0 -25.5 9.5t-19 23.5t-11 31.5t-3.5 33.5q-13 -24 -26.5 -49.5t-26.5 -51.5q-5 -9 -14 -9q-7 0 -15 1.5t-8 8.5q0 3 2.5 8.5t4.5 9.5q4 8 17 31t29 51q-40 -40 -80 -69t-90 -29q-46 0 -46 30q0 19 16 36q8 8 17.5 3.5t9.5 -22.5q0 -22 32 -22
q12 0 43 14.5t76 58.5q7 7 6 25.5t-7.5 38t-18 34.5t-25.5 15q-15 0 -35 -14t-41 -32.5t-42.5 -38t-40.5 -30.5q-8 -5 -14 -9l-12 -8q-1 0 -1 1v4q0 3 1.5 6t7.5 7q24 13 47.5 37.5t48.5 47.5t52 40.5t58 17.5z" />
    <glyph glyph-name="afii10068" unicode="&#x433;" horiz-adv-x="247" 
d="M152 -1q-18 -6 -34.5 -10t-30 -4t-23 5t-12.5 18q-3 10 6 25.5t24 32.5t32 34.5t30 31.5t18 24t-4 12q-5 6 -21 -4t-36.5 -27t-44 -36t-43.5 -30h-1q-2 0 -3.5 4t-1.5 6q24 16 50 37t49.5 40t41.5 32t27 13q12 2 19.5 -6.5t9.5 -15.5q3 -17 -11.5 -36t-47.5 -49
q-17 -15 -31 -32.5t-20 -31t-1 -21t26 -3.5q20 3 37.5 9.5t36.5 17t41 24.5t50 30q2 1 3 2t3 1q1 0 1 -7q0 -5 -5 -7q-23 -15 -37.5 -26t-28 -20t-29 -16.5t-39.5 -16.5z" />
    <glyph glyph-name="afii10107" unicode="&#x45a;" horiz-adv-x="361" 
d="M160 86h-23h-19h-21h-30l-66 -102q-6 -9 -15 -9q-7 0 -13 4.5t-6 11.5q0 6 5 13l126 189l4 4q3 3 9.5 4.5t12 0.5t9 -3.5t2.5 -7.5q-1 -2 -2.5 -4.5l-4.5 -7.5l-42 -65l94 1q17 23 34 43.5t31 36.5l4 4q4 4 9 4q11 0 17 -2.5t-2 -14.5q-12 -17 -33.5 -44t-41.5 -55
q-14 -20 -24 -36.5t-10 -23.5q0 -5 3 -9t12 -4q27 0 55 14t47 31.5t22.5 31.5t-20.5 14q-12 0 -24 -6t-23 -11q-3 -2 -6 -3.5t-5 0.5q-6 2 -3 8q4 7 16.5 14t31.5 15q22 8 42 8q25 0 31.5 -11t0.5 -27t-24 -35t-42 -35t-53.5 -27t-58.5 -11q-15 0 -23.5 2.5t-12.5 6.5
t-4.5 8.5t-0.5 8.5q0 12 9.5 32.5t25.5 43.5z" />
    <glyph glyph-name="afii10086" unicode="&#x444;" horiz-adv-x="476" 
d="M107 -99q-51 -19 -92.5 -55t-71 -75.5t-45.5 -76.5t-16 -58t16 -21q14 0 36 22.5t49.5 61t59 90.5t64.5 112zM340 277q51 19 92.5 55t71 75.5t45.5 76.5t16 58t-16 21q-14 0 -36 -22.5t-49.5 -61t-59 -90.5t-64.5 -112zM324 247q-11 -21 -25 -48t-29 -56q33 29 69.5 47.5
t79.5 18.5q31 0 44 -11.5t13 -29.5q0 -23 -18.5 -53t-48 -56.5t-66 -44.5t-71.5 -18q-28 0 -28 24q0 8 8.5 18.5t19.5 19.5t21.5 16t14.5 9q1 1 5 1q9 0 9 -8q0 -3 -4 -6q-3 -2 -9 -6.5t-11.5 -10t-10 -12t-4.5 -11.5q0 -14 13 -14t36 14.5t45.5 35.5t38.5 43.5t16 38.5
q0 20 -11 27.5t-27 7.5q-36 0 -71.5 -19t-65.5 -45q-29 -55 -51.5 -97.5t-43.5 -80.5q19 3 38 3q48 0 48 -25q0 -8 -5.5 -17.5t-13 -18.5t-16 -15t-14.5 -6q-2 0 -5 2t-3 5q0 4 3.5 6.5t7.5 5.5t7.5 8t3.5 13q0 10 -5.5 13t-12.5 3q-20 0 -48 -5q-35 -62 -70.5 -121
t-70 -104.5t-66 -73.5t-58.5 -28q-17 0 -25.5 9.5t-8.5 25.5q0 28 22 72.5t60 90.5t87.5 86.5t105.5 60.5q14 25 28.5 52.5t37.5 71.5q-32 -26 -66.5 -42.5t-74.5 -16.5q-31 0 -44 11.5t-13 29.5q0 23 18.5 53t48 56.5t66 44.5t71.5 18q28 0 28 -24q0 -8 -8.5 -18.5
t-19.5 -19.5t-21.5 -16t-14.5 -9q-1 -1 -5 -1q-9 0 -9 8q0 3 4 6q3 2 9 6.5t11.5 10t10 12t4.5 11.5q0 14 -13 14q-14 0 -36.5 -14.5t-45 -35.5t-38.5 -43.5t-16 -38.5q0 -20 11 -27.5t27 -7.5q34 0 67.5 17.5t62.5 40.5q25 46 46.5 88t35.5 69q-20 -3 -38 -3q-48 0 -48 25
q0 7 5.5 17t13 19t16 15t14.5 6q2 0 5 -2t3 -5q0 -4 -3.5 -6.5t-7.5 -5.5t-7.5 -8t-3.5 -13q0 -10 5.5 -13t12.5 -3q20 0 48 5q35 62 70.5 121t70 104.5t66 73.5t58.5 28q17 0 25.5 -9.5t8.5 -25.5q0 -28 -22 -72.5t-60 -90.5t-88 -86.5t-105 -60.5z" />
    <glyph glyph-name="afii10042" unicode="&#x428;" horiz-adv-x="800" 
d="M733 55q16 9 33 18.5t34 20.5q1 0 1 -1v-4q0 -3 -1.5 -6t-7.5 -7q-20 -13 -38.5 -24.5t-35.5 -21.5q-30 -17 -62 -31.5t-52 -14.5q-35 0 -35 44q0 35 24.5 92.5t78.5 135.5q-31 -35 -58 -65.5t-56 -58.5q-24 -23 -50.5 -49t-54 -48t-54 -36.5t-50.5 -14.5q-26 0 -38 17.5
t-12 35.5q0 71 103 219q-31 -35 -58 -65.5t-56 -58.5q-24 -23 -50.5 -49t-54 -48t-54 -36.5t-50.5 -14.5q-26 0 -38 17.5t-12 35.5q0 32 21 78t52 98t67.5 108t67.5 107t52 95t21 73q0 22 -9.5 38t-24.5 26.5t-34.5 15.5t-38.5 5q-47 0 -94.5 -14t-92 -36.5t-83.5 -51
t-68 -58.5t-45.5 -58.5t-16.5 -50.5q0 -21 18 -34t57 -13q41 0 82.5 16.5t80.5 43.5t74 63t63 75q1 1 1.5 2t1.5 2q4 4 8 4q5 0 5 -8q0 -11 -15 -33.5t-40 -49t-58 -54.5t-69 -51t-73.5 -37.5t-70.5 -14.5q-51 0 -73 18t-22 47q0 27 17 60t47 67t71 66.5t89.5 57.5t102 40.5
t108.5 15.5q25 0 51 -5t47 -17.5t34 -34t13 -55.5q0 -26 -20.5 -68.5t-51.5 -92.5t-66.5 -104.5t-66.5 -106t-51.5 -95t-20.5 -72.5q0 -10 4.5 -21.5t21.5 -11.5q15 0 39 16t51.5 40.5t57 53.5t55.5 56q31 31 62.5 66.5t65.5 75.5q26 31 47.5 61t41.5 61q19 30 33 52
t30.5 47t30.5 47t23.5 36.5t10.5 15.5q3 3 9 4.5t23 -0.5q6 0 6 -4q0 -1 -9.5 -16t-26 -41t-38 -60t-46 -72.5t-50.5 -79t-50 -78.5q-35 -55 -58.5 -96t-37.5 -70.5t-20 -49.5t-6 -32q0 -10 4.5 -21.5t21.5 -11.5q15 0 39 16t51.5 40.5t57 53.5t55.5 56q31 31 62.5 66.5
t65.5 75.5q26 31 47.5 61t41.5 61q19 30 33 52t30.5 47t30.5 47t23.5 36.5t10.5 15.5q3 3 9 4.5t23 -0.5q6 0 6 -4q0 -1 -9.5 -16t-26 -41t-38 -60t-46 -72.5t-50.5 -79t-50 -78.5q-37 -58 -61 -100.5t-37.5 -72.5t-18.5 -49t-5 -31q0 -11 4 -17.5t12 -6.5q17 0 45.5 12.5
t55.5 27.5z" />
    <glyph glyph-name="afii10024" unicode="&#x416;" horiz-adv-x="1163" 
d="M-1 53q0 34 17 75.5t46 84t66.5 82.5t78.5 71t82 50t78 19q25 0 39.5 -12t14.5 -39q0 -21 -11.5 -48.5t-30 -56t-42.5 -55.5t-49.5 -48.5t-50.5 -34.5t-45 -13q-8 0 -8 6q0 1 2 9q1 2 3 4q28 0 63.5 25t66 60.5t51.5 74t21 66.5q0 21 -11 30.5t-30 9.5q-26 0 -59.5 -17.5
t-68 -46.5t-67 -66t-58 -76t-41 -77t-15.5 -68q0 -32 20.5 -52.5t71.5 -20.5q45 0 105 25t121.5 69t118 105t94.5 133h-64q-24 0 -29.5 2.5t-5.5 7.5t2.5 13t12.5 8h99q19 42 29.5 86t10.5 90q0 45 -11 75t-30 48.5t-44.5 26.5t-54.5 8q-40 0 -82.5 -12t-80 -30t-67 -38
t-42.5 -36q-8 0 -8 12q0 11 28.5 32.5t72.5 43.5t97 38t103 16q32 0 60.5 -8.5t49.5 -29t33.5 -53.5t12.5 -82t-11.5 -95.5t-32.5 -91.5l49 1q42 78 82 151.5t72 131.5q37 68 70 128q4 4 15 9q4 2 10 4t11 3.5t7.5 1t1.5 -4.5l-2 -6q-1 -3 -20.5 -40t-51 -95.5t-71 -132
t-81.5 -150.5h50q42 78 104.5 144t132 114t137.5 75t120 27q61 0 87.5 -24.5t26.5 -63.5q0 -34 -17 -75.5t-46 -84t-66.5 -82.5t-78.5 -71t-82.5 -50t-77.5 -19q-25 0 -39.5 12t-14.5 39q0 21 11.5 48.5t30 56t42.5 55.5t49.5 48.5t50.5 34.5t45 13q8 0 8 -6q0 -1 -2 -9
q-1 -2 -3 -4q-19 0 -41.5 -11.5t-45 -30.5t-43 -43t-37 -49.5t-26 -49.5t-9.5 -42q0 -21 11 -30.5t30 -9.5q26 0 59.5 17.5t68 46.5t67 66t58 76t41 77t15.5 68q0 32 -20.5 52.5t-71.5 20.5q-45 0 -105.5 -25t-122.5 -70t-118.5 -106.5t-94.5 -134.5l85 1q9 0 9 -5
q0 -7 -2.5 -14t-12.5 -8q-22 -1 -45.5 -1.5t-47.5 -1.5q-19 -42 -29 -85.5t-10 -88.5t11 -75t30 -48.5t44.5 -26.5t54.5 -8q40 0 82.5 12t80 30t67 38t42.5 36q8 0 8 -12q0 -11 -28.5 -32.5t-72.5 -43.5t-97.5 -38t-102.5 -16q-32 0 -60.5 8.5t-49.5 29t-33.5 53.5t-12.5 82
q0 48 11 94t31 90q-13 -1 -26 -1h-25q-32 -60 -63 -117.5t-57.5 -106.5t-46.5 -87t-31 -59q-2 -4 -4 -7q-6 -8 -14 -11q-8 -4 -15.5 -6.5t-12.5 -2.5q-9 0 -9 5q0 2 17.5 35.5t47 88t67 124t77.5 143.5h-47q-42 -77 -104.5 -142.5t-131.5 -113t-136.5 -74t-119.5 -26.5
q-61 0 -87.5 24.5t-26.5 63.5z" />
    <glyph glyph-name="afii10106" unicode="&#x459;" horiz-adv-x="348" 
d="M165 14q27 0 55 14t47 31.5t22.5 31.5t-20.5 14q-12 0 -24 -6t-23 -11q-3 -2 -6 -3.5t-5 0.5q-6 2 -3 8q4 7 16.5 14t31.5 15q22 8 42 8q25 0 31.5 -11t0.5 -27t-24 -35t-42 -35t-53.5 -27t-58.5 -11q-15 0 -23.5 2.5t-12.5 6t-4.5 8t-0.5 9.5q1 9 9 25t19 31
q6 9 15.5 21.5t17.5 22.5q-17 -15 -35 -32t-34 -29q-13 -10 -27.5 -20.5t-28.5 -19.5t-26.5 -14.5t-21.5 -5.5q-20 0 -24 15.5t1 34.5t15.5 36t20.5 21q4 2 10 2t10.5 -3t5.5 -9t-4 -16q-6 -11 -16.5 -15t-15.5 -12q-8 -11 -8 -23q0 -11 13 -11q8 0 19 6.5t22 13.5
q20 12 48 36t55.5 50.5t51.5 50.5t35 37q1 1 2.5 2t2.5 2q2 2 8 2.5t11.5 0t9 -2.5t1.5 -5q-19 -26 -39.5 -54t-38 -53t-29.5 -44t-14 -27q0 -10 13 -10z" />
    <glyph glyph-name="afii10078" unicode="&#x43c;" horiz-adv-x="441" 
d="M165 16q5 3 10.5 6t10.5 7q19 13 46.5 37.5t56 50.5t52.5 49.5t35 36.5q1 1 2.5 2t2.5 2q2 2 8 2.5t11.5 0t9 -2.5t1.5 -5q-19 -26 -39.5 -54t-38 -52.5t-29.5 -43.5t-14 -27q0 -10 13 -10q17 0 45.5 12.5t55.5 27.5q16 9 33 18.5t34 20.5q1 0 1 -1v-4q0 -3 -1.5 -6
t-7.5 -7q-20 -13 -38.5 -24.5t-35.5 -21.5q-30 -17 -62 -31.5t-52 -14.5q-16 0 -21 8.5t-5 17.5q1 9 9 25t19 31q6 9 15.5 21.5t17.5 22.5q-17 -15 -35 -32t-34 -29q-13 -10 -27.5 -20.5t-28.5 -19.5t-26.5 -14.5t-21.5 -5.5q-16 0 -19.5 7t-2.5 17q1 9 7.5 23.5t16.5 29.5
q6 9 15.5 21.5t17.5 22.5q-17 -15 -35 -32t-34 -29q-13 -10 -27.5 -20.5t-28.5 -19.5t-26.5 -14.5t-21.5 -5.5q-20 0 -24 15.5t1 34.5t15.5 36t20.5 21q4 2 10 2t10.5 -3t5.5 -9t-4 -16q-6 -11 -16.5 -15t-15.5 -12q-8 -11 -8 -23q0 -11 13 -11q8 0 19 6.5t22 13.5
q20 12 48 36t55.5 50.5t51.5 50.5t35 37q1 1 2.5 2t2.5 2q2 2 8 2.5t11.5 0t9 -2.5t1.5 -5q-19 -26 -39.5 -54t-38 -52.5t-29.5 -43.5t-14 -27q-2 -7 2 -9.5t11 0.5z" />
    <glyph glyph-name="afii10026" unicode="&#x418;" 
d="M565 447q0 -1 -1.5 -4t-10.5 -17.5t-29 -45.5t-56 -88q-37 -58 -61 -100.5t-37.5 -72.5t-18.5 -49.5t-5 -30.5q0 -9 2.5 -14t5.5 -7q4 -3 8 -3q17 0 45.5 12.5t55.5 27.5q32 18 67 39q1 0 1 -1v-4q0 -3 -1.5 -6.5t-7.5 -6.5q-39 -26 -74 -46q-30 -17 -62 -31.5t-52 -14.5
q-35 0 -35 44q0 35 24.5 92.5t78.5 135.5q-62 -69 -119 -124q-24 -23 -50 -45.5t-51 -40t-48 -28.5t-41 -11q-26 0 -38 17.5t-12 35.5q0 32 20 76t49.5 94t64 102.5t64 101.5t49.5 91t20 71q0 22 -9.5 38t-24.5 26.5t-34 15.5t-39 5q-47 0 -94.5 -14t-92 -36.5t-83.5 -51
t-68 -58.5t-45.5 -58.5t-16.5 -50.5q0 -21 18 -34t57 -13q41 0 82.5 16.5t80.5 43.5t74 63t63 75q1 2 3 4q4 4 7 4h1q5 -3 5 -8q0 -12 -15 -34t-40 -48.5t-58 -54.5t-69 -51t-73.5 -37.5t-70.5 -14.5q-51 0 -73 18t-22 47q0 27 17 60t47 67t71 66.5t89.5 57.5t102 40.5
t108.5 15.5q26 0 51.5 -5t46.5 -17.5t34 -34t13 -55.5q0 -26 -19.5 -66.5t-49 -88.5t-63.5 -99.5t-63 -100t-48.5 -90.5t-19.5 -71q0 -10 4.5 -21.5t21.5 -11.5q15 0 37 12.5t47 32.5t52 45.5t53 52.5q61 62 128 142l89 122q2 3 5 6q6 6 15 5l17 -1q2 0 4 -0.5t2 -3.5z" />
    <glyph glyph-name="afii10027" unicode="&#x419;" 
d="M565 447q0 -1 -1.5 -4t-10.5 -17.5t-29 -45.5t-56 -88q-37 -58 -61 -100.5t-37.5 -72.5t-18.5 -49.5t-5 -30.5q0 -9 2.5 -14t5.5 -7q4 -3 8 -3q17 0 45.5 12.5t55.5 27.5q32 18 67 39q1 0 1 -1v-4q0 -3 -1.5 -6.5t-7.5 -6.5q-39 -26 -74 -46q-30 -17 -62 -31.5t-52 -14.5
q-35 0 -35 44q0 35 24.5 92.5t78.5 135.5q-62 -69 -119 -124q-24 -23 -50 -45.5t-51 -40t-48 -28.5t-41 -11q-26 0 -38 17.5t-12 35.5q0 32 20 76t49.5 94t64 102.5t64 101.5t49.5 91t20 71q0 22 -9.5 38t-24.5 26.5t-34 15.5t-39 5q-47 0 -94.5 -14t-92 -36.5t-83.5 -51
t-68 -58.5t-45.5 -58.5t-16.5 -50.5q0 -21 18 -34t57 -13q41 0 82.5 16.5t80.5 43.5t74 63t63 75q1 2 3 4q4 4 7 4h1q5 -3 5 -8q0 -12 -15 -34t-40 -48.5t-58 -54.5t-69 -51t-73.5 -37.5t-70.5 -14.5q-51 0 -73 18t-22 47q0 27 17 60t47 67t71 66.5t89.5 57.5t102 40.5
t108.5 15.5q26 0 51.5 -5t46.5 -17.5t34 -34t13 -55.5q0 -26 -19.5 -66.5t-49 -88.5t-63.5 -99.5t-63 -100t-48.5 -90.5t-19.5 -71q0 -10 4.5 -21.5t21.5 -11.5q15 0 37 12.5t47 32.5t52 45.5t53 52.5q61 62 128 142l89 122q2 3 5 6q6 6 15 5l17 -1q2 0 4 -0.5t2 -3.5z
M461 648q0 4 2.5 13t6 18t6.5 16t6 8q8 3 15.5 1t9.5 -8q2 -5 0 -9q0 -4 -2.5 -11.5t-4.5 -16.5t-2 -19t5 -19q3 -10 14.5 -15t31.5 -1q33 7 54.5 23.5t40.5 29.5q3 2 5.5 3t4.5 4q2 0 5 -2t5 -4q1 -5 -4 -5q-38 -26 -74 -49t-62 -29q-14 -3 -25 -0.5t-18 8t-11 11.5t-5 10
q-6 11 -4.5 24t0.5 19z" />
    <glyph glyph-name="afii10021" unicode="&#x414;" horiz-adv-x="584" 
d="M442 646q0 -2 -2 -6q-2 -3 -17 -30.5t-38.5 -69.5t-52.5 -93.5t-58 -102.5t-56 -98t-47 -80q-1 -3 -4 -7q-5 -6 -14 -11q-8 -4 -15.5 -6.5t-12.5 -2.5q-9 0 -9 5q0 2 12 23.5t31.5 55.5t44.5 77t51.5 87.5t51 87.5t44 76.5t31 54t10.5 21.5q2 3 5 6q2 2 6 4.5t9 4.5
q11 5 18 6q4 1 7 2q2 0 4 -2q1 -1 1 -2zM729 563q0 -45 -17.5 -97t-49 -106t-74.5 -107.5t-94 -101.5q29 -9 46.5 -25.5t17.5 -41.5q0 -22 -16 -33.5t-29 -16.5l-4.5 -1.5t-3.5 -0.5q-3 0 -3 3q0 5 7 10q3 2 11.5 11.5t8.5 21.5q0 18 -16 31t-42 21q-46 -42 -96.5 -77.5
t-102.5 -61t-103.5 -40t-99.5 -14.5q-32 0 -51.5 12t-19.5 38t17.5 49.5t47 43t69 35.5t83 27t88.5 17t86 6q21 0 40.5 -1.5t36.5 -5.5q47 45 87.5 95t70.5 100t47 98.5t17 90.5q0 35 -13 64.5t-42 51t-75 33.5t-112 12q-56 0 -118 -12t-122 -32.5t-114.5 -48t-95.5 -60
t-65.5 -67.5t-24.5 -70q0 -17 11.5 -27.5t35.5 -10.5q34 0 66 8t67.5 26.5t76 48t92.5 72.5l8 8q7 7 14 7q2 0 3 -1q4 -3 4 -6t-2.5 -6.5t-4.5 -7.5q-1 -1 -17 -15.5t-41.5 -36t-59.5 -45.5t-71.5 -45t-77 -34.5t-75.5 -13.5q-40 0 -55.5 17t-15.5 46q0 37 28.5 76.5
t76 77.5t110.5 71.5t131.5 59t138.5 40.5t132 15q67 0 114 -13t77 -36t43.5 -55t13.5 -70zM442 136q-15 2 -31.5 3.5t-34.5 1.5q-53 0 -111 -10t-106.5 -29.5t-80 -47.5t-31.5 -64q0 -33 43 -33q39 0 83 13.5t89.5 37t91 56.5t88.5 72z" />
    <glyph glyph-name="afii10075" unicode="&#x439;" horiz-adv-x="318" 
d="M348 89q0 -8 -9 -13q-20 -13 -38.5 -24.5t-35.5 -21.5q-30 -17 -62 -31.5t-52 -14.5q-16 0 -21 8.5t-5 17.5q1 9 9 25t19 31q12 18 28 37q-17 -15 -32.5 -28.5t-31.5 -25.5q-13 -10 -27.5 -20.5t-28.5 -19.5t-26.5 -14.5t-21.5 -5.5q-14 0 -19.5 6.5t-5.5 14.5
q0 11 11 33t27.5 48.5t36.5 54t37 49.5l4 4q3 3 8.5 3.5t11 -1t9 -4t3.5 -4.5q0 -3 -6 -12q-5 -8 -24.5 -34t-38 -54.5t-29.5 -50.5t0 -22q15 0 44.5 22t62 51t61 58.5t41.5 44.5q1 1 2.5 2t2.5 2q2 2 8 2.5t11.5 0t9 -2.5t1.5 -5q-19 -26 -38.5 -53t-36 -50t-28 -41
t-13.5 -26q0 -10 13 -10q17 0 45.5 12.5t55.5 27.5q16 9 33 18.5t34 20.5q1 0 1 -1v-4zM189 360q0 4 2.5 13t6 18t6.5 16t6 8q8 3 15.5 1t9.5 -8q2 -5 0 -9q0 -4 -2.5 -11.5t-4.5 -16.5t-2 -19t5 -19q3 -10 14.5 -15t31.5 -1q33 7 54.5 23.5t40.5 29.5q3 2 5.5 3t4.5 4
q2 0 5 -2t5 -4q1 -5 -4 -5q-38 -26 -74 -49t-62 -29q-14 -3 -25 -0.5t-18 8t-11 11.5t-5 10q-6 11 -4.5 24t0.5 19z" />
    <glyph glyph-name="afii10018" unicode="&#x411;" horiz-adv-x="731" 
d="M606 134q-17 3 -36.5 5t-40.5 2q-40 0 -85 -9t-89.5 -24t-84.5 -33.5t-71 -37.5t-49 -37t-18 -31q0 -11 16 -18t51 -7q39 0 94 11.5t113 35t111.5 59.5t88.5 84zM428 346q9 4 24 10t33 10.5t37 8t35 3.5q64 0 97.5 -23.5t33.5 -65.5q0 -37 -12 -71t-33 -66
q31 -9 49.5 -25.5t18.5 -42.5q0 -22 -16 -33.5t-29 -16.5l-4.5 -1.5t-3.5 -0.5q-3 0 -3 3q0 6 7 10q3 2 11.5 11.5t8.5 21.5q0 18 -15 30.5t-41 20.5q-39 -48 -95 -87t-116.5 -66.5t-119 -42.5t-101.5 -15q-58 0 -83.5 11.5t-25.5 30.5q0 18 19.5 40t53 44.5t78 44.5
t95 38.5t104.5 27t105 10.5q50 0 82 -7q14 26 22.5 54.5t8.5 60.5t-29.5 57t-92.5 25q-36 0 -91 -21l-6 -3q-7 -4 -12 -4t-8 4l-1 2q0 2 2.5 5t12.5 8zM540 639l-2 -6q-2 -4 -18.5 -32.5t-41.5 -72t-56 -97.5t-62 -107t-59.5 -101t-48.5 -81q-1 -2 -2 -3.5t-2 -3.5
q-5 -6 -14 -11q-8 -4 -15.5 -6.5t-12.5 -2.5q-9 0 -9 5q0 2 12.5 24.5t33.5 57.5t47.5 79.5t54 91t54 90.5t47 79t33 56t11.5 22q1 1 2 2.5t3 3.5q4 4 15 9q10 4 18 6q1 1 3 1q3 0 4 1q2 0 4 -2q1 -1 1 -2zM858 687q0 -2 -6 -7.5t-18 -12t-31 -11.5t-44 -5h-235h-45
q-87 0 -163 -15t-139.5 -39.5t-114 -55.5t-85 -63t-53 -61.5t-18.5 -51.5q0 -40 58 -40q28 0 67.5 13.5t81.5 37.5t84 56t75 68l6 6q5 5 8 5q2 0 2 -3q0 -4 -1 -5q-12 -29 -45 -66.5t-79 -70.5t-99.5 -56t-105.5 -23q-48 0 -70 15.5t-22 40.5q0 27 23.5 63.5t66.5 75
t102.5 75.5t130.5 66t152.5 47t167.5 18h141.5t96.5 0.5t58.5 1t27.5 1.5q1 1 4 1h10q4 0 7.5 -1t3.5 -4z" />
    <glyph glyph-name="afii10043" unicode="&#x429;" horiz-adv-x="831" 
d="M604 -16q-35 0 -35 44q0 35 24.5 92.5t78.5 135.5q-31 -35 -58 -65.5t-56 -58.5q-24 -23 -50.5 -49t-54 -48t-54 -36.5t-50.5 -14.5q-26 0 -38 17.5t-12 35.5q0 71 103 219q-31 -35 -58 -65.5t-56 -58.5q-24 -23 -50.5 -49t-54 -48t-54 -36.5t-50.5 -14.5q-26 0 -38 17.5
t-12 35.5q0 32 21 78t52 98t67.5 108t67.5 107t52 95t21 73q0 22 -9.5 38t-24.5 26.5t-34.5 15.5t-38.5 5q-47 0 -94.5 -14t-92 -36.5t-83.5 -51t-68 -58.5t-45.5 -58.5t-16.5 -50.5q0 -21 18 -34t57 -13q41 0 82.5 16.5t80.5 43.5t74 63t63 75q1 1 1.5 2t1.5 2q4 4 8 4
q5 0 5 -8q0 -12 -15 -34t-40 -48.5t-58 -54.5t-69 -51t-73.5 -37.5t-70.5 -14.5q-51 0 -73 18t-22 47q0 27 17 60t47 67t71 66.5t89.5 57.5t102 40.5t108.5 15.5q25 0 51 -5t47 -17.5t34 -34t13 -55.5q0 -26 -20.5 -68.5t-51.5 -92.5t-66.5 -104.5t-66.5 -106t-51.5 -95
t-20.5 -72.5q0 -10 4.5 -21.5t21.5 -11.5q15 0 39 16t51.5 40.5t57 53.5t55.5 56q31 31 62.5 66.5t65.5 75.5q26 31 47.5 61t41.5 61q19 30 33 52t30 47q12 18 23.5 35.5t20.5 31.5t14.5 22.5t6.5 9.5q3 3 9 4.5t23 -0.5q6 0 6 -4q0 -1 -20.5 -34t-53 -83t-71.5 -111
t-75 -119q-35 -55 -58.5 -96t-37.5 -70.5t-20 -49.5t-6 -32q0 -10 4.5 -21.5t21.5 -11.5q15 0 39 16t51.5 40.5t57 53.5t55.5 56q31 31 62.5 66.5t65.5 75.5q26 31 47.5 61t41.5 61q19 30 33 52t30 47q12 18 23.5 35.5t20.5 31.5t14.5 22.5t6.5 9.5q3 3 9 4.5t23 -0.5
q6 0 6 -4q0 -1 -20.5 -34t-53 -83t-71.5 -111t-75 -119q-37 -59 -61 -101t-37.5 -72t-18.5 -49t-5 -31q0 -24 16 -24q8 0 28.5 9.5t44.5 23.5t48 31.5t40 32.5q14 -2 14 -11q0 -2 -1 -4l-2 -4q-9 -20 -14 -33t-12 -25.5t-16.5 -30t-27.5 -46.5q19 3 38 3q48 0 48 -21
q0 -6 -5.5 -14.5t-13 -16t-16 -12.5t-14.5 -5q-2 0 -5 1.5t-3 4.5t3.5 5t7.5 4.5t7.5 6.5t3.5 11q0 8 -5.5 11t-12.5 3q-10 0 -21.5 -1t-25.5 -3q-35 -53 -71.5 -102.5t-71.5 -88.5t-67 -62.5t-59 -23.5q-17 0 -25.5 8t-8.5 22q0 23 18.5 60.5t53.5 76.5t86 73t116 52
q10 15 16.5 25.5t13 22t15 27.5t23.5 43q-12 -10 -31.5 -24.5t-41.5 -27.5t-44 -22.5t-38 -9.5zM675 -75q-51 -17 -92.5 -47t-70.5 -64t-45 -65t-16 -49q0 -17 16 -17q14 0 36 19t49 51.5t58.5 76.5t64.5 95z" />
    <glyph glyph-name="afii10046" unicode="&#x42c;" horiz-adv-x="630" 
d="M293 676q26 34 39 51.5t16 17.5q5 0 8.5 -2t3.5 -7q-1 -5 -2 -8.5t-3 -7.5q-1 -2 -2 -3.5t-2 -3.5q-39 -60 -74.5 -118t-67.5 -115q-26 -48 -51.5 -99.5t-46 -101t-33.5 -95t-14 -81.5q-2 -42 15 -64t60 -24q47 -2 97.5 11.5t98.5 37t91 55.5t75.5 68t52 73.5t20.5 71.5
q3 55 -18 78.5t-52 28t-64 -3.5t-54 -17q-30 -11 -65.5 -39.5t-68.5 -68.5t-60 -87t-41 -95q-5 -11 -6 -11q-4 -3 -6 1q-2 9 -5 12q-5 18 2 46t23 60t40.5 66t54.5 64.5t64 54.5t70 37q53 21 92 18t65 -19.5t39 -42.5t15 -51q0 -44 -18 -89t-51 -86.5t-78.5 -77t-99.5 -61.5
t-114.5 -40t-122.5 -12q-55 2 -76.5 30.5t-19.5 76.5q1 36 13.5 80t32 90.5t44 94.5t49.5 93q31 54 64 106.5t71 107.5z" />
    <glyph glyph-name="afii10044" unicode="&#x42a;" horiz-adv-x="724" 
d="M301 545q-78 5 -129 18t-81 30.5t-42 37.5t-12 39q0 20 16 39t44 33q3 2 8.5 4.5t8.5 2.5q9 -1 7 -9q-2 -3 -5 -5t-8 -5q-8 -2 -14.5 -4.5t-11.5 -7.5q-10 -7 -17.5 -16.5t-8.5 -21.5q-1 -21 16 -37t43 -27t56.5 -18t57.5 -11t46.5 -6t22.5 -2q45 2 96.5 8t96 17.5t74 30
t30.5 44.5q-11 37 -54 25q-33 -7 -70 -28t-75.5 -52.5t-76 -71.5t-70.5 -84q-37 -53 -67.5 -106.5t-50.5 -104.5t-27.5 -96.5t1.5 -80.5q12 -51 63 -70.5t149 3.5q49 11 93.5 33.5t82.5 52t68.5 64.5t52 71t33 71t11.5 65q1 36 -8.5 57t-25 31.5t-35.5 12.5t-40.5 -1.5
t-39 -10.5t-32.5 -13q-30 -11 -64 -40t-65 -68.5t-56.5 -86.5t-37.5 -95l-5 -10q-4 -3 -6 1q-2 3 -3.5 6t-3.5 5q-6 17 1 45t23.5 61t41 68t54.5 66.5t64 57t69 39.5q52 22 89 19.5t61 -20t36 -44t15 -50.5q3 -34 -10 -75t-38.5 -83.5t-62.5 -84.5t-83 -78t-99.5 -63
t-112.5 -41q-49 -11 -85.5 -10.5t-62 11t-40.5 29t-22 44.5q-9 36 -1.5 84t27.5 102.5t51.5 112.5t71.5 114q38 52 79 95.5t83.5 77.5t86 57t85.5 33q31 8 50.5 0t25.5 -34q0 -29 -26.5 -55.5t-72.5 -46.5t-106 -32t-127 -12z" />
    <glyph glyph-name="afii10045" unicode="&#x42b;" horiz-adv-x="743" 
d="M293 676q26 34 39 51.5t16 17.5q5 0 8.5 -2t3.5 -7q-1 -5 -2 -8.5t-3 -7.5q-1 -2 -2 -3.5t-2 -3.5q-39 -60 -74.5 -118t-67.5 -115q-26 -48 -51.5 -99.5t-46 -101t-33.5 -95t-14 -81.5q-2 -42 15 -64t60 -24q47 -2 97.5 11.5t98.5 37t91 55.5t75.5 68t52 73.5t20.5 71.5
q3 55 -18 78.5t-52 28t-64 -3.5t-54 -17q-30 -11 -65.5 -39.5t-68.5 -68.5t-60 -87t-41 -95q-5 -11 -6 -11q-4 -3 -6 1q-2 9 -5 12q-5 18 2 46t23 60t40.5 66t54.5 64.5t64 54.5t70 37q53 21 92 18t65 -19.5t39 -42.5t15 -51q0 -44 -18 -89t-51 -86.5t-78.5 -77t-99.5 -61.5
t-114.5 -40t-122.5 -12q-55 2 -76.5 30.5t-19.5 76.5q1 36 13.5 80t32 90.5t44 94.5t49.5 93q31 54 64 106.5t71 107.5zM623 216q50 95 85 161t63.5 120t46 88.5t16.5 35.5q2 3 5 6q2 2 6 4.5t9 4.5q11 5 18 6q4 1 7 2q2 0 4 -2q1 -1 1 -2q0 -2 -2 -6q-2 -3 -20.5 -39.5
t-47 -91.5t-63 -122t-84.5 -164q-31 -60 -56.5 -110.5t-41.5 -80.5q-1 -3 -4 -7q-6 -8 -14 -11q-8 -4 -15.5 -6.5t-12.5 -2.5q-9 0 -9 5q0 1 8.5 18.5t23.5 46l35 66.5t42 81z" />
    <glyph glyph-name="afii10047" unicode="&#x42d;" horiz-adv-x="661" 
d="M561 323h19q12 28 23 56q20 58 23.5 113.5t-11 99t-48.5 69.5q-9 7 -19 12q-7 -13 -15 -27q-20 -33 -44.5 -61t-52.5 -48.5t-55 -27.5q-41 -14 -66 -8.5t-38 20t-14.5 34t4.5 34.5q10 24 36 46.5t60 40t70.5 28t66.5 10.5q18 -1 35 -5v1q13 35 18.5 64t3.5 43q-5 11 2 13
q2 1 2.5 -1t2.5 -5q13 -21 12 -50.5t-12 -62.5q-2 -4 -4 -9q28 -11 51 -33t37 -58t16 -87q2 -65 -16 -130q-9 -34 -22 -66q7 1 14 3q39 7 74 22q5 1 6 -1t1 -4q-2 -9 -12 -12q-35 -17 -81 -25l-10 -2q-10 -20 -21 -40q-33 -60 -80.5 -112t-105.5 -89.5t-125 -58.5t-139 -18
q-33 1 -57.5 10t-41 22t-25 28.5t-9.5 28.5q-5 49 18.5 94t61.5 79t85 54t89 19q20 -1 32.5 -8.5t14.5 -25.5q2 -21 -13 -51t-39.5 -57t-53.5 -44.5t-55 -12.5q-8 2 -8 4q0 1 -5.5 4t-4.5 5q0 1 2 3q22 -1 50.5 15.5t53 40.5t41 50t15.5 44q-2 14 -14 16.5t-26 2.5
q-34 0 -71 -22t-68 -56t-51.5 -73.5t-20.5 -73.5t25 -57.5t85 -24.5q80 -2 149 27.5t125 81t99 119.5q22 34 40 70q-17 -2 -34 -2q-54 -2 -101 6t-72 24q-6 3 -3.5 7.5t10.5 2.5l8 -3q43 -12 91.5 -15t91.5 0zM481 687q-65 -1 -106 -22.5t-58 -49t-11 -53.5t36 -36
q34 -6 64 9t54.5 42.5t43.5 62.5q11 22 20 42q-20 5 -43 5z" />
    <glyph glyph-name="afii10048" unicode="&#x42e;" horiz-adv-x="790" 
d="M945 542q0 -62 -24 -128.5t-64 -129.5t-91 -119t-105 -98t-107 -66.5t-96 -24.5q-49 0 -80 37t-31 121q0 85 27 160q7 21 16 40q-28 -3 -56.5 -3t-54.5 5q-5 -8 -9.5 -16.5t-9.5 -16.5q-5 -9 -14 -25.5t-19.5 -34.5t-20 -34.5t-14.5 -25.5q-30 -54 -62.5 -111.5
t-72.5 -129.5q-15 -21 -40 -21q-9 0 -9 9q0 10 4 15q1 2 12.5 22.5t31 55t45 79.5t54.5 96q14 25 36.5 64t48.5 85q-48 22 -88 55.5t-54 64.5q-3 5 -0.5 7t7.5 -3l6 -5q30 -35 66 -60t72 -42q34 60 69 120t61 106q24 43 39 69t16 27t3.5 3t4.5 4q5 3 12 5.5t18 2.5q7 0 7 -5
q0 -1 -1 -3.5t-6.5 -12.5t-17 -31t-32.5 -59t-53.5 -95.5t-79.5 -141.5q26 -4 55 -4.5t54 4.5q20 43 44 80q42 64 92 114t96.5 85t83.5 53.5t51 18.5q5 0 6 -3q1 -2 1 -3q0 -5 -3.5 -7t-8.5 -3q-36 -12 -77.5 -38.5t-83 -64.5t-79.5 -87t-67 -106q-7 -13 -13 -26
q46 16 85 48q4 1 6 -4q0 -8 -7 -15q-21 -17 -44 -29.5t-49 -21.5q-14 -35 -25 -73q-17 -64 -17 -133q0 -71 26 -102t68 -31q37 0 83 22t92.5 60t91 89.5t78.5 110.5t55 123.5t21 127.5q0 49 -17 70.5t-46 21.5q-25 0 -57 -15t-64 -41.5t-63 -61t-55 -73t-38.5 -79.5
t-14.5 -79q0 -39 14 -56.5t37 -17.5q32 0 72 30t73 82q1 2 3 4q4 4 6 4t3 -1q3 -1 3 -5q0 -12 -19.5 -36.5t-48 -49.5t-61.5 -43.5t-60 -18.5q-26 0 -42.5 21t-16.5 74q0 39 17.5 83t46.5 87.5t66 84t76 71t77.5 49t69.5 18.5q35 0 57.5 -27.5t22.5 -91.5z" />
    <glyph glyph-name="afii10031" unicode="&#x41d;" horiz-adv-x="468" 
d="M732 720q0 -5 -8 -19q-1 -3 -18.5 -32.5t-44 -76t-60.5 -106t-69 -121t-68.5 -121t-59.5 -107.5q84 5 154 39q7 0 7 -5q0 -8 -11 -14q-35 -17 -75.5 -26t-84.5 -11q-20 -38 -33 -62.5t-15 -30.5q-7 -12 -11.5 -22.5t-13.5 -10.5q-8 0 -13 4.5t-5 20.5q0 29 -3.5 55.5
t-9.5 52.5q-55 8 -101 25q-30 -54 -62.5 -112t-72.5 -129q2 1 -2 -2.5t-10.5 -7.5t-14 -7.5t-13.5 -3.5q-9 0 -9 10q0 6 4 14q1 2 13 22.5t31.5 55t45 79.5t54.5 96q-35 16 -64.5 36.5t-51 45.5t-33.5 54.5t-12 62.5q0 44 17 63.5t43 19.5q19 0 42 -9.5t47 -27.5t48 -44
t46 -58q36 64 70.5 124.5t61.5 108t44 78t19 33.5q4 4 9 8q5 3 12 5.5t18 2.5q7 0 7 -5q0 -1 -1 -3.5t-7.5 -14t-19.5 -35.5t-37.5 -67.5t-62 -110t-91.5 -162.5q17 -29 30 -62t21 -69q17 -2 34 -3t34 -1q24 47 54 103.5t61.5 114.5t62 114.5t56.5 103.5t45.5 81.5
t27.5 49.5q4 7 11 13.5t30 8.5q8 0 8 -6zM285 145q-16 56 -42 102q-10 -17 -22 -38t-22 -40q40 -16 86 -24zM220 284q-20 30 -42 53.5t-43 40t-40 25t-34 8.5q-34 0 -34 -41q0 -62 38 -109t98 -77q14 25 28.5 49.5t28.5 50.5zM367 120q-14 0 -28 1t-28 3q9 -43 9 -88
q0 -2 0.5 -4t0.5 -4v-3q7 17 19 41z" />
    <glyph glyph-name="afii10049" unicode="&#x42f;" horiz-adv-x="785" 
d="M474 572q18 -3 38.5 -5t42.5 -2q64 0 126.5 14t112 34t80 43.5t30.5 43.5q0 11 -16.5 18t-54.5 7q-41 0 -87.5 -6t-94 -22.5t-93 -46.5t-84.5 -78zM591 299q-39 -19 -76.5 -17t-67.5 19t-48 46t-18 64q0 37 16.5 76.5t38.5 71.5q-32 9 -53.5 23t-21.5 40q0 12 7 22t16 17
t18 10.5t14 3.5q3 0 3 -3q0 -4 -4.5 -7t-9.5 -7.5t-9.5 -11t-4.5 -17.5q0 -19 15.5 -31.5t43.5 -20.5q41 48 89.5 81.5t99.5 54t102 29.5t97 9q61 0 88 -11.5t27 -30.5q0 -27 -26 -56.5t-77 -54t-127 -39.5t-176 -12q-26 1 -48 2t-39 5q-34 -61 -33.5 -117.5t26 -92.5
t72.5 -42t107 35q2 2 4 -0.5t4 -3.5l5 -3q-59 -63 -111.5 -119.5t-107.5 -100t-117.5 -72.5t-143.5 -38q-62 -7 -95 13t-41 54.5t7.5 77t50 79t87 61.5t117.5 25q31 0 44 -11.5t12.5 -29.5t-13 -39t-31 -40t-41.5 -33.5t-46 -17.5q-4 0 -3 -1t1 2t1 5q0 6 3 9
q15 2 30.5 14.5t28 29t20 35t7 33t-11 22.5t-34.5 4q-39 -6 -72.5 -21t-57.5 -39.5t-36 -59t-9 -80.5q2 -32 24.5 -51t76.5 -15q49 3 103 27t107.5 61.5t104 85.5t92.5 99zM719 371q-22 -34 -43.5 -74t-38.5 -81.5t-27 -82t-8 -75.5q3 -28 24 -28q15 0 36 7.5t44.5 19
t47 25.5t43.5 27q1 0 1 -1v-4q0 -5 -10 -13t-23.5 -17t-28 -17t-21.5 -12q-15 -9 -32 -17.5t-34 -15t-32 -11t-26 -4.5q-35 0 -40 44q-3 47 11.5 93t38.5 89t53 82.5t56 74.5z" />
    <glyph glyph-name="afii10017" unicode="&#x410;" horiz-adv-x="515" 
d="M659 682q0 -20 -10 -54t-27.5 -77t-40.5 -94t-48.5 -104.5t-51.5 -108t-51 -105.5q32 2 65.5 9t56.5 18q8 4 9.5 9t3.5 5q6 0 9.5 -4t3.5 -8q0 -10 -14.5 -17.5t-37 -13.5t-50.5 -10t-54 -6q-15 -32 -29 -61.5t-25 -55.5q-4 -8 -12 -8q-16 0 -18.5 13.5t-2.5 26.5
q-2 18 -5.5 39.5t-8.5 45.5q-43 3 -79.5 12t-68.5 23v-1q-36 -45 -74 -85t-69 -71q-36 -36 -71 -67q-16 0 -22.5 5t-8.5 10q-3 4 -3 9q0 2 2 4q55 41 108.5 95t107.5 115q-65 35 -97.5 83.5t-32.5 89.5q0 35 24 59t74 24q51 0 89.5 -30t65.5 -75q60 75 114 146t100.5 125.5
t84.5 88t64 33.5q19 0 24.5 -10.5t5.5 -21.5zM622 669q0 7 -2.5 12t-9.5 5q-15 0 -49 -35.5t-79 -92t-97.5 -126t-103.5 -137.5q20 -38 33.5 -78.5t22.5 -74.5q14 -2 28 -3t28 -1q19 39 43 90.5t49.5 106.5t50 110t43.5 101t31 79t12 44zM315 145q-8 33 -19 67.5t-27 66.5
q-19 -26 -37.5 -49.5t-36.5 -46.5q26 -13 56 -23t64 -15zM255 306q-26 45 -60.5 73.5t-79.5 28.5q-38 0 -55 -15.5t-17 -38.5q0 -34 32 -77t92 -78q23 26 44.5 53t43.5 54zM368 119h-26q4 -14 5.5 -25.5t3.5 -19.5q2 -10 3 -18q4 7 8 17q4 8 9.5 20t12.5 26h-16z" />
    <glyph glyph-name="afii10038" unicode="&#x424;" horiz-adv-x="504" 
d="M489 706q22 0 43 2l20 36q4 10 19.5 14.5t23.5 4.5q2 0 4 -2q1 -1 1 -2l-2 -6q-2 -3 -15 -28q-3 -4 -6 -10q34 7 65 21q5 1 6 -1t1 -4q-2 -9 -12 -12q-31 -15 -70 -23q-9 -16 -20 -35h1q101 0 145.5 -28.5t44.5 -75.5q0 -32 -13.5 -73t-41 -84.5t-68 -86t-94 -78.5
t-120.5 -61.5t-146 -35.5q-24 -42 -43 -75t-31 -53q-2 -4 -4 -7q-6 -8 -14 -11q-8 -4 -15.5 -6.5t-12.5 -2.5q-9 0 -9 5l83 147q-100 0 -144 28q-44 29 -44 76q0 32 13.5 73t41 84.5t68 86t94 78.5t120.5 62t146 35l17 30q-29 -3 -57 -4q-54 -2 -101 6t-72 24q-6 3 -3.5 7.5
t10.5 2.5l8 -3q43 -12 91.5 -15t91.5 0zM488 627q-76 -9 -136.5 -31.5t-107 -53.5t-79.5 -67.5t-54 -74t-31 -73t-10 -63.5q0 -20 7.5 -39t24.5 -34t46 -24.5t72 -10.5zM689 532q0 40 -37.5 66t-123.5 28q-26 -47 -59 -106t-68.5 -121.5t-70.5 -125t-65 -115.5q74 9 134 33
t107 56t81.5 70t57 76.5t33.5 74.5t11 64z" />
    <glyph glyph-name="afii10081" unicode="&#x43f;" horiz-adv-x="357" 
d="M387 89q0 -3 -1.5 -6.5t-7.5 -6.5q-39 -26 -74 -46q-30 -17 -62 -31.5t-52 -14.5q-17 0 -24 6.5t-7 17.5q0 12 6 26.5t14.5 28t16 24.5t10.5 16q-60 -43 -94.5 -68t-52 -38t-23.5 -16t-10 -3q-3 0 -4.5 4t-1.5 9q0 10 12.5 31t27 43t27 41t12.5 25q0 1 -2 1t-6 -2
q-2 -1 -4 -3l-50 -40q-8 -6 -15 -10.5t-14 -9.5q-4 -2 -7 -2q-4 0 -4 5t3 6q17 10 37.5 26t40 31.5t34 26.5t19.5 11q8 0 11.5 -4.5t3.5 -9.5q0 -10 -10 -29t-22.5 -38.5t-24.5 -37t-16 -25.5l2 -1q5 0 28.5 16.5t51 37.5t52 40t33.5 23q1 1 3 2q4 2 8 2q6 -1 9 -5t3 -9
t-10.5 -19t-23.5 -31t-23.5 -33.5t-10.5 -25.5t23 -9q17 0 45.5 12.5t55.5 27.5q32 18 67 39q1 0 1 -1v-4z" />
    <glyph glyph-name="afii10084" unicode="&#x442;" horiz-adv-x="488" 
d="M517 89q0 -3 -1.5 -6.5t-7.5 -6.5q-39 -26 -74 -46q-30 -17 -62 -31.5t-52 -14.5q-17 0 -24 6.5t-7 17.5q0 12 6 26.5t14.5 28t16 24.5t10.5 16q-60 -43 -94.5 -67t-52.5 -35t-25 -13t-12 -2q-7 0 -8 7.5t-1 12.5l72 112q-6 -3 -28 -18.5t-49.5 -36.5t-56 -43.5
t-47.5 -39.5l-9 -9q-4 -3 -8.5 -5.5t-9.5 -2.5q-3 1 -8 5t-5 12q0 4 11.5 21.5t25 37.5t25 38.5t11.5 23.5q0 2 -2 2q-5 0 -16 -8t-17 -12l-25 -16q-4 -2 -7 -2q-4 0 -4 5q0 3 3 6q10 5 24.5 16.5t30 23t29.5 20.5t23 9q6 0 8.5 -3.5t2.5 -7.5q0 -12 -9.5 -29t-21 -34
t-21 -31t-9.5 -19q0 -2 2 -2q4 0 20 11.5t37.5 29.5t46 38t46 38t37.5 29.5t20 11.5q8 0 11.5 -4.5t3.5 -9.5q0 -6 -8.5 -20.5t-21 -33t-26 -39.5t-24.5 -40l2 -1q4 0 16 8t29 20t36 26.5t37 27.5t31.5 23t19.5 13q1 1 3 2q4 2 8 2q6 -1 9 -5t3 -9t-11 -20t-23.5 -32.5
t-23.5 -34.5t-11 -26t23 -9q17 0 45.5 12.5t55.5 27.5q32 18 67 39q1 0 1 -1v-4z" />
    <glyph glyph-name="afii10089" unicode="&#x447;" horiz-adv-x="245" 
d="M275 89q0 -3 -1.5 -6.5t-7.5 -6.5q-39 -26 -74 -46q-30 -17 -62 -31.5t-52 -14.5q-16 0 -21 8.5t-5 17.5q0 23 14.5 44t32 38t32 29t14.5 17q0 4 -6 5q-6 0 -12 1q-5 1 -12 1.5t-15 2.5q-23 -24 -47 -46t-46 -35q-4 -2 -7 -2q-4 0 -4 5q0 3 3 6q22 12 45.5 32t44.5 43
q-17 5 -31 14t-14 25q0 13 9.5 28.5t24.5 29t32 22.5t32 9q20 0 20 -24q0 -17 -10 -38t-27 -41q19 -3 33.5 -7.5t14.5 -15.5q0 -9 -3 -16.5t-12 -12.5q-7 -4 -18.5 -13.5t-22 -22t-18 -27.5t-7.5 -30q0 -6 4 -11t10 -5q17 0 45.5 12.5t55.5 27.5q32 18 67 39q1 0 1 -1v-4z
M139 238q0 19 -15 19q-7 0 -16.5 -4.5t-18 -12t-14.5 -16.5t-6 -18q0 -13 13.5 -19t30.5 -9q13 16 19.5 32t6.5 28z" />
    <glyph glyph-name="afii10091" unicode="&#x449;" horiz-adv-x="438" 
d="M290 -16q-16 0 -21 8.5t-5 17.5q1 5 4 13.5t8 17.5q-12 -12 -29.5 -22.5t-35.5 -18t-35 -12t-27 -4.5q-14 0 -19.5 6.5t-5.5 14.5q0 11 13 36q-12 -12 -29.5 -22.5t-35.5 -18t-35 -12t-27 -4.5q-14 0 -19.5 6.5t-5.5 14.5q0 10 12 33t29.5 50.5t37 55.5t35.5 50l4 5
q3 3 8 3q9 0 16.5 -4t7.5 -6q0 -3 -6 -12q-7 -11 -23 -34t-33 -47.5t-30 -45t-13 -26.5q0 -2 1.5 -7t8.5 -5q15 0 46.5 12t59.5 34q20 32 46 68.5t46 64.5l4 5q3 3 8 3q9 0 16.5 -4t7.5 -6q0 -3 -6 -12q-7 -11 -23 -34t-33 -47.5t-30 -45t-13 -26.5q0 -2 1.5 -7t8.5 -5
q15 0 46.5 12t59.5 34q11 15 25 34.5t27.5 39t26 36t20.5 25.5l4 4q2 2 8 2.5t12 -0.5t10 -3.5t2 -5.5q-19 -26 -38.5 -52.5t-36 -49.5t-27.5 -40.5t-13 -25.5q0 -10 13 -10q10 0 31.5 12.5t44.5 27.5q6 4 16 10.5t17 6.5q7 -1 6 -3.5t-1 -7.5q0 -2 -2.5 -6t-4.5 -6
q-12 -20 -25 -46.5t-24 -42.5q8 1 14.5 1.5t13.5 0.5q36 0 36 -17q0 -5 -4 -11.5t-9.5 -12t-12 -9.5t-10.5 -4q-2 0 -4 1.5t-2 3.5q0 5 8 7.5t8 13.5q0 7 -4 9t-9 2q-8 0 -16.5 -1t-19.5 -3q-26 -41 -50 -78.5t-48 -67.5t-49.5 -48.5t-53.5 -19.5q-13 -1 -19 5.5t-6 17.5
q0 18 13 47t37.5 59t61 56.5t83.5 40.5q11 18 16.5 26t9.5 14.5t9 15t16 27.5q-23 -18 -47 -35t-48 -17zM330 -65q-38 -13 -68 -35t-50.5 -46t-31.5 -46.5t-11 -36.5q0 -16 12 -14q16 1 31 14.5t32.5 37t38 55.5t47.5 71z" />
    <glyph glyph-name="afii10092" unicode="&#x44a;" horiz-adv-x="266" 
d="M139 238q0 19 -15 19q-7 0 -16.5 -4.5t-18 -12t-14.5 -16.5t-6 -18q0 -13 13.5 -19t30.5 -9q13 16 19.5 32t6.5 28zM106 15q14 0 34 2t33 13q-10 5 -17 18.5t-7 24.5q0 20 17.5 39t49.5 19q12 0 16.5 -9.5t4.5 -19.5q0 -16 -10.5 -35.5t-25.5 -31.5q8 -4 22 -4
q18 0 36.5 7t30.5 18q1 0 1 0.5t1 0.5q2 0 2 -4q2 -9 -6.5 -15.5t-20.5 -11t-25.5 -6.5t-20.5 -2q-8 0 -15.5 2.5t-14.5 4.5q-20 -20 -49 -33.5t-64 -7.5q-16 0 -21 8.5t-5 17.5q0 23 14.5 44t32 38t32 29t14.5 17q0 3 -6 5q-8 0 -12 1q-5 1 -12 1.5t-15 2.5
q-23 -24 -47 -46t-46 -35q-6 -2 -7 -2q-4 0 -4 5q0 3 3 6q22 12 45.5 32t44.5 43q-17 5 -31 14t-14 25q0 13 9.5 28.5t24.5 29t32 22.5t32 9q20 0 20 -24q0 -17 -10 -38t-27 -41q19 -3 33.5 -7.5t14.5 -15.5q0 -9 -3 -16.5t-12 -12.5q-8 -4 -19 -13.5t-21.5 -22t-18 -27.5
t-7.5 -30q0 -6 4 -11t10 -5zM186 41q14 12 21.5 25t7.5 23q0 19 -19 19q-14 0 -23 -12.5t-9 -26.5q0 -22 22 -28z" />
    <glyph glyph-name="afii10094" unicode="&#x44c;" horiz-adv-x="223" 
d="M138 28q-12 -14 -37 -26t-49.5 -16.5t-43 1.5t-18.5 27q0 15 10.5 38.5t27 49.5t36.5 52t40 46l5 5q4 4 10 4q12 0 16 -4q4 -2 6 -6q0 -3 -5 -8q-10 -11 -27 -33.5t-33.5 -47t-29 -47t-12.5 -31.5q0 -8 8 -12.5t20 -4.5t27 5t30 16q-11 6 -19 21t-8 27q0 22 19.5 42
t56.5 20q14 0 19 -10t5 -21q0 -17 -11 -38.5t-28 -34.5q18 -1 34 3.5t29 11.5t22.5 16t15.5 17q1 0 1 0.5t1 0.5q2 0 2 -4q3 -13 -10 -25t-32.5 -21t-41 -13t-36.5 0zM134 49q33 27 33 52q0 20 -22 20q-16 0 -26 -13t-10 -29q0 -23 25 -30z" />
    <glyph glyph-name="afii10093" unicode="&#x44b;" horiz-adv-x="383" 
d="M138 28q-12 -14 -37 -26t-49.5 -16.5t-43 1t-18.5 27.5q0 15 10.5 38.5t27 49.5t36.5 52t40 46l5 5q4 4 10 4q11 0 16 -4q5 -2 6 -6q0 -4 -5 -8q-10 -11 -27 -33.5t-33.5 -47t-29 -47t-12.5 -31.5q0 -8 8 -12.5t20 -4.5t27 5t30 16q-11 6 -19 21t-8 27q0 22 19.5 42
t56.5 20q14 0 19 -10t5 -21q0 -17 -11 -38.5t-28 -34.5q15 -4 28 -2.5t24 6.5t20 12.5t16 15.5q20 35 46.5 72t48.5 61l4 4q4 4 9 4q9 0 14 -4q3 -2 5 -5q0 -4 -4 -8q-9 -10 -27 -35t-36.5 -52.5t-32.5 -52t-14 -33.5q0 -5 2.5 -6.5t5.5 -3.5q6 -2 7 -2q17 0 45.5 12.5
t55.5 27.5q16 9 33 18.5t34 20.5q1 0 1 -1v-4q0 -3 -1.5 -6.5t-7.5 -6.5q-20 -13 -38.5 -24.5t-35.5 -21.5q-30 -17 -62 -31.5t-52 -14.5q-16 0 -21 8.5t-5 17.5q0 12 9 33q-22 -14 -47 -19t-39 6zM134 49q16 13 24.5 27t8.5 25q0 20 -22 20q-16 0 -26 -13t-10 -29
q0 -23 25 -30z" />
    <glyph glyph-name="afii10095" unicode="&#x44d;" horiz-adv-x="303" 
d="M131 109l80 3q8 14 8 25q0 20 -11 28.5t-27 6.5q-32 -4 -62.5 -19t-56 -33.5t-43.5 -36.5t-24 -27q-5 1 -5.5 0.5t1.5 15.5q1 9 24 29.5t56 42t70 38t65 16.5q31 1 44 -11t13 -30q0 -15 -8 -33t-22 -37t-33 -36.5t-41 -31.5q21 6 45 15t47.5 19.5t43.5 21.5t34 22
q4 0 4 -4v-4q0 -3 -1.5 -6.5t-7.5 -6.5q-19 -17 -49 -31t-63 -25t-65 -18.5t-55 -11.5q-9 -4 -21 -4q-5 -1 -8 -1.5t-5 -0.5l2 1h-1q-28 0 -28 24q0 8 5.5 15t12.5 12.5t14.5 9t11.5 5.5q1 1 5 1q9 0 9 -8q0 -2 -3 -3.5t-6.5 -4t-6.5 -6.5t-3 -11q0 -14 13 -14
q10 0 24.5 7.5t30.5 20t32 28t28 31.5l-68 -2q-29 0 -32 7t33 12z" />
    <glyph glyph-name="afii10096" unicode="&#x44e;" horiz-adv-x="319" 
d="M350 78q0 -3 -7 -9q-31 -19 -72 -19h-7q-26 -30 -59 -50t-56 -20q-31 0 -31 40q0 18 11 43q6 11 12 23h-74l-66 -102q-6 -9 -15 -9q-7 0 -13 4.5t-6 11.5q0 5 5 13l126 189l4 4q4 4 10 5t11 0t9 -4t3 -7q-1 -2 -2.5 -4.5l-4.5 -7.5l-42 -65l74 1q-3 9 -3 25q0 18 9 33.5
t22.5 27.5t30.5 18.5t33 6.5q23 0 42 -15.5t19 -50.5q0 -24 -10.5 -48.5t-27.5 -47.5h7q14 0 28 3.5t27 11.5q3 3 8 3t5 -4zM293 153q0 25 -16 36t-36 11q-23 0 -44 -13t-21 -34q0 -11 3 -20q14 15 31 28t37 23q2 0 3 1t5 1q3 0 3 -5q0 -3 -7 -8.5t-17.5 -14t-23 -20
t-23.5 -25.5q23 -35 67 -46q17 20 28 42t11 44zM240 53q-20 4 -38 13.5t-29 24.5q-16 -26 -16 -60q0 -18 16 -18q12 0 30.5 11t36.5 29z" />
    <glyph glyph-name="afii10097" unicode="&#x44f;" horiz-adv-x="357" 
d="M211 23q15 0 35 7.5t42.5 19t46 25.5t44.5 27q1 0 1 -1v-4q0 -5 -10 -13.5t-23.5 -17t-27.5 -16.5t-22 -12q-30 -17 -62 -31.5t-52 -14.5q-16 0 -21 8.5t-5 17.5q0 14 3.5 35t19.5 42l-8 -5q-5 -3 -16.5 -13t-26.5 -23t-31.5 -26t-31.5 -22q-13 -8 -27 -11.5t-25.5 -1
t-19.5 11t-10 23.5q-3 14 0 28t14 24q12 11 19.5 7t7.5 -12q-2 -8 -3.5 -17.5t-1 -18t4 -14.5t11.5 -7q5 -1 17 3.5t23 11.5q12 7 23.5 16.5t22 18.5t19.5 17t15 13q-41 -5 -50 22q-6 16 1.5 34t22 33t31.5 25.5t30 11.5q25 3 33 -10t5 -32t-14.5 -39.5t-26.5 -31.5q1 0 7 4
t12.5 7.5t12 4t6.5 -6.5q0 -3 -4.5 -14t-10.5 -24.5t-10.5 -26.5t-4.5 -20q0 -6 6 -9t9 -3zM199 192q-7 4 -16.5 5t-18.5 -1.5t-16.5 -9.5t-10.5 -19q-5 -17 5.5 -31t34.5 -14q15 9 22 20t8 21.5t-2 18t-6 10.5z" />
  </font>
</defs>
</svg>
